M48
; DRILL file KiCad 10.0.5 date 2026-09-30T10:05:06
; FORMAT={-:-/ absolute / metric / decimal}
; #@! TF.CreationDate,2026-09-30T10:05:06+08:00
; #@! TF.GenerationSoftware,Kicad,Pcbnew,10.0.5
; #@! TF.FileFunction,Plated,1,4,PTH
FMAT,2
METRIC
; #@! TA.AperFunction,Plated,PTH,ViaDrill
T1C0.300
; #@! TA.AperFunction,Plated,PTH,ComponentDrill
T2C0.750
%
G90
G05
T1
X1.0Y-1.0
X1.0Y-5.0
X1.0Y-21.0
X1.0Y-25.0
X1.0Y-29.0
X1.0Y-33.0
X1.316Y-7.75
X1.316Y-9.875
X1.316Y-14.125
X1.316Y-16.25
X2.84Y-7.75
X2.84Y-9.875
X2.84Y-14.125
X2.84Y-16.25
X4.364Y-7.75
X4.364Y-9.875
X4.364Y-14.125
X4.364Y-16.25
X5.0Y-1.0
X5.0Y-5.0
X5.0Y-21.0
X5.0Y-25.0
X5.0Y-29.0
X6.0Y-11.0
X6.0Y-13.0
X7.0Y-7.0
X7.0Y-9.0
X7.0Y-15.0
X7.0Y-17.0
X7.45Y-11.0
X7.45Y-13.0
X8.9Y-11.0
X8.9Y-13.0
X9.0Y-1.0
X9.0Y-5.0
X9.0Y-7.0
X9.0Y-9.0
X9.0Y-15.0
X9.0Y-17.0
X9.0Y-21.0
X9.0Y-25.0
X9.0Y-29.0
X9.0Y-33.0
X10.35Y-11.0
X10.35Y-13.0
X10.45Y-26.125
X11.0Y-7.0
X11.0Y-9.0
X11.0Y-15.0
X11.0Y-17.0
X11.2Y-30.0
X11.85Y-11.0
X11.85Y-13.0
X12.85Y-26.3
X13.0Y-1.0
X13.0Y-5.0
X13.0Y-7.0
X13.0Y-9.0
X13.0Y-15.0
X13.0Y-17.0
X13.0Y-21.0
X13.0Y-25.0
X14.25Y-13.433
X14.567Y-8.84
X14.567Y-9.827
X14.567Y-10.815
X15.0Y-7.0
X15.0Y-15.0
X15.0Y-17.0
X15.433Y-8.84
X15.433Y-9.827
X15.433Y-10.815
X16.0Y-13.5
X17.0Y-1.0
X17.0Y-5.0
X17.0Y-7.0
X17.0Y-9.0
X17.0Y-15.0
X17.0Y-17.0
X17.0Y-21.0
X17.0Y-25.0
X17.0Y-29.0
X17.0Y-33.0
X17.6Y-11.0
X17.6Y-13.0
X17.634Y-14.0
X18.6Y-18.61
X19.0Y-7.0
X19.0Y-9.0
X19.1Y-11.0
X19.15Y-27.45
X19.75Y-16.5
X20.1Y-13.0
X20.366Y-14.0
X20.6Y-11.0
X21.0Y-1.0
X21.0Y-5.0
X21.0Y-7.0
X21.0Y-9.0
X21.0Y-15.0
X21.0Y-21.0
X21.0Y-25.0
X21.0Y-33.0
X21.4Y-18.61
X21.6Y-13.0
X22.05Y-27.625
X22.1Y-11.0
X22.52Y-31.04
X23.0Y-7.0
X23.0Y-9.0
X23.0Y-15.0
X23.0Y-17.0
X23.1Y-13.0
X23.48Y-31.04
X23.6Y-11.0
X23.95Y-27.625
X24.6Y-13.0
X25.0Y-1.0
X25.0Y-5.0
X25.0Y-7.0
X25.0Y-9.0
X25.0Y-15.0
X25.0Y-17.0
X25.0Y-21.0
X25.1Y-11.0
X25.212Y-32.875
X26.1Y-13.0
X26.6Y-11.0
X27.0Y-7.0
X27.0Y-9.0
X27.0Y-15.0
X27.0Y-17.0
X27.6Y-13.0
X28.1Y-11.0
X29.0Y-1.0
X29.0Y-5.0
X29.0Y-7.0
X29.0Y-9.0
X29.0Y-15.0
X29.0Y-17.0
X29.0Y-21.0
X29.0Y-29.0
X29.1Y-13.0
X29.51Y-33.03
X29.6Y-11.0
X30.6Y-13.0
X31.0Y-7.0
X31.0Y-9.0
X31.0Y-15.0
X31.0Y-17.0
X31.1Y-11.0
X31.52Y-22.54
X31.65Y-25.175
X32.1Y-13.0
X32.48Y-22.54
X32.6Y-11.0
X32.95Y-28.025
X33.0Y-1.0
X33.0Y-5.0
X33.0Y-7.0
X33.0Y-9.0
X33.0Y-15.0
X33.0Y-17.0
X33.0Y-21.0
X33.0Y-33.0
X33.6Y-13.0
X34.1Y-11.0
X35.0Y-7.0
X35.0Y-9.0
X35.0Y-15.0
X35.0Y-17.0
X35.05Y-28.025
X35.1Y-13.0
X35.6Y-11.0
X36.6Y-13.0
X37.0Y-1.0
X37.0Y-5.0
X37.0Y-7.0
X37.0Y-9.0
X37.0Y-29.0
X37.0Y-33.0
X37.1Y-11.0
X38.1Y-13.0
X38.6Y-11.0
X39.0Y-7.0
X39.0Y-9.0
X39.0Y-15.0
X39.0Y-17.0
X39.6Y-13.0
X39.75Y-31.636
X39.75Y-33.16
X39.75Y-34.684
X40.1Y-11.0
X41.0Y-1.0
X41.0Y-5.0
X41.0Y-7.0
X41.0Y-9.0
X41.0Y-15.0
X41.0Y-17.0
X41.0Y-21.0
X41.0Y-29.0
X41.1Y-13.0
X41.6Y-11.0
X41.875Y-31.636
X41.875Y-33.16
X41.875Y-34.684
X42.6Y-13.0
X43.0Y-7.0
X43.0Y-9.0
X43.1Y-11.0
X44.0Y-12.933
X44.25Y-14.817
X44.375Y-17.649
X45.0Y-1.0
X45.0Y-5.0
X45.0Y-21.0
X45.0Y-25.0
X45.0Y-29.0
X45.636Y-7.75
X45.636Y-9.875
X45.636Y-14.125
X45.636Y-16.25
X46.125Y-31.636
X46.125Y-33.16
X46.125Y-34.684
X47.16Y-7.75
X47.16Y-9.875
X47.16Y-14.125
X47.16Y-16.25
X48.25Y-31.636
X48.25Y-33.16
X48.25Y-34.684
X48.684Y-7.75
X48.684Y-9.875
X48.684Y-14.125
X48.684Y-16.25
X49.0Y-1.0
X49.0Y-5.0
X49.0Y-21.0
X49.0Y-25.0
X49.0Y-29.0
T2
X4.0Y-32.0
X6.0Y-32.0
M30
