%TF.GenerationSoftware,KiCad,Pcbnew,10.0.5*%
%TF.CreationDate,2026-09-30T10:05:05+08:00*%
%TF.ProjectId,rffe,72666665-2e6b-4696-9361-645f70636258,A*%
%TF.SameCoordinates,Original*%
%TF.FileFunction,Copper,L1,Top*%
%TF.FilePolarity,Positive*%
%FSLAX46Y46*%
G04 Gerber Fmt 4.6, Leading zero omitted, Abs format (unit mm)*
G04 Created by KiCad (PCBNEW 10.0.5) date 2026-09-30 10:05:05*
%MOMM*%
%LPD*%
G01*
G04 APERTURE LIST*
G04 Aperture macros list*
%AMRoundRect*
0 Rectangle with rounded corners*
0 $1 Rounding radius*
0 $2 $3 $4 $5 $6 $7 $8 $9 X,Y pos of 4 corners*
0 Add a 4 corners polygon primitive as box body*
4,1,4,$2,$3,$4,$5,$6,$7,$8,$9,$2,$3,0*
0 Add four circle primitives for the rounded corners*
1,1,$1+$1,$2,$3*
1,1,$1+$1,$4,$5*
1,1,$1+$1,$6,$7*
1,1,$1+$1,$8,$9*
0 Add four rect primitives between the rounded corners*
20,1,$1+$1,$2,$3,$4,$5,0*
20,1,$1+$1,$4,$5,$6,$7,0*
20,1,$1+$1,$6,$7,$8,$9,0*
20,1,$1+$1,$8,$9,$2,$3,0*%
%AMFreePoly0*
4,1,9,3.862500,-0.866500,0.737500,-0.866500,0.737500,-0.450000,-0.737500,-0.450000,-0.737500,0.450000,0.737500,0.450000,0.737500,0.866500,3.862500,0.866500,3.862500,-0.866500,3.862500,-0.866500,$1*%
G04 Aperture macros list end*
%TA.AperFunction,SMDPad,CuDef*%
%ADD10RoundRect,0.140000X-0.140000X-0.170000X0.140000X-0.170000X0.140000X0.170000X-0.140000X0.170000X0*%
%TD*%
%TA.AperFunction,SMDPad,CuDef*%
%ADD11RoundRect,0.140000X-0.170000X0.140000X-0.170000X-0.140000X0.170000X-0.140000X0.170000X0.140000X0*%
%TD*%
%TA.AperFunction,SMDPad,CuDef*%
%ADD12R,5.080000X1.500000*%
%TD*%
%TA.AperFunction,SMDPad,CuDef*%
%ADD13RoundRect,0.375000X-0.625000X-0.375000X0.625000X-0.375000X0.625000X0.375000X-0.625000X0.375000X0*%
%TD*%
%TA.AperFunction,SMDPad,CuDef*%
%ADD14RoundRect,0.500000X-0.500000X-1.400000X0.500000X-1.400000X0.500000X1.400000X-0.500000X1.400000X0*%
%TD*%
%TA.AperFunction,SMDPad,CuDef*%
%ADD15RoundRect,0.250000X-0.250000X-0.475000X0.250000X-0.475000X0.250000X0.475000X-0.250000X0.475000X0*%
%TD*%
%TA.AperFunction,SMDPad,CuDef*%
%ADD16RoundRect,0.250000X0.362500X1.425000X-0.362500X1.425000X-0.362500X-1.425000X0.362500X-1.425000X0*%
%TD*%
%TA.AperFunction,ComponentPad*%
%ADD17RoundRect,0.250000X-0.350000X-0.625000X0.350000X-0.625000X0.350000X0.625000X-0.350000X0.625000X0*%
%TD*%
%TA.AperFunction,ComponentPad*%
%ADD18O,1.200000X1.750000*%
%TD*%
%TA.AperFunction,SMDPad,CuDef*%
%ADD19RoundRect,0.218750X-0.256250X0.218750X-0.256250X-0.218750X0.256250X-0.218750X0.256250X0.218750X0*%
%TD*%
%TA.AperFunction,SMDPad,CuDef*%
%ADD20R,1.500000X5.080000*%
%TD*%
%TA.AperFunction,SMDPad,CuDef*%
%ADD21RoundRect,0.218750X-0.218750X-0.256250X0.218750X-0.256250X0.218750X0.256250X-0.218750X0.256250X0*%
%TD*%
%TA.AperFunction,SMDPad,CuDef*%
%ADD22RoundRect,0.135000X0.135000X0.185000X-0.135000X0.185000X-0.135000X-0.185000X0.135000X-0.185000X0*%
%TD*%
%TA.AperFunction,SMDPad,CuDef*%
%ADD23RoundRect,0.225000X0.225000X-0.425000X0.225000X0.425000X-0.225000X0.425000X-0.225000X-0.425000X0*%
%TD*%
%TA.AperFunction,SMDPad,CuDef*%
%ADD24FreePoly0,90.000000*%
%TD*%
%TA.AperFunction,SMDPad,CuDef*%
%ADD25RoundRect,0.135000X-0.135000X-0.185000X0.135000X-0.185000X0.135000X0.185000X-0.135000X0.185000X0*%
%TD*%
%TA.AperFunction,SMDPad,CuDef*%
%ADD26RoundRect,0.250000X-0.400000X-0.300000X0.400000X-0.300000X0.400000X0.300000X-0.400000X0.300000X0*%
%TD*%
%TA.AperFunction,ViaPad*%
%ADD27C,0.600000*%
%TD*%
%TA.AperFunction,Conductor*%
%ADD28C,0.320000*%
%TD*%
%TA.AperFunction,Conductor*%
%ADD29C,0.200000*%
%TD*%
%TA.AperFunction,Conductor*%
%ADD30C,0.300000*%
%TD*%
%ADD31C,0.300000*%
%ADD32C,0.350000*%
G04 APERTURE END LIST*
D10*
%TO.P,C1,1*%
%TO.N,/RF_IN*%
X8020000Y-12000000D03*
%TO.P,C1,2*%
%TO.N,/RF_A*%
X8980000Y-12000000D03*
%TD*%
D11*
%TO.P,C4,1*%
%TO.N,/BIAS*%
X21400000Y-16720000D03*
%TO.P,C4,2*%
%TO.N,GND*%
X21400000Y-17680000D03*
%TD*%
D12*
%TO.P,J2,1*%
%TO.N,/RF_OUT*%
X47160000Y-12000000D03*
%TO.P,J2,2*%
%TO.N,GND*%
X47160000Y-7750000D03*
X47160000Y-16250000D03*
%TD*%
D10*
%TO.P,C8,1*%
%TO.N,+3V3*%
X22520000Y-32000000D03*
%TO.P,C8,2*%
%TO.N,GND*%
X23480000Y-32000000D03*
%TD*%
D13*
%TO.P,U1,1*%
%TO.N,GND*%
X12850000Y-27700000D03*
%TO.P,U1,2*%
%TO.N,+3V3*%
X12850000Y-30000000D03*
D14*
X19150000Y-30000000D03*
D13*
%TO.P,U1,3*%
%TO.N,+12V*%
X12850000Y-32300000D03*
%TD*%
D15*
%TO.P,C7,1*%
%TO.N,+3V3*%
X22050000Y-29000000D03*
%TO.P,C7,2*%
%TO.N,GND*%
X23950000Y-29000000D03*
%TD*%
D16*
%TO.P,R5,1*%
%TO.N,+12V*%
X42962500Y-21500000D03*
%TO.P,R5,2*%
%TO.N,/BIAS*%
X37037500Y-21500000D03*
%TD*%
D10*
%TO.P,C2,1*%
%TO.N,/RF_B*%
X23520000Y-12000000D03*
%TO.P,C2,2*%
%TO.N,/RF_OUT*%
X24480000Y-12000000D03*
%TD*%
D17*
%TO.P,J4,1*%
%TO.N,+12V*%
X4000000Y-32000000D03*
D18*
%TO.P,J4,2*%
%TO.N,GND*%
X6000000Y-32000000D03*
%TD*%
D12*
%TO.P,J1,1*%
%TO.N,/RF_IN*%
X2840000Y-12000000D03*
%TO.P,J1,2*%
%TO.N,GND*%
X2840000Y-16250000D03*
X2840000Y-7750000D03*
%TD*%
D19*
%TO.P,L1,1*%
%TO.N,/RF_B*%
X19000000Y-13712500D03*
%TO.P,L1,2*%
%TO.N,/BIAS*%
X19000000Y-15287500D03*
%TD*%
D20*
%TO.P,J3,1*%
%TO.N,/CLK_OUT*%
X44000000Y-33160000D03*
%TO.P,J3,2*%
%TO.N,GND*%
X48250000Y-33160000D03*
X39750000Y-33160000D03*
%TD*%
D21*
%TO.P,D1,1*%
%TO.N,GND*%
X25212500Y-34000000D03*
%TO.P,D1,2*%
%TO.N,/LED_A*%
X26787500Y-34000000D03*
%TD*%
D22*
%TO.P,R4,1*%
%TO.N,+3V3*%
X29510000Y-34000000D03*
%TO.P,R4,2*%
%TO.N,/LED_A*%
X28490000Y-34000000D03*
%TD*%
D23*
%TO.P,U2,1*%
%TO.N,/RF_A*%
X13500000Y-12000000D03*
D24*
%TO.P,U2,2*%
%TO.N,GND*%
X15000000Y-11912500D03*
D23*
%TO.P,U2,3*%
%TO.N,/RF_B*%
X16500000Y-12000000D03*
%TD*%
D10*
%TO.P,C5,1*%
%TO.N,+3V3*%
X31520000Y-23500000D03*
%TO.P,C5,2*%
%TO.N,GND*%
X32480000Y-23500000D03*
%TD*%
D16*
%TO.P,R1,1*%
%TO.N,+12V*%
X42962500Y-16300000D03*
%TO.P,R1,2*%
%TO.N,/BIAS*%
X37037500Y-16300000D03*
%TD*%
D25*
%TO.P,R2,1*%
%TO.N,/CLK*%
X37490000Y-25175000D03*
%TO.P,R2,2*%
%TO.N,/CLK_OUT*%
X38510000Y-25175000D03*
%TD*%
D11*
%TO.P,C3,1*%
%TO.N,/BIAS*%
X18600000Y-16720000D03*
%TO.P,C3,2*%
%TO.N,GND*%
X18600000Y-17680000D03*
%TD*%
D15*
%TO.P,C6,1*%
%TO.N,+12V*%
X8550000Y-27500000D03*
%TO.P,C6,2*%
%TO.N,GND*%
X10450000Y-27500000D03*
%TD*%
D26*
%TO.P,X1,1*%
%TO.N,+3V3*%
X32950000Y-26825000D03*
%TO.P,X1,2*%
%TO.N,GND*%
X35050000Y-26825000D03*
%TO.P,X1,3*%
%TO.N,/CLK*%
X35050000Y-25175000D03*
%TO.P,X1,4*%
%TO.N,+3V3*%
X32950000Y-25175000D03*
%TD*%
D16*
%TO.P,R3,1*%
%TO.N,+12V*%
X29962500Y-24500000D03*
%TO.P,R3,2*%
%TO.N,/BIAS*%
X24037500Y-24500000D03*
%TD*%
D27*
%TO.N,GND*%
X33000000Y-5000000D03*
X48250000Y-31636000D03*
X45636000Y-7750000D03*
X5000000Y-5000000D03*
X7000000Y-15000000D03*
X17600000Y-13000000D03*
X22100000Y-11000000D03*
X27000000Y-15000000D03*
X41000000Y-7000000D03*
X21600000Y-13000000D03*
X29600000Y-11000000D03*
X25000000Y-21000000D03*
X27000000Y-7000000D03*
X9000000Y-9000000D03*
X15000000Y-15000000D03*
X25100000Y-11000000D03*
X7000000Y-17000000D03*
X13000000Y-5000000D03*
X29000000Y-9000000D03*
X31000000Y-15000000D03*
X32600000Y-11000000D03*
X9000000Y-25000000D03*
X27600000Y-13000000D03*
X41000000Y-15000000D03*
X39750000Y-33159999D03*
X13000000Y-9000000D03*
X42600000Y-13000000D03*
X20600000Y-11000000D03*
X41600000Y-11000000D03*
X45636000Y-16250000D03*
X45000000Y-1000000D03*
X4364000Y-9875000D03*
X49000000Y-25000000D03*
X36600000Y-13000000D03*
X44375000Y-17649500D03*
X25000000Y-9000000D03*
X23000000Y-15000000D03*
X33000000Y-21000000D03*
X39000000Y-15000000D03*
X33000000Y-17000000D03*
X33600000Y-13000000D03*
X21000000Y-15000000D03*
X2840000Y-7750000D03*
X15000000Y-17000000D03*
X21000000Y-21000000D03*
X13000000Y-7000000D03*
X48684000Y-9875000D03*
X23480000Y-31040000D03*
X39600000Y-13000000D03*
X2840000Y-14125000D03*
X46125000Y-31636000D03*
X20366000Y-14000000D03*
X17000000Y-9000000D03*
X37000000Y-1000000D03*
X11000000Y-9000000D03*
X13000000Y-25000000D03*
X31100000Y-11000000D03*
X48684000Y-16250000D03*
X15433300Y-8840000D03*
X5000000Y-25000000D03*
X23000000Y-9000000D03*
X46125000Y-33159999D03*
X45636000Y-14125000D03*
X21000000Y-7000000D03*
X4364000Y-14125000D03*
X38600000Y-11000000D03*
X9000000Y-17000000D03*
X44000000Y-12933000D03*
X14250000Y-13433000D03*
X30600000Y-13000000D03*
X47160000Y-14125000D03*
X45636000Y-9875000D03*
X41875000Y-34684000D03*
X25000000Y-15000000D03*
X31000000Y-7000000D03*
X17000000Y-25000000D03*
X13000000Y-17000000D03*
X41000000Y-1000000D03*
X26100000Y-13000000D03*
X31000000Y-17000000D03*
X41000000Y-5000000D03*
X37000000Y-9000000D03*
X17000000Y-7000000D03*
X49000000Y-29000000D03*
X44250000Y-14817000D03*
X35600000Y-11000000D03*
X19000000Y-9000000D03*
X17000000Y-15000000D03*
X1000000Y-33000000D03*
X15433300Y-9827500D03*
X25000000Y-17000000D03*
X47160000Y-9875000D03*
X1000000Y-21000000D03*
X15000000Y-7000000D03*
X33000000Y-1000000D03*
X1316000Y-16250000D03*
X43100000Y-11000000D03*
X35000000Y-15000000D03*
X37000000Y-7000000D03*
X8900000Y-13000000D03*
X4364000Y-16250000D03*
X45000000Y-21000000D03*
X9000000Y-7000000D03*
X14566700Y-10815000D03*
X16000000Y-13500000D03*
X9000000Y-29000000D03*
X14566700Y-9827500D03*
X11000000Y-7000000D03*
X9000000Y-1000000D03*
X35050000Y-28025000D03*
X39750000Y-34684000D03*
X41875000Y-33159999D03*
X9000000Y-5000000D03*
X7450000Y-11000000D03*
X29000000Y-1000000D03*
X23000000Y-17000000D03*
X19000000Y-7000000D03*
X13000000Y-21000000D03*
X32479999Y-22540000D03*
X6000000Y-13000000D03*
X29000000Y-15000000D03*
X41000000Y-17000000D03*
X17000000Y-33000000D03*
X1316000Y-14125000D03*
X39750000Y-31636000D03*
X1000000Y-1000000D03*
X10450000Y-26125000D03*
X5000000Y-1000000D03*
X11000000Y-17000000D03*
X17000000Y-29000000D03*
X41000000Y-9000000D03*
X33000000Y-33000000D03*
X33000000Y-9000000D03*
X11000000Y-15000000D03*
X39000000Y-17000000D03*
X35000000Y-7000000D03*
X48250000Y-34684000D03*
X11850000Y-11000000D03*
X17000000Y-1000000D03*
X47160000Y-7750000D03*
X43000000Y-9000000D03*
X29000000Y-29000000D03*
X25212500Y-32875000D03*
X17600000Y-11000000D03*
X23950000Y-27625000D03*
X32100000Y-13000000D03*
X40100000Y-11000000D03*
X48684000Y-7750000D03*
X25000000Y-7000000D03*
X29000000Y-7000000D03*
X33000000Y-7000000D03*
X49000000Y-1000000D03*
X8900000Y-11000000D03*
X45000000Y-5000000D03*
X21000000Y-25000000D03*
X14566700Y-8840000D03*
X17000000Y-21000000D03*
X29100000Y-13000000D03*
X28100000Y-11000000D03*
X29000000Y-5000000D03*
X25000000Y-1000000D03*
X17000000Y-17000000D03*
X12850000Y-26300000D03*
X35000000Y-9000000D03*
X6000000Y-11000000D03*
X49000000Y-5000000D03*
X4364000Y-7750000D03*
X2840000Y-16250000D03*
X29000000Y-21000000D03*
X21400000Y-18610000D03*
X26600000Y-11000000D03*
X35000000Y-17000000D03*
X11850000Y-13000000D03*
X37100000Y-11000000D03*
X1316000Y-9875000D03*
X1000000Y-25000000D03*
X46125000Y-34684000D03*
X39000000Y-9000000D03*
X1000000Y-29000000D03*
X21000000Y-9000000D03*
X15433300Y-10815000D03*
X43000000Y-7000000D03*
X41000000Y-21000000D03*
X23600000Y-11000000D03*
X13000000Y-1000000D03*
X23000000Y-7000000D03*
X27000000Y-9000000D03*
X19750000Y-16500000D03*
X7000000Y-9000000D03*
X35100000Y-13000000D03*
X9000000Y-33000000D03*
X24600000Y-13000000D03*
X31000000Y-9000000D03*
X2840000Y-9875000D03*
X19100000Y-11000000D03*
X34100000Y-11000000D03*
X29000000Y-17000000D03*
X20100000Y-13000000D03*
X41100000Y-13000000D03*
X21000000Y-1000000D03*
X41000000Y-29000000D03*
X47160000Y-16250000D03*
X1316000Y-7750000D03*
X39000000Y-7000000D03*
X23100000Y-13000000D03*
X37000000Y-33000000D03*
X45000000Y-29000000D03*
X25000000Y-5000000D03*
X21000000Y-33000000D03*
X18600000Y-18610000D03*
X5000000Y-29000000D03*
X49000000Y-21000000D03*
X37000000Y-5000000D03*
X10350000Y-13000000D03*
X5000000Y-21000000D03*
X41875000Y-31636000D03*
X48684000Y-14125000D03*
X33000000Y-15000000D03*
X21000000Y-5000000D03*
X17634000Y-14000000D03*
X38100000Y-13000000D03*
X27000000Y-17000000D03*
X17000000Y-5000000D03*
X9000000Y-21000000D03*
X1000000Y-5000000D03*
X37000000Y-29000000D03*
X45000000Y-25000000D03*
X9000000Y-15000000D03*
X10350000Y-11000000D03*
X7000000Y-7000000D03*
X48250000Y-33159999D03*
X7450000Y-13000000D03*
X13000000Y-15000000D03*
%TO.N,+3V3*%
X31520000Y-22540000D03*
X32950000Y-28025000D03*
X19150000Y-27450000D03*
X22050000Y-27625000D03*
X11200000Y-30000000D03*
X31650000Y-25175000D03*
X22520000Y-31040000D03*
X29510000Y-33030000D03*
%TD*%
%TO.N,/RF_IN*%
D28*
X2840000Y-12000000D02*
X8020000Y-12000000D01*
%TO.N,/RF_A*%
X8980000Y-12000000D02*
X13500000Y-12000000D01*
%TO.N,/BIAS*%
D29*
X21400000Y-16300000D02*
X21400000Y-16720000D01*
X24037500Y-16300000D02*
X37037500Y-16300000D01*
X37037500Y-16300000D02*
X37037500Y-21500000D01*
X20387500Y-15287500D02*
X21400000Y-16300000D01*
X19000000Y-15287500D02*
X20387500Y-15287500D01*
X21400000Y-16300000D02*
X24037500Y-16300000D01*
X18600000Y-15687500D02*
X18600000Y-16720000D01*
X24037500Y-16300000D02*
X24037500Y-24500000D01*
X19000000Y-15287500D02*
X18600000Y-15687500D01*
%TO.N,GND*%
D30*
X10450000Y-27500000D02*
X10450000Y-26125000D01*
X35050000Y-26825000D02*
X35050000Y-28025000D01*
X21400000Y-17680000D02*
X21400000Y-18610000D01*
X32479999Y-23500000D02*
X32479999Y-22540000D01*
X18600000Y-17680000D02*
X18600000Y-18610000D01*
X23950000Y-29000000D02*
X23950000Y-27625000D01*
X23480000Y-32000000D02*
X23480000Y-31040000D01*
X25212500Y-34000000D02*
X25212500Y-32875000D01*
X12850000Y-27700000D02*
X12850000Y-26300000D01*
%TO.N,/RF_OUT*%
D28*
X24480000Y-12000000D02*
X47160000Y-12000000D01*
%TO.N,+3V3*%
D30*
X19150000Y-30000000D02*
X19150000Y-27450000D01*
X12850000Y-30000000D02*
X11200000Y-30000000D01*
X31520000Y-23500000D02*
X31520000Y-22540000D01*
X32950000Y-25175000D02*
X31650000Y-25175000D01*
X22050000Y-29000000D02*
X22050000Y-27625000D01*
X22520000Y-32000000D02*
X22520000Y-31040000D01*
X29510000Y-34000000D02*
X29510000Y-33030000D01*
X32950000Y-26825000D02*
X32950000Y-28025000D01*
%TO.N,+12V*%
D29*
X40967300Y-23495200D02*
X42962500Y-21500000D01*
X42962500Y-16300000D02*
X42962500Y-21500000D01*
X7595600Y-28454400D02*
X9176600Y-30035400D01*
X4000000Y-32000000D02*
X7545600Y-28454400D01*
X34412100Y-21887100D02*
X36020200Y-23495200D01*
X10307100Y-30035400D02*
X11492400Y-28850100D01*
X7595600Y-28454400D02*
X8550000Y-27500000D01*
X10307100Y-30035400D02*
X12571700Y-32300000D01*
X11492400Y-28850100D02*
X15599900Y-28850100D01*
X29962500Y-23245900D02*
X31321300Y-21887100D01*
X7545600Y-28454400D02*
X7595600Y-28454400D01*
X15599900Y-28850100D02*
X17647000Y-26803000D01*
X12571700Y-32300000D02*
X12850000Y-32300000D01*
X9176600Y-30035400D02*
X10307100Y-30035400D01*
X36020200Y-23495200D02*
X40967300Y-23495200D01*
X17647000Y-26803000D02*
X27659500Y-26803000D01*
X31321300Y-21887100D02*
X34412100Y-21887100D01*
X29962500Y-24500000D02*
X29962500Y-23245900D01*
X27659500Y-26803000D02*
X29962500Y-24500000D01*
%TO.N,/RF_B*%
D28*
X16500000Y-12000000D02*
X23520000Y-12000000D01*
X19000000Y-12000000D02*
X19000000Y-13712500D01*
%TO.N,/CLK_OUT*%
X38510000Y-25175000D02*
X44000000Y-25175000D01*
X44000000Y-25175000D02*
X44000000Y-33159999D01*
%TO.N,/LED_A*%
D29*
X28490000Y-34000000D02*
X26787500Y-34000000D01*
%TO.N,/CLK*%
X37490000Y-25175000D02*
X35050000Y-25175000D01*
%TD*%
%TA.AperFunction,Conductor*%
%TO.N,GND*%
G36*
X49458691Y-519407D02*
G01*
X49494655Y-568907D01*
X49499500Y-599500D01*
X49499500Y-10850500D01*
X49480593Y-10908691D01*
X49431093Y-10944655D01*
X49400500Y-10949500D01*
X44575139Y-10949500D01*
X44575136Y-10949501D01*
X44550009Y-10952414D01*
X44447235Y-10997794D01*
X44367794Y-11077235D01*
X44322414Y-11180011D01*
X44319500Y-11205130D01*
X44319500Y-11440500D01*
X44300593Y-11498691D01*
X44251093Y-11534655D01*
X44220500Y-11539500D01*
X25000506Y-11539500D01*
X24942315Y-11520593D01*
X24940646Y-11519167D01*
X24828158Y-11436148D01*
X24702823Y-11392291D01*
X24702814Y-11392289D01*
X24673076Y-11389500D01*
X24673066Y-11389500D01*
X24286934Y-11389500D01*
X24286923Y-11389500D01*
X24257185Y-11392289D01*
X24257176Y-11392291D01*
X24131841Y-11436148D01*
X24058788Y-11490064D01*
X24000740Y-11509406D01*
X23942410Y-11490935D01*
X23941212Y-11490064D01*
X23868158Y-11436148D01*
X23742823Y-11392291D01*
X23742814Y-11392289D01*
X23713076Y-11389500D01*
X23713066Y-11389500D01*
X23326934Y-11389500D01*
X23326923Y-11389500D01*
X23297185Y-11392289D01*
X23297176Y-11392291D01*
X23171841Y-11436148D01*
X23059031Y-11519406D01*
X23057116Y-11516812D01*
X23014981Y-11538281D01*
X22999494Y-11539500D01*
X17339000Y-11539500D01*
X17280809Y-11520593D01*
X17244845Y-11471093D01*
X17240706Y-11452300D01*
X17240359Y-11449410D01*
X17187364Y-11315025D01*
X17100078Y-11199922D01*
X16984975Y-11112636D01*
X16984974Y-11112635D01*
X16984972Y-11112634D01*
X16850591Y-11059641D01*
X16766148Y-11049500D01*
X16766144Y-11049500D01*
X16233856Y-11049500D01*
X16233851Y-11049500D01*
X16149408Y-11059641D01*
X16015027Y-11112634D01*
X15899922Y-11199922D01*
X15812634Y-11315027D01*
X15759641Y-11449408D01*
X15749500Y-11533851D01*
X15749500Y-12466148D01*
X15759641Y-12550591D01*
X15812634Y-12684972D01*
X15812635Y-12684974D01*
X15812636Y-12684975D01*
X15899922Y-12800078D01*
X16015025Y-12887364D01*
X16015026Y-12887364D01*
X16015027Y-12887365D01*
X16082217Y-12913861D01*
X16149410Y-12940359D01*
X16233856Y-12950500D01*
X16233858Y-12950500D01*
X16766142Y-12950500D01*
X16766144Y-12950500D01*
X16850590Y-12940359D01*
X16984975Y-12887364D01*
X17100078Y-12800078D01*
X17187364Y-12684975D01*
X17240359Y-12550590D01*
X17240706Y-12547699D01*
X17241551Y-12545873D01*
X17241915Y-12544436D01*
X17242185Y-12544504D01*
X17266414Y-12492177D01*
X17319848Y-12462370D01*
X17339000Y-12460500D01*
X18440500Y-12460500D01*
X18498691Y-12479407D01*
X18534655Y-12528907D01*
X18539500Y-12559500D01*
X18539500Y-12949380D01*
X18520593Y-13007571D01*
X18492261Y-13032791D01*
X18492263Y-13032794D01*
X18492230Y-13032818D01*
X18489024Y-13035673D01*
X18486867Y-13036885D01*
X18373136Y-13123130D01*
X18373130Y-13123136D01*
X18286886Y-13236866D01*
X18286883Y-13236870D01*
X18234521Y-13369651D01*
X18224500Y-13453095D01*
X18224500Y-13971904D01*
X18234521Y-14055348D01*
X18286883Y-14188129D01*
X18286884Y-14188131D01*
X18286885Y-14188132D01*
X18373133Y-14301867D01*
X18486868Y-14388115D01*
X18486869Y-14388115D01*
X18486870Y-14388116D01*
X18537046Y-14407903D01*
X18584243Y-14446839D01*
X18599540Y-14506082D01*
X18577094Y-14563001D01*
X18537046Y-14592097D01*
X18486870Y-14611883D01*
X18486866Y-14611886D01*
X18373136Y-14698130D01*
X18373130Y-14698136D01*
X18286886Y-14811866D01*
X18286883Y-14811870D01*
X18234521Y-14944651D01*
X18224500Y-15028095D01*
X18224500Y-15528435D01*
X18221127Y-15554057D01*
X18206679Y-15607979D01*
X18199500Y-15634770D01*
X18199500Y-16152659D01*
X18180593Y-16210850D01*
X18159290Y-16232313D01*
X18115003Y-16264999D01*
X18114996Y-16265006D01*
X18036148Y-16371841D01*
X17992291Y-16497176D01*
X17992289Y-16497185D01*
X17989500Y-16526923D01*
X17989500Y-16913076D01*
X17992289Y-16942814D01*
X17992291Y-16942823D01*
X18036148Y-17068158D01*
X18114997Y-17174995D01*
X18115004Y-17175002D01*
X18221841Y-17253851D01*
X18221842Y-17253851D01*
X18221843Y-17253852D01*
X18347181Y-17297710D01*
X18374619Y-17300282D01*
X18376923Y-17300499D01*
X18376928Y-17300500D01*
X18376934Y-17300500D01*
X18823072Y-17300500D01*
X18823075Y-17300499D01*
X18852819Y-17297710D01*
X18978157Y-17253852D01*
X19084999Y-17174999D01*
X19163852Y-17068157D01*
X19207710Y-16942819D01*
X19210500Y-16913066D01*
X19210500Y-16526934D01*
X19210500Y-16526928D01*
X19210499Y-16526923D01*
X19207710Y-16497185D01*
X19207710Y-16497181D01*
X19163852Y-16371843D01*
X19084999Y-16265001D01*
X19075248Y-16257804D01*
X19040710Y-16232313D01*
X19005119Y-16182545D01*
X19000500Y-16152659D01*
X19000500Y-16124500D01*
X19019407Y-16066309D01*
X19068907Y-16030345D01*
X19099500Y-16025500D01*
X19296900Y-16025500D01*
X19296902Y-16025500D01*
X19380346Y-16015479D01*
X19513132Y-15963115D01*
X19626867Y-15876867D01*
X19713115Y-15763132D01*
X19718025Y-15750680D01*
X19756961Y-15703484D01*
X19810122Y-15688000D01*
X20180599Y-15688000D01*
X20238790Y-15706907D01*
X20250603Y-15716996D01*
X20810126Y-16276519D01*
X20837903Y-16331036D01*
X20833566Y-16379221D01*
X20792291Y-16497176D01*
X20792289Y-16497185D01*
X20789500Y-16526923D01*
X20789500Y-16913076D01*
X20792289Y-16942814D01*
X20792291Y-16942823D01*
X20836148Y-17068158D01*
X20914997Y-17174995D01*
X20915004Y-17175002D01*
X21021841Y-17253851D01*
X21021842Y-17253851D01*
X21021843Y-17253852D01*
X21147181Y-17297710D01*
X21174619Y-17300282D01*
X21176923Y-17300499D01*
X21176928Y-17300500D01*
X21176934Y-17300500D01*
X21623072Y-17300500D01*
X21623075Y-17300499D01*
X21652819Y-17297710D01*
X21778157Y-17253852D01*
X21884999Y-17174999D01*
X21963852Y-17068157D01*
X22007710Y-16942819D01*
X22010500Y-16913066D01*
X22010500Y-16799500D01*
X22029407Y-16741309D01*
X22078907Y-16705345D01*
X22109500Y-16700500D01*
X23538000Y-16700500D01*
X23596191Y-16719407D01*
X23632155Y-16768907D01*
X23637000Y-16799500D01*
X23637000Y-22436064D01*
X23618093Y-22494255D01*
X23568593Y-22530219D01*
X23549808Y-22534357D01*
X23543436Y-22535122D01*
X23402660Y-22590637D01*
X23402656Y-22590640D01*
X23282081Y-22682075D01*
X23282075Y-22682081D01*
X23190640Y-22802656D01*
X23190637Y-22802660D01*
X23135123Y-22943434D01*
X23124500Y-23031893D01*
X23124500Y-25968106D01*
X23135123Y-26056565D01*
X23190637Y-26197339D01*
X23190640Y-26197343D01*
X23225779Y-26243681D01*
X23245874Y-26301472D01*
X23228163Y-26360038D01*
X23179410Y-26397008D01*
X23146895Y-26402500D01*
X17705806Y-26402500D01*
X17705790Y-26402499D01*
X17699727Y-26402499D01*
X17594273Y-26402499D01*
X17594270Y-26402499D01*
X17492413Y-26429792D01*
X17492409Y-26429794D01*
X17401087Y-26482519D01*
X17326519Y-26557086D01*
X17326520Y-26557087D01*
X15463003Y-28420604D01*
X15408486Y-28448381D01*
X15392999Y-28449600D01*
X11439673Y-28449600D01*
X11388743Y-28463246D01*
X11337811Y-28476893D01*
X11285446Y-28507125D01*
X11285447Y-28507126D01*
X11246488Y-28529619D01*
X10170203Y-29605904D01*
X10115686Y-29633681D01*
X10100199Y-29634900D01*
X9383500Y-29634900D01*
X9325309Y-29615993D01*
X9313496Y-29605904D01*
X8402096Y-28694504D01*
X8374319Y-28639987D01*
X8383890Y-28579555D01*
X8427155Y-28536290D01*
X8472100Y-28525500D01*
X8843100Y-28525500D01*
X8843102Y-28525500D01*
X8931564Y-28514877D01*
X9072342Y-28459361D01*
X9192922Y-28367922D01*
X9284361Y-28247342D01*
X9339877Y-28106564D01*
X9350500Y-28018102D01*
X9350500Y-26981898D01*
X9339877Y-26893436D01*
X9284361Y-26752658D01*
X9192922Y-26632078D01*
X9072342Y-26540639D01*
X9072341Y-26540638D01*
X9072339Y-26540637D01*
X8931565Y-26485123D01*
X8843106Y-26474500D01*
X8843102Y-26474500D01*
X8256898Y-26474500D01*
X8256893Y-26474500D01*
X8168434Y-26485123D01*
X8027660Y-26540637D01*
X8027656Y-26540640D01*
X7907081Y-26632075D01*
X7907075Y-26632081D01*
X7815640Y-26752656D01*
X7815637Y-26752660D01*
X7760123Y-26893434D01*
X7749500Y-26981893D01*
X7749500Y-27693099D01*
X7730593Y-27751290D01*
X7720503Y-27763103D01*
X7424398Y-28059207D01*
X7396553Y-28077814D01*
X7396631Y-28077949D01*
X7394585Y-28079129D01*
X7392293Y-28080662D01*
X7391014Y-28081191D01*
X7299687Y-28133919D01*
X7225119Y-28208486D01*
X7225120Y-28208487D01*
X7225118Y-28208489D01*
X4611331Y-30822274D01*
X4556814Y-30850051D01*
X4505010Y-30844368D01*
X4481565Y-30835123D01*
X4393106Y-30824500D01*
X4393102Y-30824500D01*
X3606898Y-30824500D01*
X3606893Y-30824500D01*
X3518434Y-30835123D01*
X3377660Y-30890637D01*
X3377656Y-30890640D01*
X3257081Y-30982075D01*
X3257075Y-30982081D01*
X3165640Y-31102656D01*
X3165637Y-31102660D01*
X3110123Y-31243434D01*
X3099500Y-31331893D01*
X3099500Y-32668106D01*
X3110123Y-32756565D01*
X3165637Y-32897339D01*
X3165638Y-32897341D01*
X3165639Y-32897342D01*
X3257078Y-33017922D01*
X3377658Y-33109361D01*
X3377659Y-33109361D01*
X3377660Y-33109362D01*
X3448047Y-33137119D01*
X3518436Y-33164877D01*
X3606898Y-33175500D01*
X3606900Y-33175500D01*
X4393100Y-33175500D01*
X4393102Y-33175500D01*
X4481564Y-33164877D01*
X4622342Y-33109361D01*
X4742922Y-33017922D01*
X4834361Y-32897342D01*
X4889877Y-32756564D01*
X4900500Y-32668102D01*
X4900500Y-31706899D01*
X4919407Y-31648708D01*
X4929490Y-31636901D01*
X7500597Y-29065793D01*
X7555112Y-29038018D01*
X7615544Y-29047589D01*
X7640599Y-29065792D01*
X8856118Y-30281310D01*
X8856120Y-30281313D01*
X8930687Y-30355880D01*
X8951323Y-30367794D01*
X9022013Y-30408607D01*
X9123870Y-30435900D01*
X9123872Y-30435901D01*
X9123873Y-30435901D01*
X9235390Y-30435901D01*
X9235406Y-30435900D01*
X10100199Y-30435900D01*
X10158390Y-30454807D01*
X10170203Y-30464896D01*
X11520504Y-31815197D01*
X11548281Y-31869714D01*
X11549500Y-31885201D01*
X11549500Y-32729599D01*
X11555684Y-32797656D01*
X11555686Y-32797662D01*
X11604485Y-32954263D01*
X11604490Y-32954275D01*
X11689349Y-33094649D01*
X11689350Y-33094650D01*
X11689352Y-33094653D01*
X11805347Y-33210648D01*
X11805349Y-33210649D01*
X11805350Y-33210650D01*
X11945724Y-33295509D01*
X11945727Y-33295510D01*
X11945730Y-33295512D01*
X12102343Y-33344315D01*
X12170406Y-33350500D01*
X12170412Y-33350500D01*
X13529588Y-33350500D01*
X13529594Y-33350500D01*
X13597657Y-33344315D01*
X13754270Y-33295512D01*
X13894653Y-33210648D01*
X14010648Y-33094653D01*
X14095512Y-32954270D01*
X14144315Y-32797657D01*
X14150500Y-32729594D01*
X14150500Y-31870406D01*
X14144315Y-31802343D01*
X14095512Y-31645730D01*
X14095510Y-31645727D01*
X14095509Y-31645724D01*
X14010650Y-31505350D01*
X14010649Y-31505349D01*
X14010648Y-31505347D01*
X13894653Y-31389352D01*
X13894650Y-31389350D01*
X13894649Y-31389349D01*
X13754275Y-31304490D01*
X13754263Y-31304485D01*
X13597662Y-31255686D01*
X13597656Y-31255684D01*
X13529599Y-31249500D01*
X13529594Y-31249500D01*
X12170406Y-31249500D01*
X12170397Y-31249500D01*
X12140667Y-31252202D01*
X12081004Y-31238638D01*
X12061705Y-31223612D01*
X12053767Y-31215674D01*
X12025990Y-31161157D01*
X12035561Y-31100725D01*
X12078826Y-31057460D01*
X12132729Y-31047076D01*
X12170406Y-31050500D01*
X12170412Y-31050500D01*
X13529588Y-31050500D01*
X13529594Y-31050500D01*
X13597657Y-31044315D01*
X13754270Y-30995512D01*
X13894653Y-30910648D01*
X14010648Y-30794653D01*
X14095512Y-30654270D01*
X14144315Y-30497657D01*
X14150500Y-30429594D01*
X14150500Y-29570406D01*
X14144315Y-29502343D01*
X14105896Y-29379053D01*
X14106635Y-29317873D01*
X14143194Y-29268810D01*
X14200413Y-29250600D01*
X15652625Y-29250600D01*
X15652627Y-29250600D01*
X15754488Y-29223307D01*
X15754490Y-29223305D01*
X15754492Y-29223305D01*
X15845808Y-29170583D01*
X15845808Y-29170582D01*
X15845813Y-29170580D01*
X17783896Y-27232495D01*
X17838413Y-27204719D01*
X17853900Y-27203500D01*
X18465347Y-27203500D01*
X18523538Y-27222407D01*
X18559502Y-27271907D01*
X18560973Y-27328121D01*
X18549500Y-27370943D01*
X18549500Y-27529057D01*
X18554025Y-27545943D01*
X18591694Y-27686529D01*
X18588491Y-27747631D01*
X18549986Y-27795181D01*
X18507153Y-27810529D01*
X18470749Y-27814631D01*
X18470738Y-27814633D01*
X18300477Y-27874211D01*
X18300476Y-27874211D01*
X18147741Y-27970181D01*
X18020181Y-28097741D01*
X17924211Y-28250476D01*
X17924211Y-28250477D01*
X17864633Y-28420738D01*
X17864630Y-28420750D01*
X17849500Y-28555029D01*
X17849500Y-31444970D01*
X17864630Y-31579249D01*
X17864633Y-31579261D01*
X17924211Y-31749522D01*
X17924211Y-31749523D01*
X18020181Y-31902258D01*
X18020184Y-31902262D01*
X18147738Y-32029816D01*
X18300478Y-32125789D01*
X18368657Y-32149646D01*
X18470738Y-32185366D01*
X18470742Y-32185367D01*
X18470745Y-32185368D01*
X18470746Y-32185368D01*
X18470750Y-32185369D01*
X18605029Y-32200499D01*
X18605045Y-32200499D01*
X18605046Y-32200500D01*
X18605047Y-32200500D01*
X19694953Y-32200500D01*
X19694954Y-32200500D01*
X19694955Y-32200499D01*
X19694970Y-32200499D01*
X19829249Y-32185369D01*
X19829251Y-32185368D01*
X19829255Y-32185368D01*
X19999522Y-32125789D01*
X20152262Y-32029816D01*
X20279816Y-31902262D01*
X20375789Y-31749522D01*
X20435368Y-31579255D01*
X20440120Y-31537080D01*
X20450499Y-31444970D01*
X20450500Y-31444953D01*
X20450500Y-30960943D01*
X21919500Y-30960943D01*
X21919500Y-31119057D01*
X21960423Y-31271784D01*
X22039480Y-31408716D01*
X22039482Y-31408718D01*
X22039485Y-31408723D01*
X22043431Y-31413866D01*
X22042326Y-31414713D01*
X22066830Y-31462805D01*
X22057259Y-31523237D01*
X22048705Y-31537079D01*
X21986148Y-31621842D01*
X21942291Y-31747176D01*
X21942289Y-31747185D01*
X21939500Y-31776923D01*
X21939500Y-32223076D01*
X21942289Y-32252814D01*
X21942291Y-32252823D01*
X21986148Y-32378158D01*
X22064997Y-32484995D01*
X22065004Y-32485002D01*
X22171841Y-32563851D01*
X22171842Y-32563851D01*
X22171843Y-32563852D01*
X22297181Y-32607710D01*
X22324619Y-32610282D01*
X22326923Y-32610499D01*
X22326928Y-32610500D01*
X22326934Y-32610500D01*
X22713072Y-32610500D01*
X22713075Y-32610499D01*
X22742819Y-32607710D01*
X22868157Y-32563852D01*
X22974999Y-32484999D01*
X23053852Y-32378157D01*
X23097710Y-32252819D01*
X23100500Y-32223066D01*
X23100500Y-31776934D01*
X23100500Y-31776928D01*
X23100499Y-31776923D01*
X23100282Y-31774619D01*
X23097710Y-31747181D01*
X23053852Y-31621843D01*
X23053851Y-31621841D01*
X22991295Y-31537080D01*
X22971953Y-31479032D01*
X22990424Y-31420702D01*
X22999902Y-31409521D01*
X23000514Y-31408723D01*
X23000515Y-31408720D01*
X23000520Y-31408716D01*
X23079577Y-31271784D01*
X23120500Y-31119057D01*
X23120500Y-30960943D01*
X23079577Y-30808216D01*
X23000520Y-30671284D01*
X22888716Y-30559480D01*
X22751784Y-30480423D01*
X22599057Y-30439500D01*
X22440943Y-30439500D01*
X22288216Y-30480423D01*
X22151284Y-30559480D01*
X22039480Y-30671284D01*
X21960423Y-30808216D01*
X21919500Y-30960943D01*
X20450500Y-30960943D01*
X20450500Y-28555046D01*
X20450499Y-28555029D01*
X20435369Y-28420750D01*
X20435366Y-28420738D01*
X20411014Y-28351145D01*
X20375789Y-28250478D01*
X20285362Y-28106565D01*
X20279818Y-28097741D01*
X20279817Y-28097740D01*
X20279816Y-28097738D01*
X20152262Y-27970184D01*
X20152259Y-27970182D01*
X20152258Y-27970181D01*
X19999523Y-27874211D01*
X19829261Y-27814633D01*
X19829249Y-27814630D01*
X19792847Y-27810529D01*
X19737139Y-27785225D01*
X19706944Y-27732009D01*
X19708305Y-27686529D01*
X19709575Y-27681785D01*
X19709577Y-27681784D01*
X19750500Y-27529057D01*
X19750500Y-27370943D01*
X19739026Y-27328121D01*
X19742229Y-27267021D01*
X19780734Y-27219472D01*
X19834653Y-27203500D01*
X21428483Y-27203500D01*
X21486674Y-27222407D01*
X21522638Y-27271907D01*
X21522638Y-27333093D01*
X21514219Y-27352000D01*
X21490424Y-27393213D01*
X21490424Y-27393214D01*
X21490423Y-27393216D01*
X21449500Y-27545943D01*
X21449500Y-27704057D01*
X21469619Y-27779141D01*
X21490423Y-27856785D01*
X21531927Y-27928672D01*
X21544648Y-27988520D01*
X21519761Y-28044415D01*
X21506010Y-28057054D01*
X21407083Y-28132073D01*
X21407075Y-28132081D01*
X21315640Y-28252656D01*
X21315637Y-28252660D01*
X21260123Y-28393434D01*
X21249500Y-28481893D01*
X21249500Y-29518106D01*
X21260123Y-29606565D01*
X21315637Y-29747339D01*
X21315638Y-29747341D01*
X21315639Y-29747342D01*
X21407078Y-29867922D01*
X21527658Y-29959361D01*
X21527659Y-29959361D01*
X21527660Y-29959362D01*
X21598047Y-29987119D01*
X21668436Y-30014877D01*
X21756898Y-30025500D01*
X21756900Y-30025500D01*
X22343100Y-30025500D01*
X22343102Y-30025500D01*
X22431564Y-30014877D01*
X22572342Y-29959361D01*
X22692922Y-29867922D01*
X22784361Y-29747342D01*
X22839877Y-29606564D01*
X22850500Y-29518102D01*
X22850500Y-28481898D01*
X22839877Y-28393436D01*
X22784361Y-28252658D01*
X22692922Y-28132078D01*
X22692917Y-28132074D01*
X22593989Y-28057054D01*
X22559047Y-28006828D01*
X22560301Y-27945655D01*
X22568073Y-27928671D01*
X22609577Y-27856784D01*
X22650500Y-27704057D01*
X22650500Y-27545943D01*
X22609577Y-27393216D01*
X22585780Y-27351999D01*
X22573059Y-27292152D01*
X22597945Y-27236256D01*
X22650933Y-27205663D01*
X22671517Y-27203500D01*
X27712225Y-27203500D01*
X27712227Y-27203500D01*
X27814088Y-27176207D01*
X27814090Y-27176205D01*
X27814092Y-27176205D01*
X27905408Y-27123483D01*
X27905408Y-27123482D01*
X27905413Y-27123480D01*
X28928565Y-26100326D01*
X28983080Y-26072551D01*
X29043512Y-26082122D01*
X29086777Y-26125387D01*
X29090664Y-26134012D01*
X29115638Y-26197341D01*
X29115639Y-26197342D01*
X29207078Y-26317922D01*
X29327658Y-26409361D01*
X29327659Y-26409361D01*
X29327660Y-26409362D01*
X29379467Y-26429792D01*
X29468436Y-26464877D01*
X29556898Y-26475500D01*
X29556900Y-26475500D01*
X30368100Y-26475500D01*
X30368102Y-26475500D01*
X30456564Y-26464877D01*
X30597342Y-26409361D01*
X30717922Y-26317922D01*
X30809361Y-26197342D01*
X30864877Y-26056564D01*
X30875500Y-25968102D01*
X30875500Y-25356659D01*
X30894407Y-25298468D01*
X30943907Y-25262504D01*
X31005093Y-25262504D01*
X31054593Y-25298468D01*
X31070125Y-25331033D01*
X31090423Y-25406784D01*
X31169480Y-25543716D01*
X31281284Y-25655520D01*
X31418216Y-25734577D01*
X31570943Y-25775500D01*
X31570945Y-25775500D01*
X31729055Y-25775500D01*
X31729057Y-25775500D01*
X31881784Y-25734577D01*
X31928446Y-25707636D01*
X31988293Y-25694915D01*
X32044188Y-25719801D01*
X32064240Y-25744853D01*
X32065637Y-25747339D01*
X32065639Y-25747342D01*
X32157078Y-25867922D01*
X32157081Y-25867924D01*
X32157082Y-25867925D01*
X32227225Y-25921117D01*
X32262167Y-25971343D01*
X32260913Y-26032516D01*
X32227225Y-26078883D01*
X32157082Y-26132074D01*
X32157075Y-26132081D01*
X32065640Y-26252656D01*
X32065637Y-26252660D01*
X32010123Y-26393434D01*
X31999500Y-26481893D01*
X31999500Y-27168106D01*
X32010123Y-27256565D01*
X32065637Y-27397339D01*
X32065638Y-27397341D01*
X32065639Y-27397342D01*
X32157078Y-27517922D01*
X32277658Y-27609361D01*
X32349132Y-27637547D01*
X32396327Y-27676482D01*
X32411624Y-27735724D01*
X32398549Y-27779141D01*
X32390423Y-27793215D01*
X32369961Y-27869579D01*
X32349500Y-27945943D01*
X32349500Y-28104057D01*
X32390423Y-28256784D01*
X32469480Y-28393716D01*
X32581284Y-28505520D01*
X32718216Y-28584577D01*
X32870943Y-28625500D01*
X32870945Y-28625500D01*
X33029055Y-28625500D01*
X33029057Y-28625500D01*
X33181784Y-28584577D01*
X33318716Y-28505520D01*
X33430520Y-28393716D01*
X33509577Y-28256784D01*
X33550500Y-28104057D01*
X33550500Y-27945943D01*
X33509577Y-27793216D01*
X33501452Y-27779144D01*
X33488730Y-27719298D01*
X33513615Y-27663401D01*
X33550866Y-27637547D01*
X33622342Y-27609361D01*
X33742922Y-27517922D01*
X33834361Y-27397342D01*
X33889877Y-27256564D01*
X33900500Y-27168102D01*
X33900500Y-26481898D01*
X33889877Y-26393436D01*
X33834361Y-26252658D01*
X33742922Y-26132078D01*
X33672774Y-26078883D01*
X33637832Y-26028657D01*
X33639086Y-25967485D01*
X33672775Y-25921116D01*
X33742922Y-25867922D01*
X33834361Y-25747342D01*
X33889877Y-25606564D01*
X33900500Y-25518102D01*
X33900500Y-24831898D01*
X33889877Y-24743436D01*
X33834361Y-24602658D01*
X33742922Y-24482078D01*
X33622342Y-24390639D01*
X33622341Y-24390638D01*
X33622339Y-24390637D01*
X33481565Y-24335123D01*
X33393106Y-24324500D01*
X33393102Y-24324500D01*
X32506898Y-24324500D01*
X32506893Y-24324500D01*
X32418434Y-24335123D01*
X32277660Y-24390637D01*
X32277656Y-24390640D01*
X32157081Y-24482075D01*
X32157075Y-24482081D01*
X32065639Y-24602657D01*
X32064238Y-24605150D01*
X32062617Y-24606642D01*
X32061548Y-24608053D01*
X32061294Y-24607861D01*
X32019235Y-24646604D01*
X31958462Y-24653690D01*
X31928446Y-24642363D01*
X31881785Y-24615423D01*
X31826531Y-24600618D01*
X31729057Y-24574500D01*
X31570943Y-24574500D01*
X31418216Y-24615423D01*
X31281284Y-24694480D01*
X31169480Y-24806284D01*
X31090423Y-24943216D01*
X31076993Y-24993340D01*
X31070127Y-25018963D01*
X31036803Y-25070278D01*
X30979681Y-25092204D01*
X30920581Y-25076368D01*
X30882075Y-25028818D01*
X30875500Y-24993340D01*
X30875500Y-24029092D01*
X30894407Y-23970901D01*
X30943907Y-23934937D01*
X31005093Y-23934937D01*
X31054156Y-23970305D01*
X31064998Y-23984996D01*
X31065004Y-23985002D01*
X31171841Y-24063851D01*
X31171842Y-24063851D01*
X31171843Y-24063852D01*
X31297181Y-24107710D01*
X31324619Y-24110282D01*
X31326923Y-24110499D01*
X31326928Y-24110500D01*
X31326934Y-24110500D01*
X31713072Y-24110500D01*
X31713075Y-24110499D01*
X31742819Y-24107710D01*
X31868157Y-24063852D01*
X31974999Y-23984999D01*
X32053852Y-23878157D01*
X32097710Y-23752819D01*
X32100500Y-23723066D01*
X32100500Y-23276934D01*
X32100500Y-23276928D01*
X32100499Y-23276923D01*
X32097710Y-23247185D01*
X32097710Y-23247181D01*
X32053852Y-23121843D01*
X32053851Y-23121841D01*
X31991295Y-23037080D01*
X31971953Y-22979032D01*
X31990424Y-22920702D01*
X31999902Y-22909521D01*
X32000514Y-22908723D01*
X32000515Y-22908720D01*
X32000520Y-22908716D01*
X32079577Y-22771784D01*
X32120500Y-22619057D01*
X32120500Y-22460943D01*
X32107445Y-22412221D01*
X32110648Y-22351122D01*
X32149153Y-22303572D01*
X32203072Y-22287600D01*
X34205199Y-22287600D01*
X34263390Y-22306507D01*
X34275203Y-22316596D01*
X35774287Y-23815680D01*
X35774289Y-23815681D01*
X35774290Y-23815682D01*
X35774291Y-23815683D01*
X35865608Y-23868405D01*
X35865606Y-23868405D01*
X35865610Y-23868406D01*
X35865612Y-23868407D01*
X35967473Y-23895700D01*
X35967475Y-23895700D01*
X41020025Y-23895700D01*
X41020027Y-23895700D01*
X41121888Y-23868407D01*
X41121890Y-23868405D01*
X41121892Y-23868405D01*
X41213208Y-23815683D01*
X41213208Y-23815682D01*
X41213213Y-23815680D01*
X41928565Y-23100326D01*
X41983080Y-23072551D01*
X42043512Y-23082122D01*
X42086777Y-23125387D01*
X42090664Y-23134012D01*
X42115638Y-23197341D01*
X42115639Y-23197342D01*
X42207078Y-23317922D01*
X42327658Y-23409361D01*
X42327659Y-23409361D01*
X42327660Y-23409362D01*
X42398047Y-23437119D01*
X42468436Y-23464877D01*
X42556898Y-23475500D01*
X42556900Y-23475500D01*
X43368100Y-23475500D01*
X43368102Y-23475500D01*
X43456564Y-23464877D01*
X43597342Y-23409361D01*
X43717922Y-23317922D01*
X43809361Y-23197342D01*
X43864877Y-23056564D01*
X43875500Y-22968102D01*
X43875500Y-20031898D01*
X43864877Y-19943436D01*
X43809361Y-19802658D01*
X43717922Y-19682078D01*
X43597342Y-19590639D01*
X43597341Y-19590638D01*
X43597339Y-19590637D01*
X43456562Y-19535122D01*
X43456563Y-19535122D01*
X43450192Y-19534357D01*
X43394672Y-19508645D01*
X43364869Y-19455209D01*
X43363000Y-19436064D01*
X43363000Y-18363935D01*
X43381907Y-18305744D01*
X43431407Y-18269780D01*
X43450197Y-18265641D01*
X43456564Y-18264877D01*
X43597342Y-18209361D01*
X43717922Y-18117922D01*
X43809361Y-17997342D01*
X43864877Y-17856564D01*
X43875500Y-17768102D01*
X43875500Y-14831898D01*
X43864877Y-14743436D01*
X43809361Y-14602658D01*
X43717922Y-14482078D01*
X43597342Y-14390639D01*
X43597341Y-14390638D01*
X43597339Y-14390637D01*
X43456565Y-14335123D01*
X43368106Y-14324500D01*
X43368102Y-14324500D01*
X42556898Y-14324500D01*
X42556893Y-14324500D01*
X42468434Y-14335123D01*
X42327660Y-14390637D01*
X42327656Y-14390640D01*
X42207081Y-14482075D01*
X42207075Y-14482081D01*
X42115640Y-14602656D01*
X42115637Y-14602660D01*
X42060123Y-14743434D01*
X42049500Y-14831893D01*
X42049500Y-17768106D01*
X42060123Y-17856565D01*
X42115637Y-17997339D01*
X42115638Y-17997341D01*
X42115639Y-17997342D01*
X42207078Y-18117922D01*
X42327658Y-18209361D01*
X42327659Y-18209361D01*
X42327660Y-18209362D01*
X42398047Y-18237119D01*
X42468436Y-18264877D01*
X42474800Y-18265641D01*
X42530322Y-18291349D01*
X42560130Y-18344783D01*
X42562000Y-18363935D01*
X42562000Y-19436064D01*
X42543093Y-19494255D01*
X42493593Y-19530219D01*
X42474808Y-19534357D01*
X42468436Y-19535122D01*
X42327660Y-19590637D01*
X42327656Y-19590640D01*
X42207081Y-19682075D01*
X42207075Y-19682081D01*
X42115640Y-19802656D01*
X42115637Y-19802660D01*
X42060123Y-19943434D01*
X42049500Y-20031893D01*
X42049500Y-21805599D01*
X42030593Y-21863790D01*
X42020504Y-21875603D01*
X40830403Y-23065704D01*
X40775886Y-23093481D01*
X40760399Y-23094700D01*
X38046897Y-23094700D01*
X37988706Y-23075793D01*
X37952742Y-23026293D01*
X37948604Y-22983893D01*
X37950499Y-22968116D01*
X37950500Y-22968100D01*
X37950500Y-20031899D01*
X37950499Y-20031893D01*
X37939877Y-19943436D01*
X37884361Y-19802658D01*
X37792922Y-19682078D01*
X37672342Y-19590639D01*
X37672341Y-19590638D01*
X37672339Y-19590637D01*
X37531562Y-19535122D01*
X37531563Y-19535122D01*
X37525192Y-19534357D01*
X37469672Y-19508645D01*
X37439869Y-19455209D01*
X37438000Y-19436064D01*
X37438000Y-18363935D01*
X37456907Y-18305744D01*
X37506407Y-18269780D01*
X37525197Y-18265641D01*
X37531564Y-18264877D01*
X37672342Y-18209361D01*
X37792922Y-18117922D01*
X37884361Y-17997342D01*
X37939877Y-17856564D01*
X37950500Y-17768102D01*
X37950500Y-14831898D01*
X37939877Y-14743436D01*
X37884361Y-14602658D01*
X37792922Y-14482078D01*
X37672342Y-14390639D01*
X37672341Y-14390638D01*
X37672339Y-14390637D01*
X37531565Y-14335123D01*
X37443106Y-14324500D01*
X37443102Y-14324500D01*
X36631898Y-14324500D01*
X36631893Y-14324500D01*
X36543434Y-14335123D01*
X36402660Y-14390637D01*
X36402656Y-14390640D01*
X36282081Y-14482075D01*
X36282075Y-14482081D01*
X36190640Y-14602656D01*
X36190637Y-14602660D01*
X36135123Y-14743434D01*
X36124500Y-14831893D01*
X36124500Y-15800500D01*
X36105593Y-15858691D01*
X36056093Y-15894655D01*
X36025500Y-15899500D01*
X21606901Y-15899500D01*
X21548710Y-15880593D01*
X21536897Y-15870504D01*
X21194828Y-15528435D01*
X20633413Y-14967020D01*
X20633410Y-14967018D01*
X20633409Y-14967017D01*
X20633408Y-14967016D01*
X20542091Y-14914294D01*
X20542093Y-14914294D01*
X20502570Y-14903704D01*
X20440227Y-14887000D01*
X20440225Y-14887000D01*
X19810122Y-14887000D01*
X19751931Y-14868093D01*
X19718025Y-14824319D01*
X19713115Y-14811868D01*
X19626867Y-14698133D01*
X19619977Y-14692908D01*
X19513134Y-14611886D01*
X19513132Y-14611885D01*
X19462950Y-14592096D01*
X19415756Y-14553161D01*
X19400459Y-14493919D01*
X19422905Y-14436999D01*
X19462949Y-14407904D01*
X19513132Y-14388115D01*
X19626867Y-14301867D01*
X19713115Y-14188132D01*
X19765479Y-14055346D01*
X19775500Y-13971902D01*
X19775500Y-13453098D01*
X19765479Y-13369654D01*
X19713115Y-13236868D01*
X19626867Y-13123133D01*
X19513132Y-13036885D01*
X19510976Y-13035673D01*
X19509684Y-13034270D01*
X19507737Y-13032794D01*
X19508002Y-13032444D01*
X19469522Y-12990671D01*
X19460500Y-12949380D01*
X19460500Y-12559500D01*
X19479407Y-12501309D01*
X19528907Y-12465345D01*
X19559500Y-12460500D01*
X22999494Y-12460500D01*
X23057685Y-12479407D01*
X23059353Y-12480832D01*
X23171841Y-12563851D01*
X23171842Y-12563851D01*
X23171843Y-12563852D01*
X23297181Y-12607710D01*
X23324619Y-12610282D01*
X23326923Y-12610499D01*
X23326928Y-12610500D01*
X23326934Y-12610500D01*
X23713072Y-12610500D01*
X23713075Y-12610499D01*
X23742819Y-12607710D01*
X23868157Y-12563852D01*
X23941212Y-12509934D01*
X23999259Y-12490593D01*
X24057590Y-12509064D01*
X24058730Y-12509892D01*
X24131843Y-12563852D01*
X24257181Y-12607710D01*
X24284619Y-12610282D01*
X24286923Y-12610499D01*
X24286928Y-12610500D01*
X24286934Y-12610500D01*
X24673072Y-12610500D01*
X24673075Y-12610499D01*
X24702819Y-12607710D01*
X24828157Y-12563852D01*
X24875506Y-12528907D01*
X24940969Y-12480594D01*
X24942883Y-12483187D01*
X24985019Y-12461719D01*
X25000506Y-12460500D01*
X44220501Y-12460500D01*
X44278692Y-12479407D01*
X44314656Y-12528907D01*
X44319501Y-12559500D01*
X44319501Y-12794863D01*
X44322414Y-12819990D01*
X44347756Y-12877385D01*
X44367794Y-12922765D01*
X44447235Y-13002206D01*
X44550009Y-13047585D01*
X44575135Y-13050500D01*
X49400500Y-13050499D01*
X49458691Y-13069406D01*
X49494655Y-13118906D01*
X49499500Y-13149499D01*
X49499500Y-35400500D01*
X49480593Y-35458691D01*
X49431093Y-35494655D01*
X49400500Y-35499500D01*
X45149500Y-35499500D01*
X45091309Y-35480593D01*
X45055345Y-35431093D01*
X45050500Y-35400500D01*
X45050499Y-30575139D01*
X45050499Y-30575136D01*
X45047585Y-30550009D01*
X45002206Y-30447235D01*
X44922765Y-30367794D01*
X44819991Y-30322415D01*
X44819990Y-30322414D01*
X44819988Y-30322414D01*
X44794869Y-30319500D01*
X44794865Y-30319500D01*
X44559500Y-30319500D01*
X44501309Y-30300593D01*
X44465345Y-30251093D01*
X44460500Y-30220500D01*
X44460500Y-25114375D01*
X44460500Y-25114374D01*
X44429118Y-24997253D01*
X44429116Y-24997250D01*
X44429116Y-24997248D01*
X44368495Y-24892250D01*
X44368493Y-24892248D01*
X44368492Y-24892246D01*
X44282754Y-24806508D01*
X44282751Y-24806506D01*
X44282749Y-24806504D01*
X44177750Y-24745883D01*
X44177752Y-24745883D01*
X44132308Y-24733706D01*
X44060626Y-24714500D01*
X44060624Y-24714500D01*
X39032913Y-24714500D01*
X38974722Y-24695593D01*
X38962264Y-24683228D01*
X38961669Y-24683824D01*
X38956425Y-24678580D01*
X38956423Y-24678577D01*
X38858955Y-24606642D01*
X38850793Y-24600618D01*
X38726883Y-24557260D01*
X38726874Y-24557258D01*
X38697465Y-24554500D01*
X38322542Y-24554500D01*
X38293124Y-24557258D01*
X38293119Y-24557259D01*
X38169204Y-24600619D01*
X38058788Y-24682110D01*
X38000740Y-24701452D01*
X37942410Y-24682981D01*
X37941212Y-24682110D01*
X37830795Y-24600619D01*
X37706883Y-24557260D01*
X37706874Y-24557258D01*
X37677465Y-24554500D01*
X37302542Y-24554500D01*
X37273124Y-24557258D01*
X37273119Y-24557259D01*
X37149204Y-24600619D01*
X37043579Y-24678574D01*
X37043578Y-24678575D01*
X37002460Y-24734288D01*
X36952692Y-24769881D01*
X36922805Y-24774500D01*
X36069506Y-24774500D01*
X36011315Y-24755593D01*
X35977409Y-24711819D01*
X35934362Y-24602660D01*
X35934361Y-24602659D01*
X35934361Y-24602658D01*
X35842922Y-24482078D01*
X35722342Y-24390639D01*
X35722341Y-24390638D01*
X35722339Y-24390637D01*
X35581565Y-24335123D01*
X35493106Y-24324500D01*
X35493102Y-24324500D01*
X34606898Y-24324500D01*
X34606893Y-24324500D01*
X34518434Y-24335123D01*
X34377660Y-24390637D01*
X34377656Y-24390640D01*
X34257081Y-24482075D01*
X34257075Y-24482081D01*
X34165640Y-24602656D01*
X34165637Y-24602660D01*
X34110123Y-24743434D01*
X34099500Y-24831893D01*
X34099500Y-25518106D01*
X34110123Y-25606565D01*
X34165637Y-25747339D01*
X34165638Y-25747341D01*
X34165639Y-25747342D01*
X34257078Y-25867922D01*
X34377658Y-25959361D01*
X34377659Y-25959361D01*
X34377660Y-25959362D01*
X34408042Y-25971343D01*
X34518436Y-26014877D01*
X34606898Y-26025500D01*
X34606900Y-26025500D01*
X35493100Y-26025500D01*
X35493102Y-26025500D01*
X35581564Y-26014877D01*
X35722342Y-25959361D01*
X35842922Y-25867922D01*
X35934361Y-25747342D01*
X35965560Y-25668228D01*
X35977409Y-25638181D01*
X36016345Y-25590984D01*
X36069506Y-25575500D01*
X36922805Y-25575500D01*
X36980996Y-25594407D01*
X37002460Y-25615712D01*
X37043578Y-25671424D01*
X37043579Y-25671425D01*
X37149204Y-25749380D01*
X37149205Y-25749380D01*
X37149206Y-25749381D01*
X37273121Y-25792741D01*
X37302543Y-25795500D01*
X37677456Y-25795499D01*
X37677457Y-25795499D01*
X37683340Y-25794947D01*
X37706879Y-25792741D01*
X37830794Y-25749381D01*
X37904593Y-25694915D01*
X37941212Y-25667889D01*
X37999259Y-25648547D01*
X38057590Y-25667018D01*
X38058788Y-25667889D01*
X38169204Y-25749380D01*
X38169205Y-25749380D01*
X38169206Y-25749381D01*
X38293121Y-25792741D01*
X38322543Y-25795500D01*
X38697456Y-25795499D01*
X38697457Y-25795499D01*
X38703340Y-25794947D01*
X38726879Y-25792741D01*
X38850794Y-25749381D01*
X38956423Y-25671423D01*
X38956428Y-25671415D01*
X38961669Y-25666176D01*
X38963721Y-25668228D01*
X39003029Y-25640118D01*
X39032913Y-25635500D01*
X43440500Y-25635500D01*
X43498691Y-25654407D01*
X43534655Y-25703907D01*
X43539500Y-25734500D01*
X43539500Y-30220500D01*
X43520593Y-30278691D01*
X43471093Y-30314655D01*
X43440500Y-30319500D01*
X43205140Y-30319500D01*
X43205135Y-30319501D01*
X43180009Y-30322414D01*
X43077235Y-30367794D01*
X42997794Y-30447235D01*
X42952414Y-30550011D01*
X42949500Y-30575130D01*
X42949500Y-30575132D01*
X42949500Y-30575135D01*
X42949500Y-33017924D01*
X42949501Y-35400500D01*
X42930594Y-35458691D01*
X42881094Y-35494655D01*
X42850501Y-35499500D01*
X599500Y-35499500D01*
X541309Y-35480593D01*
X505345Y-35431093D01*
X500500Y-35400500D01*
X500500Y-33703095D01*
X26049500Y-33703095D01*
X26049500Y-34296904D01*
X26059521Y-34380348D01*
X26111883Y-34513129D01*
X26111884Y-34513131D01*
X26111885Y-34513132D01*
X26198133Y-34626867D01*
X26311868Y-34713115D01*
X26311869Y-34713115D01*
X26311870Y-34713116D01*
X26444651Y-34765478D01*
X26444654Y-34765479D01*
X26528098Y-34775500D01*
X26528100Y-34775500D01*
X27046900Y-34775500D01*
X27046902Y-34775500D01*
X27130346Y-34765479D01*
X27263132Y-34713115D01*
X27376867Y-34626867D01*
X27463115Y-34513132D01*
X27482813Y-34463180D01*
X27521749Y-34415984D01*
X27574910Y-34400500D01*
X27922805Y-34400500D01*
X27980996Y-34419407D01*
X28002460Y-34440712D01*
X28043573Y-34496418D01*
X28043578Y-34496424D01*
X28043579Y-34496425D01*
X28149204Y-34574380D01*
X28149205Y-34574380D01*
X28149206Y-34574381D01*
X28273121Y-34617741D01*
X28302543Y-34620500D01*
X28677456Y-34620499D01*
X28677457Y-34620499D01*
X28683340Y-34619947D01*
X28706879Y-34617741D01*
X28830794Y-34574381D01*
X28913782Y-34513133D01*
X28941212Y-34492889D01*
X28999259Y-34473547D01*
X29057590Y-34492018D01*
X29058788Y-34492889D01*
X29169204Y-34574380D01*
X29169205Y-34574380D01*
X29169206Y-34574381D01*
X29293121Y-34617741D01*
X29322543Y-34620500D01*
X29697456Y-34620499D01*
X29697457Y-34620499D01*
X29703340Y-34619947D01*
X29726879Y-34617741D01*
X29850794Y-34574381D01*
X29933783Y-34513132D01*
X29956418Y-34496427D01*
X29956419Y-34496425D01*
X29956423Y-34496423D01*
X29959032Y-34492889D01*
X29998665Y-34439186D01*
X30034381Y-34390794D01*
X30077741Y-34266879D01*
X30080500Y-34237457D01*
X30080499Y-33762544D01*
X30077741Y-33733121D01*
X30034381Y-33609206D01*
X29979845Y-33535312D01*
X29960503Y-33477265D01*
X29960500Y-33476524D01*
X29960500Y-33469743D01*
X29979407Y-33411552D01*
X29989490Y-33399745D01*
X29990520Y-33398716D01*
X30069577Y-33261784D01*
X30110500Y-33109057D01*
X30110500Y-32950943D01*
X30069577Y-32798216D01*
X29990520Y-32661284D01*
X29878716Y-32549480D01*
X29741784Y-32470423D01*
X29589057Y-32429500D01*
X29430943Y-32429500D01*
X29278216Y-32470423D01*
X29141284Y-32549480D01*
X29029480Y-32661284D01*
X28950423Y-32798216D01*
X28909500Y-32950943D01*
X28909500Y-33109057D01*
X28950423Y-33261784D01*
X28967266Y-33290957D01*
X28979987Y-33350805D01*
X28955100Y-33406700D01*
X28902112Y-33437293D01*
X28841262Y-33430897D01*
X28835277Y-33427987D01*
X28830798Y-33425620D01*
X28706883Y-33382260D01*
X28706874Y-33382258D01*
X28677465Y-33379500D01*
X28302542Y-33379500D01*
X28273124Y-33382258D01*
X28273119Y-33382259D01*
X28149204Y-33425619D01*
X28043579Y-33503574D01*
X28043578Y-33503575D01*
X28002460Y-33559288D01*
X27952692Y-33594881D01*
X27922805Y-33599500D01*
X27574910Y-33599500D01*
X27516719Y-33580593D01*
X27482813Y-33536819D01*
X27463115Y-33486868D01*
X27376867Y-33373133D01*
X27263132Y-33286885D01*
X27263131Y-33286884D01*
X27263129Y-33286883D01*
X27130348Y-33234521D01*
X27046904Y-33224500D01*
X27046902Y-33224500D01*
X26528098Y-33224500D01*
X26528095Y-33224500D01*
X26444651Y-33234521D01*
X26311870Y-33286883D01*
X26311866Y-33286886D01*
X26198136Y-33373130D01*
X26198130Y-33373136D01*
X26111886Y-33486866D01*
X26111883Y-33486870D01*
X26059521Y-33619651D01*
X26049500Y-33703095D01*
X500500Y-33703095D01*
X500500Y-13149499D01*
X519407Y-13091308D01*
X568907Y-13055344D01*
X599500Y-13050499D01*
X5424861Y-13050499D01*
X5424864Y-13050499D01*
X5449991Y-13047585D01*
X5552765Y-13002206D01*
X5632206Y-12922765D01*
X5677585Y-12819991D01*
X5680500Y-12794865D01*
X5680500Y-12559500D01*
X5699407Y-12501309D01*
X5748907Y-12465345D01*
X5779500Y-12460500D01*
X7499494Y-12460500D01*
X7557685Y-12479407D01*
X7559353Y-12480832D01*
X7671841Y-12563851D01*
X7671842Y-12563851D01*
X7671843Y-12563852D01*
X7797181Y-12607710D01*
X7824619Y-12610282D01*
X7826923Y-12610499D01*
X7826928Y-12610500D01*
X7826934Y-12610500D01*
X8213072Y-12610500D01*
X8213075Y-12610499D01*
X8242819Y-12607710D01*
X8368157Y-12563852D01*
X8441212Y-12509934D01*
X8499259Y-12490593D01*
X8557590Y-12509064D01*
X8558730Y-12509892D01*
X8631843Y-12563852D01*
X8757181Y-12607710D01*
X8784619Y-12610282D01*
X8786923Y-12610499D01*
X8786928Y-12610500D01*
X8786934Y-12610500D01*
X9173072Y-12610500D01*
X9173075Y-12610499D01*
X9202819Y-12607710D01*
X9328157Y-12563852D01*
X9375506Y-12528907D01*
X9440969Y-12480594D01*
X9442883Y-12483187D01*
X9485019Y-12461719D01*
X9500506Y-12460500D01*
X12661000Y-12460500D01*
X12719191Y-12479407D01*
X12755155Y-12528907D01*
X12759294Y-12547700D01*
X12759641Y-12550591D01*
X12812634Y-12684972D01*
X12812635Y-12684974D01*
X12812636Y-12684975D01*
X12899922Y-12800078D01*
X13015025Y-12887364D01*
X13015026Y-12887364D01*
X13015027Y-12887365D01*
X13082217Y-12913861D01*
X13149410Y-12940359D01*
X13233856Y-12950500D01*
X13233858Y-12950500D01*
X13766142Y-12950500D01*
X13766144Y-12950500D01*
X13850590Y-12940359D01*
X13984975Y-12887364D01*
X14100078Y-12800078D01*
X14187364Y-12684975D01*
X14240359Y-12550590D01*
X14250500Y-12466144D01*
X14250500Y-11533856D01*
X14240359Y-11449410D01*
X14187364Y-11315025D01*
X14100078Y-11199922D01*
X13984975Y-11112636D01*
X13984974Y-11112635D01*
X13984972Y-11112634D01*
X13850591Y-11059641D01*
X13766148Y-11049500D01*
X13766144Y-11049500D01*
X13233856Y-11049500D01*
X13233851Y-11049500D01*
X13149408Y-11059641D01*
X13015027Y-11112634D01*
X12899922Y-11199922D01*
X12812634Y-11315027D01*
X12759641Y-11449408D01*
X12759294Y-11452300D01*
X12758448Y-11454126D01*
X12758085Y-11455564D01*
X12757814Y-11455495D01*
X12733586Y-11507823D01*
X12680152Y-11537630D01*
X12661000Y-11539500D01*
X9500506Y-11539500D01*
X9442315Y-11520593D01*
X9440646Y-11519167D01*
X9328158Y-11436148D01*
X9202823Y-11392291D01*
X9202814Y-11392289D01*
X9173076Y-11389500D01*
X9173066Y-11389500D01*
X8786934Y-11389500D01*
X8786923Y-11389500D01*
X8757185Y-11392289D01*
X8757176Y-11392291D01*
X8631841Y-11436148D01*
X8558788Y-11490064D01*
X8500740Y-11509406D01*
X8442410Y-11490935D01*
X8441212Y-11490064D01*
X8368158Y-11436148D01*
X8242823Y-11392291D01*
X8242814Y-11392289D01*
X8213076Y-11389500D01*
X8213066Y-11389500D01*
X7826934Y-11389500D01*
X7826923Y-11389500D01*
X7797185Y-11392289D01*
X7797176Y-11392291D01*
X7671841Y-11436148D01*
X7559031Y-11519406D01*
X7557116Y-11516812D01*
X7514981Y-11538281D01*
X7499494Y-11539500D01*
X5779499Y-11539500D01*
X5721308Y-11520593D01*
X5685344Y-11471093D01*
X5680499Y-11440500D01*
X5680499Y-11205139D01*
X5680499Y-11205136D01*
X5677585Y-11180009D01*
X5632206Y-11077235D01*
X5552765Y-10997794D01*
X5449991Y-10952415D01*
X5449990Y-10952414D01*
X5449988Y-10952414D01*
X5424869Y-10949500D01*
X5424865Y-10949500D01*
X599500Y-10949500D01*
X541309Y-10930593D01*
X505345Y-10881093D01*
X500500Y-10850500D01*
X500500Y-599500D01*
X519407Y-541309D01*
X568907Y-505345D01*
X599500Y-500500D01*
X49400500Y-500500D01*
X49458691Y-519407D01*
G37*
%TD.AperFunction*%
%TA.AperFunction,Conductor*%
G36*
X36083691Y-16719407D02*
G01*
X36119655Y-16768907D01*
X36124500Y-16799500D01*
X36124500Y-17768106D01*
X36135123Y-17856565D01*
X36190637Y-17997339D01*
X36190638Y-17997341D01*
X36190639Y-17997342D01*
X36282078Y-18117922D01*
X36402658Y-18209361D01*
X36402659Y-18209361D01*
X36402660Y-18209362D01*
X36473047Y-18237119D01*
X36543436Y-18264877D01*
X36549800Y-18265641D01*
X36605322Y-18291349D01*
X36635130Y-18344783D01*
X36637000Y-18363935D01*
X36637000Y-19436064D01*
X36618093Y-19494255D01*
X36568593Y-19530219D01*
X36549808Y-19534357D01*
X36543436Y-19535122D01*
X36402660Y-19590637D01*
X36402656Y-19590640D01*
X36282081Y-19682075D01*
X36282075Y-19682081D01*
X36190640Y-19802656D01*
X36190637Y-19802660D01*
X36135123Y-19943434D01*
X36124500Y-20031893D01*
X36124500Y-22794099D01*
X36105593Y-22852290D01*
X36056093Y-22888254D01*
X35994907Y-22888254D01*
X35955496Y-22864103D01*
X35378993Y-22287600D01*
X34658013Y-21566620D01*
X34658010Y-21566618D01*
X34658009Y-21566617D01*
X34658008Y-21566616D01*
X34566691Y-21513894D01*
X34566693Y-21513894D01*
X34527170Y-21503304D01*
X34464827Y-21486600D01*
X31268573Y-21486600D01*
X31166713Y-21513893D01*
X31166712Y-21513893D01*
X31166710Y-21513894D01*
X31166709Y-21513894D01*
X31075389Y-21566618D01*
X30146503Y-22495504D01*
X30091986Y-22523281D01*
X30076499Y-22524500D01*
X29556893Y-22524500D01*
X29468434Y-22535123D01*
X29327660Y-22590637D01*
X29327656Y-22590640D01*
X29207081Y-22682075D01*
X29207075Y-22682081D01*
X29115640Y-22802656D01*
X29115637Y-22802660D01*
X29060123Y-22943434D01*
X29049500Y-23031893D01*
X29049500Y-24805599D01*
X29030593Y-24863790D01*
X29020504Y-24875603D01*
X27522603Y-26373504D01*
X27468086Y-26401281D01*
X27452599Y-26402500D01*
X24928105Y-26402500D01*
X24869914Y-26383593D01*
X24833950Y-26334093D01*
X24833950Y-26272907D01*
X24849221Y-26243681D01*
X24851548Y-26240611D01*
X24884361Y-26197342D01*
X24939877Y-26056564D01*
X24950500Y-25968102D01*
X24950500Y-23031898D01*
X24939877Y-22943436D01*
X24908592Y-22864103D01*
X24884362Y-22802660D01*
X24884361Y-22802659D01*
X24884361Y-22802658D01*
X24792922Y-22682078D01*
X24672342Y-22590639D01*
X24672341Y-22590638D01*
X24672339Y-22590637D01*
X24531562Y-22535122D01*
X24531563Y-22535122D01*
X24525192Y-22534357D01*
X24469672Y-22508645D01*
X24439869Y-22455209D01*
X24438000Y-22436064D01*
X24438000Y-16799500D01*
X24456907Y-16741309D01*
X24506407Y-16705345D01*
X24537000Y-16700500D01*
X36025500Y-16700500D01*
X36083691Y-16719407D01*
G37*
%TD.AperFunction*%
%TD*%
D31*
X33000000Y-5000000D03*
X48250000Y-31636000D03*
X45636000Y-7750000D03*
X5000000Y-5000000D03*
X7000000Y-15000000D03*
X17600000Y-13000000D03*
X22100000Y-11000000D03*
X27000000Y-15000000D03*
X41000000Y-7000000D03*
X21600000Y-13000000D03*
X29600000Y-11000000D03*
X25000000Y-21000000D03*
X27000000Y-7000000D03*
X9000000Y-9000000D03*
X15000000Y-15000000D03*
X25100000Y-11000000D03*
X7000000Y-17000000D03*
X13000000Y-5000000D03*
X29000000Y-9000000D03*
X31000000Y-15000000D03*
X32600000Y-11000000D03*
X9000000Y-25000000D03*
X27600000Y-13000000D03*
X41000000Y-15000000D03*
X39750000Y-33159999D03*
X13000000Y-9000000D03*
X42600000Y-13000000D03*
X20600000Y-11000000D03*
X41600000Y-11000000D03*
X45636000Y-16250000D03*
X45000000Y-1000000D03*
X4364000Y-9875000D03*
X49000000Y-25000000D03*
X36600000Y-13000000D03*
X44375000Y-17649500D03*
X25000000Y-9000000D03*
X23000000Y-15000000D03*
X33000000Y-21000000D03*
X39000000Y-15000000D03*
X33000000Y-17000000D03*
X33600000Y-13000000D03*
X21000000Y-15000000D03*
X2840000Y-7750000D03*
X15000000Y-17000000D03*
X21000000Y-21000000D03*
X13000000Y-7000000D03*
X48684000Y-9875000D03*
X23480000Y-31040000D03*
X39600000Y-13000000D03*
X2840000Y-14125000D03*
X46125000Y-31636000D03*
X20366000Y-14000000D03*
X17000000Y-9000000D03*
X37000000Y-1000000D03*
X11000000Y-9000000D03*
X13000000Y-25000000D03*
X31100000Y-11000000D03*
X48684000Y-16250000D03*
X15433300Y-8840000D03*
X5000000Y-25000000D03*
X23000000Y-9000000D03*
X46125000Y-33159999D03*
X45636000Y-14125000D03*
X21000000Y-7000000D03*
X4364000Y-14125000D03*
X38600000Y-11000000D03*
X9000000Y-17000000D03*
X44000000Y-12933000D03*
X14250000Y-13433000D03*
X30600000Y-13000000D03*
X47160000Y-14125000D03*
X45636000Y-9875000D03*
X41875000Y-34684000D03*
X25000000Y-15000000D03*
X31000000Y-7000000D03*
X17000000Y-25000000D03*
X13000000Y-17000000D03*
X41000000Y-1000000D03*
X26100000Y-13000000D03*
X31000000Y-17000000D03*
X41000000Y-5000000D03*
X37000000Y-9000000D03*
X17000000Y-7000000D03*
X49000000Y-29000000D03*
X44250000Y-14817000D03*
X35600000Y-11000000D03*
X19000000Y-9000000D03*
X17000000Y-15000000D03*
X1000000Y-33000000D03*
X15433300Y-9827500D03*
X25000000Y-17000000D03*
X47160000Y-9875000D03*
X1000000Y-21000000D03*
X15000000Y-7000000D03*
X33000000Y-1000000D03*
X1316000Y-16250000D03*
X43100000Y-11000000D03*
X35000000Y-15000000D03*
X37000000Y-7000000D03*
X8900000Y-13000000D03*
X4364000Y-16250000D03*
X45000000Y-21000000D03*
X9000000Y-7000000D03*
X14566700Y-10815000D03*
X16000000Y-13500000D03*
X9000000Y-29000000D03*
X14566700Y-9827500D03*
X11000000Y-7000000D03*
X9000000Y-1000000D03*
X35050000Y-28025000D03*
X39750000Y-34684000D03*
X41875000Y-33159999D03*
X9000000Y-5000000D03*
X7450000Y-11000000D03*
X29000000Y-1000000D03*
X23000000Y-17000000D03*
X19000000Y-7000000D03*
X13000000Y-21000000D03*
X32479999Y-22540000D03*
X6000000Y-13000000D03*
X29000000Y-15000000D03*
X41000000Y-17000000D03*
X17000000Y-33000000D03*
X1316000Y-14125000D03*
X39750000Y-31636000D03*
X1000000Y-1000000D03*
X10450000Y-26125000D03*
X5000000Y-1000000D03*
X11000000Y-17000000D03*
X17000000Y-29000000D03*
X41000000Y-9000000D03*
X33000000Y-33000000D03*
X33000000Y-9000000D03*
X11000000Y-15000000D03*
X39000000Y-17000000D03*
X35000000Y-7000000D03*
X48250000Y-34684000D03*
X11850000Y-11000000D03*
X17000000Y-1000000D03*
X47160000Y-7750000D03*
X43000000Y-9000000D03*
X29000000Y-29000000D03*
X25212500Y-32875000D03*
X17600000Y-11000000D03*
X23950000Y-27625000D03*
X32100000Y-13000000D03*
X40100000Y-11000000D03*
X48684000Y-7750000D03*
X25000000Y-7000000D03*
X29000000Y-7000000D03*
X33000000Y-7000000D03*
X49000000Y-1000000D03*
X8900000Y-11000000D03*
X45000000Y-5000000D03*
X21000000Y-25000000D03*
X14566700Y-8840000D03*
X17000000Y-21000000D03*
X29100000Y-13000000D03*
X28100000Y-11000000D03*
X29000000Y-5000000D03*
X25000000Y-1000000D03*
X17000000Y-17000000D03*
X12850000Y-26300000D03*
X35000000Y-9000000D03*
X6000000Y-11000000D03*
X49000000Y-5000000D03*
X4364000Y-7750000D03*
X2840000Y-16250000D03*
X29000000Y-21000000D03*
X21400000Y-18610000D03*
X26600000Y-11000000D03*
X35000000Y-17000000D03*
X11850000Y-13000000D03*
X37100000Y-11000000D03*
X1316000Y-9875000D03*
X1000000Y-25000000D03*
X46125000Y-34684000D03*
X39000000Y-9000000D03*
X1000000Y-29000000D03*
X21000000Y-9000000D03*
X15433300Y-10815000D03*
X43000000Y-7000000D03*
X41000000Y-21000000D03*
X23600000Y-11000000D03*
X13000000Y-1000000D03*
X23000000Y-7000000D03*
X27000000Y-9000000D03*
X19750000Y-16500000D03*
X7000000Y-9000000D03*
X35100000Y-13000000D03*
X9000000Y-33000000D03*
X24600000Y-13000000D03*
X31000000Y-9000000D03*
X2840000Y-9875000D03*
X19100000Y-11000000D03*
X34100000Y-11000000D03*
X29000000Y-17000000D03*
X20100000Y-13000000D03*
X41100000Y-13000000D03*
X21000000Y-1000000D03*
X41000000Y-29000000D03*
X47160000Y-16250000D03*
X1316000Y-7750000D03*
X39000000Y-7000000D03*
X23100000Y-13000000D03*
X37000000Y-33000000D03*
X45000000Y-29000000D03*
X25000000Y-5000000D03*
X21000000Y-33000000D03*
X18600000Y-18610000D03*
X5000000Y-29000000D03*
X49000000Y-21000000D03*
X37000000Y-5000000D03*
X10350000Y-13000000D03*
X5000000Y-21000000D03*
X41875000Y-31636000D03*
X48684000Y-14125000D03*
X33000000Y-15000000D03*
X21000000Y-5000000D03*
X17634000Y-14000000D03*
X38100000Y-13000000D03*
X27000000Y-17000000D03*
X17000000Y-5000000D03*
X9000000Y-21000000D03*
X1000000Y-5000000D03*
X37000000Y-29000000D03*
X45000000Y-25000000D03*
X9000000Y-15000000D03*
X10350000Y-11000000D03*
X7000000Y-7000000D03*
X48250000Y-33159999D03*
X7450000Y-13000000D03*
X13000000Y-15000000D03*
X31520000Y-22540000D03*
X32950000Y-28025000D03*
X19150000Y-27450000D03*
X22050000Y-27625000D03*
X11200000Y-30000000D03*
X31650000Y-25175000D03*
X22520000Y-31040000D03*
X29510000Y-33030000D03*
D32*
X4000000Y-32000000D03*
X6000000Y-32000000D03*
M02*
