%TF.GenerationSoftware,KiCad,Pcbnew,10.0.5*%
%TF.CreationDate,2026-09-30T10:05:05+08:00*%
%TF.ProjectId,rffe,72666665-2e6b-4696-9361-645f70636258,A*%
%TF.SameCoordinates,Original*%
%TF.FileFunction,Copper,L3,Inr*%
%TF.FilePolarity,Positive*%
%FSLAX46Y46*%
G04 Gerber Fmt 4.6, Leading zero omitted, Abs format (unit mm)*
G04 Created by KiCad (PCBNEW 10.0.5) date 2026-09-30 10:05:05*
%MOMM*%
%LPD*%
G01*
G04 APERTURE LIST*
G04 Aperture macros list*
%AMRoundRect*
0 Rectangle with rounded corners*
0 $1 Rounding radius*
0 $2 $3 $4 $5 $6 $7 $8 $9 X,Y pos of 4 corners*
0 Add a 4 corners polygon primitive as box body*
4,1,4,$2,$3,$4,$5,$6,$7,$8,$9,$2,$3,0*
0 Add four circle primitives for the rounded corners*
1,1,$1+$1,$2,$3*
1,1,$1+$1,$4,$5*
1,1,$1+$1,$6,$7*
1,1,$1+$1,$8,$9*
0 Add four rect primitives between the rounded corners*
20,1,$1+$1,$2,$3,$4,$5,0*
20,1,$1+$1,$4,$5,$6,$7,0*
20,1,$1+$1,$6,$7,$8,$9,0*
20,1,$1+$1,$8,$9,$2,$3,0*%
G04 Aperture macros list end*
%TA.AperFunction,ComponentPad*%
%ADD10RoundRect,0.250000X-0.350000X-0.625000X0.350000X-0.625000X0.350000X0.625000X-0.350000X0.625000X0*%
%TD*%
%TA.AperFunction,ComponentPad*%
%ADD11O,1.200000X1.750000*%
%TD*%
%TA.AperFunction,ViaPad*%
%ADD12C,0.600000*%
%TD*%
%ADD13C,0.300000*%
%ADD14C,0.350000*%
G04 APERTURE END LIST*
D10*
%TO.N,+12V*%
%TO.C,J4*%
X4000000Y-32000000D03*
D11*
%TO.N,GND*%
X6000000Y-32000000D03*
%TD*%
D12*
%TO.N,GND*%
X33000000Y-5000000D03*
X48250000Y-31636000D03*
X45636000Y-7750000D03*
X5000000Y-5000000D03*
X7000000Y-15000000D03*
X17600000Y-13000000D03*
X22100000Y-11000000D03*
X27000000Y-15000000D03*
X41000000Y-7000000D03*
X21600000Y-13000000D03*
X29600000Y-11000000D03*
X25000000Y-21000000D03*
X27000000Y-7000000D03*
X9000000Y-9000000D03*
X15000000Y-15000000D03*
X25100000Y-11000000D03*
X7000000Y-17000000D03*
X13000000Y-5000000D03*
X29000000Y-9000000D03*
X31000000Y-15000000D03*
X32600000Y-11000000D03*
X9000000Y-25000000D03*
X27600000Y-13000000D03*
X41000000Y-15000000D03*
X39750000Y-33159999D03*
X13000000Y-9000000D03*
X42600000Y-13000000D03*
X20600000Y-11000000D03*
X41600000Y-11000000D03*
X45636000Y-16250000D03*
X45000000Y-1000000D03*
X4364000Y-9875000D03*
X49000000Y-25000000D03*
X36600000Y-13000000D03*
X44375000Y-17649500D03*
X25000000Y-9000000D03*
X23000000Y-15000000D03*
X33000000Y-21000000D03*
X39000000Y-15000000D03*
X33000000Y-17000000D03*
X33600000Y-13000000D03*
X21000000Y-15000000D03*
X2840000Y-7750000D03*
X15000000Y-17000000D03*
X21000000Y-21000000D03*
X13000000Y-7000000D03*
X48684000Y-9875000D03*
X23480000Y-31040000D03*
X39600000Y-13000000D03*
X2840000Y-14125000D03*
X46125000Y-31636000D03*
X20366000Y-14000000D03*
X17000000Y-9000000D03*
X37000000Y-1000000D03*
X11000000Y-9000000D03*
X13000000Y-25000000D03*
X31100000Y-11000000D03*
X48684000Y-16250000D03*
X15433300Y-8840000D03*
X5000000Y-25000000D03*
X23000000Y-9000000D03*
X46125000Y-33159999D03*
X45636000Y-14125000D03*
X21000000Y-7000000D03*
X4364000Y-14125000D03*
X38600000Y-11000000D03*
X9000000Y-17000000D03*
X44000000Y-12933000D03*
X14250000Y-13433000D03*
X30600000Y-13000000D03*
X47160000Y-14125000D03*
X45636000Y-9875000D03*
X41875000Y-34684000D03*
X25000000Y-15000000D03*
X31000000Y-7000000D03*
X17000000Y-25000000D03*
X13000000Y-17000000D03*
X41000000Y-1000000D03*
X26100000Y-13000000D03*
X31000000Y-17000000D03*
X41000000Y-5000000D03*
X37000000Y-9000000D03*
X17000000Y-7000000D03*
X49000000Y-29000000D03*
X44250000Y-14817000D03*
X35600000Y-11000000D03*
X19000000Y-9000000D03*
X17000000Y-15000000D03*
X1000000Y-33000000D03*
X15433300Y-9827500D03*
X25000000Y-17000000D03*
X47160000Y-9875000D03*
X1000000Y-21000000D03*
X15000000Y-7000000D03*
X33000000Y-1000000D03*
X1316000Y-16250000D03*
X43100000Y-11000000D03*
X35000000Y-15000000D03*
X37000000Y-7000000D03*
X8900000Y-13000000D03*
X4364000Y-16250000D03*
X45000000Y-21000000D03*
X9000000Y-7000000D03*
X14566700Y-10815000D03*
X16000000Y-13500000D03*
X9000000Y-29000000D03*
X14566700Y-9827500D03*
X11000000Y-7000000D03*
X9000000Y-1000000D03*
X35050000Y-28025000D03*
X39750000Y-34684000D03*
X41875000Y-33159999D03*
X9000000Y-5000000D03*
X7450000Y-11000000D03*
X29000000Y-1000000D03*
X23000000Y-17000000D03*
X19000000Y-7000000D03*
X13000000Y-21000000D03*
X32479999Y-22540000D03*
X6000000Y-13000000D03*
X29000000Y-15000000D03*
X41000000Y-17000000D03*
X17000000Y-33000000D03*
X1316000Y-14125000D03*
X39750000Y-31636000D03*
X1000000Y-1000000D03*
X10450000Y-26125000D03*
X5000000Y-1000000D03*
X11000000Y-17000000D03*
X17000000Y-29000000D03*
X41000000Y-9000000D03*
X33000000Y-33000000D03*
X33000000Y-9000000D03*
X11000000Y-15000000D03*
X39000000Y-17000000D03*
X35000000Y-7000000D03*
X48250000Y-34684000D03*
X11850000Y-11000000D03*
X17000000Y-1000000D03*
X47160000Y-7750000D03*
X43000000Y-9000000D03*
X29000000Y-29000000D03*
X25212500Y-32875000D03*
X17600000Y-11000000D03*
X23950000Y-27625000D03*
X32100000Y-13000000D03*
X40100000Y-11000000D03*
X48684000Y-7750000D03*
X25000000Y-7000000D03*
X29000000Y-7000000D03*
X33000000Y-7000000D03*
X49000000Y-1000000D03*
X8900000Y-11000000D03*
X45000000Y-5000000D03*
X21000000Y-25000000D03*
X14566700Y-8840000D03*
X17000000Y-21000000D03*
X29100000Y-13000000D03*
X28100000Y-11000000D03*
X29000000Y-5000000D03*
X25000000Y-1000000D03*
X17000000Y-17000000D03*
X12850000Y-26300000D03*
X35000000Y-9000000D03*
X6000000Y-11000000D03*
X49000000Y-5000000D03*
X4364000Y-7750000D03*
X2840000Y-16250000D03*
X29000000Y-21000000D03*
X21400000Y-18610000D03*
X26600000Y-11000000D03*
X35000000Y-17000000D03*
X11850000Y-13000000D03*
X37100000Y-11000000D03*
X1316000Y-9875000D03*
X1000000Y-25000000D03*
X46125000Y-34684000D03*
X39000000Y-9000000D03*
X1000000Y-29000000D03*
X21000000Y-9000000D03*
X15433300Y-10815000D03*
X43000000Y-7000000D03*
X41000000Y-21000000D03*
X23600000Y-11000000D03*
X13000000Y-1000000D03*
X23000000Y-7000000D03*
X27000000Y-9000000D03*
X19750000Y-16500000D03*
X7000000Y-9000000D03*
X35100000Y-13000000D03*
X9000000Y-33000000D03*
X24600000Y-13000000D03*
X31000000Y-9000000D03*
X2840000Y-9875000D03*
X19100000Y-11000000D03*
X34100000Y-11000000D03*
X29000000Y-17000000D03*
X20100000Y-13000000D03*
X41100000Y-13000000D03*
X21000000Y-1000000D03*
X41000000Y-29000000D03*
X47160000Y-16250000D03*
X1316000Y-7750000D03*
X39000000Y-7000000D03*
X23100000Y-13000000D03*
X37000000Y-33000000D03*
X45000000Y-29000000D03*
X25000000Y-5000000D03*
X21000000Y-33000000D03*
X18600000Y-18610000D03*
X5000000Y-29000000D03*
X49000000Y-21000000D03*
X37000000Y-5000000D03*
X10350000Y-13000000D03*
X5000000Y-21000000D03*
X41875000Y-31636000D03*
X48684000Y-14125000D03*
X33000000Y-15000000D03*
X21000000Y-5000000D03*
X17634000Y-14000000D03*
X38100000Y-13000000D03*
X27000000Y-17000000D03*
X17000000Y-5000000D03*
X9000000Y-21000000D03*
X1000000Y-5000000D03*
X37000000Y-29000000D03*
X45000000Y-25000000D03*
X9000000Y-15000000D03*
X10350000Y-11000000D03*
X7000000Y-7000000D03*
X48250000Y-33159999D03*
X7450000Y-13000000D03*
X13000000Y-15000000D03*
%TO.N,+3V3*%
X31520000Y-22540000D03*
X32950000Y-28025000D03*
X19150000Y-27450000D03*
X22050000Y-27625000D03*
X11200000Y-30000000D03*
X31650000Y-25175000D03*
X22520000Y-31040000D03*
X29510000Y-33030000D03*
%TD*%
%TA.AperFunction,Conductor*%
%TO.N,+3V3*%
G36*
X4360543Y-1018907D02*
G01*
X4396507Y-1068407D01*
X4397979Y-1073377D01*
X4399500Y-1079053D01*
X4399500Y-1079057D01*
X4440423Y-1231784D01*
X4519480Y-1368716D01*
X4631284Y-1480520D01*
X4768216Y-1559577D01*
X4920943Y-1600500D01*
X4920945Y-1600500D01*
X5079055Y-1600500D01*
X5079057Y-1600500D01*
X5231784Y-1559577D01*
X5368716Y-1480520D01*
X5480520Y-1368716D01*
X5559577Y-1231784D01*
X5600500Y-1079057D01*
X5600500Y-1079053D01*
X5602021Y-1073377D01*
X5635345Y-1022063D01*
X5692466Y-1000136D01*
X5697648Y-1000000D01*
X8302352Y-1000000D01*
X8360543Y-1018907D01*
X8396507Y-1068407D01*
X8397979Y-1073377D01*
X8399500Y-1079053D01*
X8399500Y-1079057D01*
X8440423Y-1231784D01*
X8519480Y-1368716D01*
X8631284Y-1480520D01*
X8768216Y-1559577D01*
X8920943Y-1600500D01*
X8920945Y-1600500D01*
X9079055Y-1600500D01*
X9079057Y-1600500D01*
X9231784Y-1559577D01*
X9368716Y-1480520D01*
X9480520Y-1368716D01*
X9559577Y-1231784D01*
X9600500Y-1079057D01*
X9600500Y-1079053D01*
X9602021Y-1073377D01*
X9635345Y-1022063D01*
X9692466Y-1000136D01*
X9697648Y-1000000D01*
X12302352Y-1000000D01*
X12360543Y-1018907D01*
X12396507Y-1068407D01*
X12397979Y-1073377D01*
X12399500Y-1079053D01*
X12399500Y-1079057D01*
X12440423Y-1231784D01*
X12519480Y-1368716D01*
X12631284Y-1480520D01*
X12768216Y-1559577D01*
X12920943Y-1600500D01*
X12920945Y-1600500D01*
X13079055Y-1600500D01*
X13079057Y-1600500D01*
X13231784Y-1559577D01*
X13368716Y-1480520D01*
X13480520Y-1368716D01*
X13559577Y-1231784D01*
X13600500Y-1079057D01*
X13600500Y-1079053D01*
X13602021Y-1073377D01*
X13635345Y-1022063D01*
X13692466Y-1000136D01*
X13697648Y-1000000D01*
X16302352Y-1000000D01*
X16360543Y-1018907D01*
X16396507Y-1068407D01*
X16397979Y-1073377D01*
X16399500Y-1079053D01*
X16399500Y-1079057D01*
X16440423Y-1231784D01*
X16519480Y-1368716D01*
X16631284Y-1480520D01*
X16768216Y-1559577D01*
X16920943Y-1600500D01*
X16920945Y-1600500D01*
X17079055Y-1600500D01*
X17079057Y-1600500D01*
X17231784Y-1559577D01*
X17368716Y-1480520D01*
X17480520Y-1368716D01*
X17559577Y-1231784D01*
X17600500Y-1079057D01*
X17600500Y-1079053D01*
X17602021Y-1073377D01*
X17635345Y-1022063D01*
X17692466Y-1000136D01*
X17697648Y-1000000D01*
X20302352Y-1000000D01*
X20360543Y-1018907D01*
X20396507Y-1068407D01*
X20397979Y-1073377D01*
X20399500Y-1079053D01*
X20399500Y-1079057D01*
X20440423Y-1231784D01*
X20519480Y-1368716D01*
X20631284Y-1480520D01*
X20768216Y-1559577D01*
X20920943Y-1600500D01*
X20920945Y-1600500D01*
X21079055Y-1600500D01*
X21079057Y-1600500D01*
X21231784Y-1559577D01*
X21368716Y-1480520D01*
X21480520Y-1368716D01*
X21559577Y-1231784D01*
X21600500Y-1079057D01*
X21600500Y-1079053D01*
X21602021Y-1073377D01*
X21635345Y-1022063D01*
X21692466Y-1000136D01*
X21697648Y-1000000D01*
X24302352Y-1000000D01*
X24360543Y-1018907D01*
X24396507Y-1068407D01*
X24397979Y-1073377D01*
X24399500Y-1079053D01*
X24399500Y-1079057D01*
X24440423Y-1231784D01*
X24519480Y-1368716D01*
X24631284Y-1480520D01*
X24768216Y-1559577D01*
X24920943Y-1600500D01*
X24920945Y-1600500D01*
X25079055Y-1600500D01*
X25079057Y-1600500D01*
X25231784Y-1559577D01*
X25368716Y-1480520D01*
X25480520Y-1368716D01*
X25559577Y-1231784D01*
X25600500Y-1079057D01*
X25600500Y-1079053D01*
X25602021Y-1073377D01*
X25635345Y-1022063D01*
X25692466Y-1000136D01*
X25697648Y-1000000D01*
X28302352Y-1000000D01*
X28360543Y-1018907D01*
X28396507Y-1068407D01*
X28397979Y-1073377D01*
X28399500Y-1079053D01*
X28399500Y-1079057D01*
X28440423Y-1231784D01*
X28519480Y-1368716D01*
X28631284Y-1480520D01*
X28768216Y-1559577D01*
X28920943Y-1600500D01*
X28920945Y-1600500D01*
X29079055Y-1600500D01*
X29079057Y-1600500D01*
X29231784Y-1559577D01*
X29368716Y-1480520D01*
X29480520Y-1368716D01*
X29559577Y-1231784D01*
X29600500Y-1079057D01*
X29600500Y-1079053D01*
X29602021Y-1073377D01*
X29635345Y-1022063D01*
X29692466Y-1000136D01*
X29697648Y-1000000D01*
X32302352Y-1000000D01*
X32360543Y-1018907D01*
X32396507Y-1068407D01*
X32397979Y-1073377D01*
X32399500Y-1079053D01*
X32399500Y-1079057D01*
X32440423Y-1231784D01*
X32519480Y-1368716D01*
X32631284Y-1480520D01*
X32768216Y-1559577D01*
X32920943Y-1600500D01*
X32920945Y-1600500D01*
X33079055Y-1600500D01*
X33079057Y-1600500D01*
X33231784Y-1559577D01*
X33368716Y-1480520D01*
X33480520Y-1368716D01*
X33559577Y-1231784D01*
X33600500Y-1079057D01*
X33600500Y-1079053D01*
X33602021Y-1073377D01*
X33635345Y-1022063D01*
X33692466Y-1000136D01*
X33697648Y-1000000D01*
X36302352Y-1000000D01*
X36360543Y-1018907D01*
X36396507Y-1068407D01*
X36397979Y-1073377D01*
X36399500Y-1079053D01*
X36399500Y-1079057D01*
X36440423Y-1231784D01*
X36519480Y-1368716D01*
X36631284Y-1480520D01*
X36768216Y-1559577D01*
X36920943Y-1600500D01*
X36920945Y-1600500D01*
X37079055Y-1600500D01*
X37079057Y-1600500D01*
X37231784Y-1559577D01*
X37368716Y-1480520D01*
X37480520Y-1368716D01*
X37559577Y-1231784D01*
X37600500Y-1079057D01*
X37600500Y-1079053D01*
X37602021Y-1073377D01*
X37635345Y-1022063D01*
X37692466Y-1000136D01*
X37697648Y-1000000D01*
X40302352Y-1000000D01*
X40360543Y-1018907D01*
X40396507Y-1068407D01*
X40397979Y-1073377D01*
X40399500Y-1079053D01*
X40399500Y-1079057D01*
X40440423Y-1231784D01*
X40519480Y-1368716D01*
X40631284Y-1480520D01*
X40768216Y-1559577D01*
X40920943Y-1600500D01*
X40920945Y-1600500D01*
X41079055Y-1600500D01*
X41079057Y-1600500D01*
X41231784Y-1559577D01*
X41368716Y-1480520D01*
X41480520Y-1368716D01*
X41559577Y-1231784D01*
X41600500Y-1079057D01*
X41600500Y-1079053D01*
X41602021Y-1073377D01*
X41635345Y-1022063D01*
X41692466Y-1000136D01*
X41697648Y-1000000D01*
X44302352Y-1000000D01*
X44360543Y-1018907D01*
X44396507Y-1068407D01*
X44397979Y-1073377D01*
X44399500Y-1079053D01*
X44399500Y-1079057D01*
X44440423Y-1231784D01*
X44519480Y-1368716D01*
X44631284Y-1480520D01*
X44768216Y-1559577D01*
X44920943Y-1600500D01*
X44920945Y-1600500D01*
X45079055Y-1600500D01*
X45079057Y-1600500D01*
X45231784Y-1559577D01*
X45368716Y-1480520D01*
X45480520Y-1368716D01*
X45559577Y-1231784D01*
X45600500Y-1079057D01*
X45600500Y-1079053D01*
X45602021Y-1073377D01*
X45635345Y-1022063D01*
X45692466Y-1000136D01*
X45697648Y-1000000D01*
X48302352Y-1000000D01*
X48360543Y-1018907D01*
X48396507Y-1068407D01*
X48397979Y-1073377D01*
X48399500Y-1079053D01*
X48399500Y-1079057D01*
X48440423Y-1231784D01*
X48519480Y-1368716D01*
X48631284Y-1480520D01*
X48768216Y-1559577D01*
X48920943Y-1600500D01*
X48920947Y-1600500D01*
X48926623Y-1602021D01*
X48977937Y-1635345D01*
X48999864Y-1692466D01*
X49000000Y-1697648D01*
X49000000Y-4302351D01*
X48981093Y-4360542D01*
X48931593Y-4396506D01*
X48926623Y-4397978D01*
X48920943Y-4399500D01*
X48768216Y-4440423D01*
X48631284Y-4519480D01*
X48519480Y-4631284D01*
X48440423Y-4768216D01*
X48399500Y-4920943D01*
X48399500Y-5079057D01*
X48440423Y-5231784D01*
X48519480Y-5368716D01*
X48631284Y-5480520D01*
X48768216Y-5559577D01*
X48920943Y-5600500D01*
X48920947Y-5600500D01*
X48926623Y-5602021D01*
X48977937Y-5635345D01*
X48999864Y-5692466D01*
X49000000Y-5697648D01*
X49000000Y-7083969D01*
X48981093Y-7142160D01*
X48931593Y-7178124D01*
X48875377Y-7179596D01*
X48763057Y-7149500D01*
X48604943Y-7149500D01*
X48452216Y-7190423D01*
X48315284Y-7269480D01*
X48203480Y-7381284D01*
X48124423Y-7518216D01*
X48083500Y-7670943D01*
X48083500Y-7829057D01*
X48124423Y-7981784D01*
X48203480Y-8118716D01*
X48315284Y-8230520D01*
X48452216Y-8309577D01*
X48604943Y-8350500D01*
X48604945Y-8350500D01*
X48763055Y-8350500D01*
X48763057Y-8350500D01*
X48875380Y-8320403D01*
X48936478Y-8323605D01*
X48984028Y-8362110D01*
X49000000Y-8416030D01*
X49000000Y-9208969D01*
X48981093Y-9267160D01*
X48931593Y-9303124D01*
X48875377Y-9304596D01*
X48763057Y-9274500D01*
X48604943Y-9274500D01*
X48452216Y-9315423D01*
X48315284Y-9394480D01*
X48203480Y-9506284D01*
X48124423Y-9643216D01*
X48083500Y-9795943D01*
X48083500Y-9954057D01*
X48124423Y-10106784D01*
X48124424Y-10106785D01*
X48126906Y-10112778D01*
X48124022Y-10113972D01*
X48134094Y-10161346D01*
X48109209Y-10217242D01*
X48056221Y-10247836D01*
X48035636Y-10250000D01*
X47808364Y-10250000D01*
X47750173Y-10231093D01*
X47714209Y-10181593D01*
X47714209Y-10120407D01*
X47717526Y-10112957D01*
X47717094Y-10112778D01*
X47719571Y-10106793D01*
X47719577Y-10106784D01*
X47760500Y-9954057D01*
X47760500Y-9795943D01*
X47719577Y-9643216D01*
X47640520Y-9506284D01*
X47528716Y-9394480D01*
X47391784Y-9315423D01*
X47239057Y-9274500D01*
X47080943Y-9274500D01*
X46928216Y-9315423D01*
X46791284Y-9394480D01*
X46679480Y-9506284D01*
X46600423Y-9643216D01*
X46559500Y-9795943D01*
X46559500Y-9954057D01*
X46600423Y-10106784D01*
X46600424Y-10106785D01*
X46602906Y-10112778D01*
X46600022Y-10113972D01*
X46610094Y-10161346D01*
X46585209Y-10217242D01*
X46532221Y-10247836D01*
X46511636Y-10250000D01*
X46284364Y-10250000D01*
X46226173Y-10231093D01*
X46190209Y-10181593D01*
X46190209Y-10120407D01*
X46193526Y-10112957D01*
X46193094Y-10112778D01*
X46195571Y-10106793D01*
X46195577Y-10106784D01*
X46236500Y-9954057D01*
X46236500Y-9795943D01*
X46195577Y-9643216D01*
X46116520Y-9506284D01*
X46004716Y-9394480D01*
X45867784Y-9315423D01*
X45715057Y-9274500D01*
X45556943Y-9274500D01*
X45404216Y-9315423D01*
X45267284Y-9394480D01*
X45155480Y-9506284D01*
X45076423Y-9643216D01*
X45035500Y-9795943D01*
X45035500Y-9954057D01*
X45076423Y-10106784D01*
X45076424Y-10106785D01*
X45078906Y-10112778D01*
X45076022Y-10113972D01*
X45086094Y-10161346D01*
X45061209Y-10217242D01*
X45008221Y-10247836D01*
X44987636Y-10250000D01*
X44620000Y-10250000D01*
X44620000Y-10250001D01*
X44620000Y-12464757D01*
X44601093Y-12522948D01*
X44551593Y-12558912D01*
X44490407Y-12558912D01*
X44450998Y-12534762D01*
X44368716Y-12452480D01*
X44231784Y-12373423D01*
X44079057Y-12332500D01*
X43920943Y-12332500D01*
X43768216Y-12373423D01*
X43631284Y-12452480D01*
X43519480Y-12564284D01*
X43440423Y-12701216D01*
X43399500Y-12853943D01*
X43399500Y-13012057D01*
X43440423Y-13164784D01*
X43519480Y-13301716D01*
X43631284Y-13413520D01*
X43768216Y-13492577D01*
X43920943Y-13533500D01*
X43920945Y-13533500D01*
X44079055Y-13533500D01*
X44079057Y-13533500D01*
X44231784Y-13492577D01*
X44368716Y-13413520D01*
X44450998Y-13331237D01*
X44505513Y-13303462D01*
X44565945Y-13313033D01*
X44609210Y-13356298D01*
X44620000Y-13401243D01*
X44620000Y-13750000D01*
X44987636Y-13750000D01*
X45045827Y-13768907D01*
X45081791Y-13818407D01*
X45081791Y-13879593D01*
X45078473Y-13887042D01*
X45078906Y-13887222D01*
X45076423Y-13893214D01*
X45076423Y-13893216D01*
X45035500Y-14045943D01*
X45035500Y-14204057D01*
X45076423Y-14356784D01*
X45155480Y-14493716D01*
X45267284Y-14605520D01*
X45404216Y-14684577D01*
X45556943Y-14725500D01*
X45556945Y-14725500D01*
X45715055Y-14725500D01*
X45715057Y-14725500D01*
X45867784Y-14684577D01*
X46004716Y-14605520D01*
X46116520Y-14493716D01*
X46195577Y-14356784D01*
X46236500Y-14204057D01*
X46236500Y-14045943D01*
X46195577Y-13893216D01*
X46195572Y-13893208D01*
X46193094Y-13887222D01*
X46195977Y-13886027D01*
X46185906Y-13838654D01*
X46210791Y-13782758D01*
X46263779Y-13752164D01*
X46284364Y-13750000D01*
X46511636Y-13750000D01*
X46569827Y-13768907D01*
X46605791Y-13818407D01*
X46605791Y-13879593D01*
X46602473Y-13887042D01*
X46602906Y-13887222D01*
X46600423Y-13893214D01*
X46600423Y-13893216D01*
X46559500Y-14045943D01*
X46559500Y-14204057D01*
X46600423Y-14356784D01*
X46679480Y-14493716D01*
X46791284Y-14605520D01*
X46928216Y-14684577D01*
X47080943Y-14725500D01*
X47080945Y-14725500D01*
X47239055Y-14725500D01*
X47239057Y-14725500D01*
X47391784Y-14684577D01*
X47528716Y-14605520D01*
X47640520Y-14493716D01*
X47719577Y-14356784D01*
X47760500Y-14204057D01*
X47760500Y-14045943D01*
X47719577Y-13893216D01*
X47719572Y-13893208D01*
X47717094Y-13887222D01*
X47719977Y-13886027D01*
X47709906Y-13838654D01*
X47734791Y-13782758D01*
X47787779Y-13752164D01*
X47808364Y-13750000D01*
X48035636Y-13750000D01*
X48093827Y-13768907D01*
X48129791Y-13818407D01*
X48129791Y-13879593D01*
X48126473Y-13887042D01*
X48126906Y-13887222D01*
X48124423Y-13893214D01*
X48124423Y-13893216D01*
X48083500Y-14045943D01*
X48083500Y-14204057D01*
X48124423Y-14356784D01*
X48203480Y-14493716D01*
X48315284Y-14605520D01*
X48452216Y-14684577D01*
X48604943Y-14725500D01*
X48604945Y-14725500D01*
X48763055Y-14725500D01*
X48763057Y-14725500D01*
X48875380Y-14695403D01*
X48936478Y-14698605D01*
X48984028Y-14737110D01*
X49000000Y-14791030D01*
X49000000Y-15583969D01*
X48981093Y-15642160D01*
X48931593Y-15678124D01*
X48875377Y-15679596D01*
X48763057Y-15649500D01*
X48604943Y-15649500D01*
X48452216Y-15690423D01*
X48315284Y-15769480D01*
X48203480Y-15881284D01*
X48124423Y-16018216D01*
X48083500Y-16170943D01*
X48083500Y-16329057D01*
X48124423Y-16481784D01*
X48203480Y-16618716D01*
X48315284Y-16730520D01*
X48452216Y-16809577D01*
X48604943Y-16850500D01*
X48604945Y-16850500D01*
X48763055Y-16850500D01*
X48763057Y-16850500D01*
X48875380Y-16820403D01*
X48936478Y-16823605D01*
X48984028Y-16862110D01*
X49000000Y-16916030D01*
X49000000Y-20302351D01*
X48981093Y-20360542D01*
X48931593Y-20396506D01*
X48926623Y-20397978D01*
X48920943Y-20399500D01*
X48768216Y-20440423D01*
X48631284Y-20519480D01*
X48519480Y-20631284D01*
X48440423Y-20768216D01*
X48399500Y-20920943D01*
X48399500Y-21079057D01*
X48440423Y-21231784D01*
X48519480Y-21368716D01*
X48631284Y-21480520D01*
X48768216Y-21559577D01*
X48920943Y-21600500D01*
X48920947Y-21600500D01*
X48926623Y-21602021D01*
X48977937Y-21635345D01*
X48999864Y-21692466D01*
X49000000Y-21697648D01*
X49000000Y-24302351D01*
X48981093Y-24360542D01*
X48931593Y-24396506D01*
X48926623Y-24397978D01*
X48920943Y-24399500D01*
X48768216Y-24440423D01*
X48631284Y-24519480D01*
X48519480Y-24631284D01*
X48440423Y-24768216D01*
X48399500Y-24920943D01*
X48399500Y-25079057D01*
X48440423Y-25231784D01*
X48519480Y-25368716D01*
X48631284Y-25480520D01*
X48768216Y-25559577D01*
X48920943Y-25600500D01*
X48920947Y-25600500D01*
X48926623Y-25602021D01*
X48977937Y-25635345D01*
X48999864Y-25692466D01*
X49000000Y-25697648D01*
X49000000Y-28302351D01*
X48981093Y-28360542D01*
X48931593Y-28396506D01*
X48926623Y-28397978D01*
X48920943Y-28399500D01*
X48768216Y-28440423D01*
X48631284Y-28519480D01*
X48519480Y-28631284D01*
X48440423Y-28768216D01*
X48399500Y-28920943D01*
X48399500Y-29079057D01*
X48440423Y-29231784D01*
X48519480Y-29368716D01*
X48631284Y-29480520D01*
X48768216Y-29559577D01*
X48920943Y-29600500D01*
X48920947Y-29600500D01*
X48926623Y-29602021D01*
X48977937Y-29635345D01*
X48999864Y-29692466D01*
X49000000Y-29697648D01*
X49000000Y-31366231D01*
X48981093Y-31424422D01*
X48931593Y-31460386D01*
X48870407Y-31460386D01*
X48820907Y-31424422D01*
X48810076Y-31405082D01*
X48809577Y-31404219D01*
X48809577Y-31404216D01*
X48730520Y-31267284D01*
X48618716Y-31155480D01*
X48481784Y-31076423D01*
X48329057Y-31035500D01*
X48170943Y-31035500D01*
X48018216Y-31076423D01*
X47881284Y-31155480D01*
X47769480Y-31267284D01*
X47690423Y-31404216D01*
X47649500Y-31556943D01*
X47649500Y-31715057D01*
X47690423Y-31867784D01*
X47769480Y-32004716D01*
X47881284Y-32116520D01*
X48018216Y-32195577D01*
X48170943Y-32236500D01*
X48170945Y-32236500D01*
X48329055Y-32236500D01*
X48329057Y-32236500D01*
X48481784Y-32195577D01*
X48618716Y-32116520D01*
X48730520Y-32004716D01*
X48809577Y-31867784D01*
X48809577Y-31867781D01*
X48812821Y-31862164D01*
X48813892Y-31862782D01*
X48849270Y-31821358D01*
X48908765Y-31807073D01*
X48965293Y-31830486D01*
X48997264Y-31882654D01*
X49000000Y-31905768D01*
X49000000Y-32890230D01*
X48981093Y-32948421D01*
X48931593Y-32984385D01*
X48870407Y-32984385D01*
X48820907Y-32948421D01*
X48810076Y-32929081D01*
X48809577Y-32928218D01*
X48809577Y-32928215D01*
X48730520Y-32791283D01*
X48618716Y-32679479D01*
X48481784Y-32600422D01*
X48329057Y-32559499D01*
X48170943Y-32559499D01*
X48018216Y-32600422D01*
X47881284Y-32679479D01*
X47769480Y-32791283D01*
X47690423Y-32928215D01*
X47649500Y-33080942D01*
X47649500Y-33239056D01*
X47690423Y-33391783D01*
X47769480Y-33528715D01*
X47881284Y-33640519D01*
X48018216Y-33719576D01*
X48170943Y-33760499D01*
X48170945Y-33760499D01*
X48329055Y-33760499D01*
X48329057Y-33760499D01*
X48481784Y-33719576D01*
X48618716Y-33640519D01*
X48730520Y-33528715D01*
X48809577Y-33391783D01*
X48809577Y-33391780D01*
X48812821Y-33386163D01*
X48813892Y-33386781D01*
X48849270Y-33345357D01*
X48908765Y-33331072D01*
X48965293Y-33354485D01*
X48997264Y-33406653D01*
X49000000Y-33429767D01*
X49000000Y-34414231D01*
X48981093Y-34472422D01*
X48931593Y-34508386D01*
X48870407Y-34508386D01*
X48820907Y-34472422D01*
X48810076Y-34453082D01*
X48809577Y-34452219D01*
X48809577Y-34452216D01*
X48730520Y-34315284D01*
X48618716Y-34203480D01*
X48481784Y-34124423D01*
X48329057Y-34083500D01*
X48170943Y-34083500D01*
X48018216Y-34124423D01*
X47881284Y-34203480D01*
X47769480Y-34315284D01*
X47690423Y-34452216D01*
X47649500Y-34604943D01*
X47649500Y-34763057D01*
X47679596Y-34875377D01*
X47676393Y-34936479D01*
X47637888Y-34984029D01*
X47583969Y-35000000D01*
X46791031Y-35000000D01*
X46732840Y-34981093D01*
X46696876Y-34931593D01*
X46695404Y-34875377D01*
X46725500Y-34763057D01*
X46725500Y-34604943D01*
X46684577Y-34452216D01*
X46605520Y-34315284D01*
X46493716Y-34203480D01*
X46356784Y-34124423D01*
X46204057Y-34083500D01*
X46045943Y-34083500D01*
X45893216Y-34124423D01*
X45756284Y-34203480D01*
X45644480Y-34315284D01*
X45565423Y-34452216D01*
X45524500Y-34604943D01*
X45524500Y-34763057D01*
X45554596Y-34875377D01*
X45551393Y-34936479D01*
X45512888Y-34984029D01*
X45458969Y-35000000D01*
X42541031Y-35000000D01*
X42482840Y-34981093D01*
X42446876Y-34931593D01*
X42445404Y-34875377D01*
X42475500Y-34763057D01*
X42475500Y-34604943D01*
X42434577Y-34452216D01*
X42355520Y-34315284D01*
X42243716Y-34203480D01*
X42106784Y-34124423D01*
X41954057Y-34083500D01*
X41795943Y-34083500D01*
X41643216Y-34124423D01*
X41506284Y-34203480D01*
X41394480Y-34315284D01*
X41315423Y-34452216D01*
X41274500Y-34604943D01*
X41274500Y-34763057D01*
X41304596Y-34875377D01*
X41301393Y-34936479D01*
X41262888Y-34984029D01*
X41208969Y-35000000D01*
X40416031Y-35000000D01*
X40357840Y-34981093D01*
X40321876Y-34931593D01*
X40320404Y-34875377D01*
X40350500Y-34763057D01*
X40350500Y-34604943D01*
X40309577Y-34452216D01*
X40230520Y-34315284D01*
X40118716Y-34203480D01*
X39981784Y-34124423D01*
X39829057Y-34083500D01*
X39670943Y-34083500D01*
X39518216Y-34124423D01*
X39381284Y-34203480D01*
X39269480Y-34315284D01*
X39190423Y-34452216D01*
X39149500Y-34604943D01*
X39149500Y-34763057D01*
X39179596Y-34875377D01*
X39176393Y-34936479D01*
X39137888Y-34984029D01*
X39083969Y-35000000D01*
X1099000Y-35000000D01*
X1040809Y-34981093D01*
X1004845Y-34931593D01*
X1000000Y-34901000D01*
X1000000Y-33697648D01*
X1018907Y-33639457D01*
X1068407Y-33603493D01*
X1073377Y-33602021D01*
X1079053Y-33600500D01*
X1079057Y-33600500D01*
X1231784Y-33559577D01*
X1368716Y-33480520D01*
X1480520Y-33368716D01*
X1559577Y-33231784D01*
X1600500Y-33079057D01*
X1600500Y-32920943D01*
X1559577Y-32768216D01*
X1480520Y-32631284D01*
X1368716Y-32519480D01*
X1231784Y-32440423D01*
X1079057Y-32399500D01*
X1073377Y-32397978D01*
X1022062Y-32364654D01*
X1000136Y-32307532D01*
X1000000Y-32302351D01*
X1000000Y-31331893D01*
X3099500Y-31331893D01*
X3099500Y-32668106D01*
X3110123Y-32756565D01*
X3165637Y-32897339D01*
X3165638Y-32897341D01*
X3165639Y-32897342D01*
X3257078Y-33017922D01*
X3377658Y-33109361D01*
X3377659Y-33109361D01*
X3377660Y-33109362D01*
X3448047Y-33137119D01*
X3518436Y-33164877D01*
X3606898Y-33175500D01*
X3606900Y-33175500D01*
X4393100Y-33175500D01*
X4393102Y-33175500D01*
X4481564Y-33164877D01*
X4622342Y-33109361D01*
X4742922Y-33017922D01*
X4834361Y-32897342D01*
X4889877Y-32756564D01*
X4900500Y-32668102D01*
X4900500Y-31636306D01*
X5099500Y-31636306D01*
X5099500Y-32363693D01*
X5134106Y-32537665D01*
X5134106Y-32537667D01*
X5201985Y-32701544D01*
X5201985Y-32701545D01*
X5300535Y-32849034D01*
X5300536Y-32849035D01*
X5425965Y-32974464D01*
X5573453Y-33073013D01*
X5573454Y-33073013D01*
X5573455Y-33073014D01*
X5592598Y-33080943D01*
X5737334Y-33140894D01*
X5911309Y-33175500D01*
X5911310Y-33175500D01*
X6088690Y-33175500D01*
X6088691Y-33175500D01*
X6262666Y-33140894D01*
X6426547Y-33073013D01*
X6574035Y-32974464D01*
X6627556Y-32920943D01*
X8399500Y-32920943D01*
X8399500Y-33079057D01*
X8440423Y-33231784D01*
X8519480Y-33368716D01*
X8631284Y-33480520D01*
X8768216Y-33559577D01*
X8920943Y-33600500D01*
X8920945Y-33600500D01*
X9079055Y-33600500D01*
X9079057Y-33600500D01*
X9231784Y-33559577D01*
X9368716Y-33480520D01*
X9480520Y-33368716D01*
X9559577Y-33231784D01*
X9600500Y-33079057D01*
X9600500Y-32920943D01*
X16399500Y-32920943D01*
X16399500Y-33079057D01*
X16440423Y-33231784D01*
X16519480Y-33368716D01*
X16631284Y-33480520D01*
X16768216Y-33559577D01*
X16920943Y-33600500D01*
X16920945Y-33600500D01*
X17079055Y-33600500D01*
X17079057Y-33600500D01*
X17231784Y-33559577D01*
X17368716Y-33480520D01*
X17480520Y-33368716D01*
X17559577Y-33231784D01*
X17600500Y-33079057D01*
X17600500Y-32920943D01*
X20399500Y-32920943D01*
X20399500Y-33079057D01*
X20440423Y-33231784D01*
X20519480Y-33368716D01*
X20631284Y-33480520D01*
X20768216Y-33559577D01*
X20920943Y-33600500D01*
X20920945Y-33600500D01*
X21079055Y-33600500D01*
X21079057Y-33600500D01*
X21231784Y-33559577D01*
X21368716Y-33480520D01*
X21480520Y-33368716D01*
X21559577Y-33231784D01*
X21600500Y-33079057D01*
X21600500Y-32920943D01*
X21567006Y-32795943D01*
X24612000Y-32795943D01*
X24612000Y-32954057D01*
X24652923Y-33106784D01*
X24731980Y-33243716D01*
X24843784Y-33355520D01*
X24980716Y-33434577D01*
X25133443Y-33475500D01*
X25133445Y-33475500D01*
X25291555Y-33475500D01*
X25291557Y-33475500D01*
X25444284Y-33434577D01*
X25581216Y-33355520D01*
X25693020Y-33243716D01*
X25772077Y-33106784D01*
X25813000Y-32954057D01*
X25813000Y-32920943D01*
X32399500Y-32920943D01*
X32399500Y-33079057D01*
X32440423Y-33231784D01*
X32519480Y-33368716D01*
X32631284Y-33480520D01*
X32768216Y-33559577D01*
X32920943Y-33600500D01*
X32920945Y-33600500D01*
X33079055Y-33600500D01*
X33079057Y-33600500D01*
X33231784Y-33559577D01*
X33368716Y-33480520D01*
X33480520Y-33368716D01*
X33559577Y-33231784D01*
X33600500Y-33079057D01*
X33600500Y-32920943D01*
X36399500Y-32920943D01*
X36399500Y-33079057D01*
X36440423Y-33231784D01*
X36519480Y-33368716D01*
X36631284Y-33480520D01*
X36768216Y-33559577D01*
X36920943Y-33600500D01*
X36920945Y-33600500D01*
X37079055Y-33600500D01*
X37079057Y-33600500D01*
X37231784Y-33559577D01*
X37368716Y-33480520D01*
X37480520Y-33368716D01*
X37559577Y-33231784D01*
X37599995Y-33080942D01*
X39149500Y-33080942D01*
X39149500Y-33239056D01*
X39190423Y-33391783D01*
X39269480Y-33528715D01*
X39381284Y-33640519D01*
X39518216Y-33719576D01*
X39670943Y-33760499D01*
X39670945Y-33760499D01*
X39829055Y-33760499D01*
X39829057Y-33760499D01*
X39981784Y-33719576D01*
X40118716Y-33640519D01*
X40230520Y-33528715D01*
X40309577Y-33391783D01*
X40350500Y-33239056D01*
X40350500Y-33080942D01*
X41274500Y-33080942D01*
X41274500Y-33239056D01*
X41315423Y-33391783D01*
X41394480Y-33528715D01*
X41506284Y-33640519D01*
X41643216Y-33719576D01*
X41795943Y-33760499D01*
X41795945Y-33760499D01*
X41954055Y-33760499D01*
X41954057Y-33760499D01*
X42106784Y-33719576D01*
X42243716Y-33640519D01*
X42355520Y-33528715D01*
X42434577Y-33391783D01*
X42475500Y-33239056D01*
X42475500Y-33080942D01*
X45524500Y-33080942D01*
X45524500Y-33239056D01*
X45565423Y-33391783D01*
X45644480Y-33528715D01*
X45756284Y-33640519D01*
X45893216Y-33719576D01*
X46045943Y-33760499D01*
X46045945Y-33760499D01*
X46204055Y-33760499D01*
X46204057Y-33760499D01*
X46356784Y-33719576D01*
X46493716Y-33640519D01*
X46605520Y-33528715D01*
X46684577Y-33391783D01*
X46725500Y-33239056D01*
X46725500Y-33080942D01*
X46684577Y-32928215D01*
X46605520Y-32791283D01*
X46493716Y-32679479D01*
X46356784Y-32600422D01*
X46204057Y-32559499D01*
X46045943Y-32559499D01*
X45893216Y-32600422D01*
X45756284Y-32679479D01*
X45644480Y-32791283D01*
X45565423Y-32928215D01*
X45524500Y-33080942D01*
X42475500Y-33080942D01*
X42434577Y-32928215D01*
X42355520Y-32791283D01*
X42243716Y-32679479D01*
X42106784Y-32600422D01*
X41954057Y-32559499D01*
X41795943Y-32559499D01*
X41643216Y-32600422D01*
X41506284Y-32679479D01*
X41394480Y-32791283D01*
X41315423Y-32928215D01*
X41274500Y-33080942D01*
X40350500Y-33080942D01*
X40309577Y-32928215D01*
X40230520Y-32791283D01*
X40118716Y-32679479D01*
X39981784Y-32600422D01*
X39829057Y-32559499D01*
X39670943Y-32559499D01*
X39518216Y-32600422D01*
X39381284Y-32679479D01*
X39269480Y-32791283D01*
X39190423Y-32928215D01*
X39149500Y-33080942D01*
X37599995Y-33080942D01*
X37600500Y-33079057D01*
X37600500Y-32920943D01*
X37559577Y-32768216D01*
X37480520Y-32631284D01*
X37368716Y-32519480D01*
X37231784Y-32440423D01*
X37079057Y-32399500D01*
X36920943Y-32399500D01*
X36768216Y-32440423D01*
X36631284Y-32519480D01*
X36519480Y-32631284D01*
X36440423Y-32768216D01*
X36399500Y-32920943D01*
X33600500Y-32920943D01*
X33559577Y-32768216D01*
X33480520Y-32631284D01*
X33368716Y-32519480D01*
X33231784Y-32440423D01*
X33079057Y-32399500D01*
X32920943Y-32399500D01*
X32768216Y-32440423D01*
X32631284Y-32519480D01*
X32519480Y-32631284D01*
X32440423Y-32768216D01*
X32399500Y-32920943D01*
X25813000Y-32920943D01*
X25813000Y-32795943D01*
X25772077Y-32643216D01*
X25693020Y-32506284D01*
X25581216Y-32394480D01*
X25444284Y-32315423D01*
X25291557Y-32274500D01*
X25133443Y-32274500D01*
X24980716Y-32315423D01*
X24843784Y-32394480D01*
X24731980Y-32506284D01*
X24652923Y-32643216D01*
X24612000Y-32795943D01*
X21567006Y-32795943D01*
X21559577Y-32768216D01*
X21480520Y-32631284D01*
X21368716Y-32519480D01*
X21231784Y-32440423D01*
X21079057Y-32399500D01*
X20920943Y-32399500D01*
X20768216Y-32440423D01*
X20631284Y-32519480D01*
X20519480Y-32631284D01*
X20440423Y-32768216D01*
X20399500Y-32920943D01*
X17600500Y-32920943D01*
X17559577Y-32768216D01*
X17480520Y-32631284D01*
X17368716Y-32519480D01*
X17231784Y-32440423D01*
X17079057Y-32399500D01*
X16920943Y-32399500D01*
X16768216Y-32440423D01*
X16631284Y-32519480D01*
X16519480Y-32631284D01*
X16440423Y-32768216D01*
X16399500Y-32920943D01*
X9600500Y-32920943D01*
X9559577Y-32768216D01*
X9480520Y-32631284D01*
X9368716Y-32519480D01*
X9231784Y-32440423D01*
X9079057Y-32399500D01*
X8920943Y-32399500D01*
X8768216Y-32440423D01*
X8631284Y-32519480D01*
X8519480Y-32631284D01*
X8440423Y-32768216D01*
X8399500Y-32920943D01*
X6627556Y-32920943D01*
X6699464Y-32849035D01*
X6798013Y-32701547D01*
X6865894Y-32537666D01*
X6900500Y-32363691D01*
X6900500Y-31636309D01*
X6865894Y-31462334D01*
X6798014Y-31298455D01*
X6798014Y-31298454D01*
X6699464Y-31150965D01*
X6574034Y-31025535D01*
X6477366Y-30960943D01*
X22879500Y-30960943D01*
X22879500Y-31119057D01*
X22920423Y-31271784D01*
X22999480Y-31408716D01*
X23111284Y-31520520D01*
X23248216Y-31599577D01*
X23400943Y-31640500D01*
X23400945Y-31640500D01*
X23559055Y-31640500D01*
X23559057Y-31640500D01*
X23711784Y-31599577D01*
X23785629Y-31556943D01*
X39149500Y-31556943D01*
X39149500Y-31715057D01*
X39190423Y-31867784D01*
X39269480Y-32004716D01*
X39381284Y-32116520D01*
X39518216Y-32195577D01*
X39670943Y-32236500D01*
X39670945Y-32236500D01*
X39829055Y-32236500D01*
X39829057Y-32236500D01*
X39981784Y-32195577D01*
X40118716Y-32116520D01*
X40230520Y-32004716D01*
X40309577Y-31867784D01*
X40350500Y-31715057D01*
X40350500Y-31556943D01*
X41274500Y-31556943D01*
X41274500Y-31715057D01*
X41315423Y-31867784D01*
X41394480Y-32004716D01*
X41506284Y-32116520D01*
X41643216Y-32195577D01*
X41795943Y-32236500D01*
X41795945Y-32236500D01*
X41954055Y-32236500D01*
X41954057Y-32236500D01*
X42106784Y-32195577D01*
X42243716Y-32116520D01*
X42355520Y-32004716D01*
X42434577Y-31867784D01*
X42475500Y-31715057D01*
X42475500Y-31556943D01*
X45524500Y-31556943D01*
X45524500Y-31715057D01*
X45565423Y-31867784D01*
X45644480Y-32004716D01*
X45756284Y-32116520D01*
X45893216Y-32195577D01*
X46045943Y-32236500D01*
X46045945Y-32236500D01*
X46204055Y-32236500D01*
X46204057Y-32236500D01*
X46356784Y-32195577D01*
X46493716Y-32116520D01*
X46605520Y-32004716D01*
X46684577Y-31867784D01*
X46725500Y-31715057D01*
X46725500Y-31556943D01*
X46684577Y-31404216D01*
X46605520Y-31267284D01*
X46493716Y-31155480D01*
X46356784Y-31076423D01*
X46204057Y-31035500D01*
X46045943Y-31035500D01*
X45893216Y-31076423D01*
X45756284Y-31155480D01*
X45644480Y-31267284D01*
X45565423Y-31404216D01*
X45524500Y-31556943D01*
X42475500Y-31556943D01*
X42434577Y-31404216D01*
X42355520Y-31267284D01*
X42243716Y-31155480D01*
X42106784Y-31076423D01*
X41954057Y-31035500D01*
X41795943Y-31035500D01*
X41643216Y-31076423D01*
X41506284Y-31155480D01*
X41394480Y-31267284D01*
X41315423Y-31404216D01*
X41274500Y-31556943D01*
X40350500Y-31556943D01*
X40309577Y-31404216D01*
X40230520Y-31267284D01*
X40118716Y-31155480D01*
X39981784Y-31076423D01*
X39829057Y-31035500D01*
X39670943Y-31035500D01*
X39518216Y-31076423D01*
X39381284Y-31155480D01*
X39269480Y-31267284D01*
X39190423Y-31404216D01*
X39149500Y-31556943D01*
X23785629Y-31556943D01*
X23848716Y-31520520D01*
X23960520Y-31408716D01*
X24039577Y-31271784D01*
X24080500Y-31119057D01*
X24080500Y-30960943D01*
X24039577Y-30808216D01*
X23960520Y-30671284D01*
X23848716Y-30559480D01*
X23711784Y-30480423D01*
X23559057Y-30439500D01*
X23400943Y-30439500D01*
X23248216Y-30480423D01*
X23111284Y-30559480D01*
X22999480Y-30671284D01*
X22920423Y-30808216D01*
X22879500Y-30960943D01*
X6477366Y-30960943D01*
X6426544Y-30926985D01*
X6262666Y-30859106D01*
X6088693Y-30824500D01*
X6088691Y-30824500D01*
X5911309Y-30824500D01*
X5911306Y-30824500D01*
X5737334Y-30859106D01*
X5737332Y-30859106D01*
X5573455Y-30926985D01*
X5573454Y-30926985D01*
X5425965Y-31025535D01*
X5300535Y-31150965D01*
X5201985Y-31298454D01*
X5201985Y-31298455D01*
X5134106Y-31462332D01*
X5134106Y-31462334D01*
X5099500Y-31636306D01*
X4900500Y-31636306D01*
X4900500Y-31331898D01*
X4889877Y-31243436D01*
X4834361Y-31102658D01*
X4742922Y-30982078D01*
X4622342Y-30890639D01*
X4622341Y-30890638D01*
X4622339Y-30890637D01*
X4481565Y-30835123D01*
X4393106Y-30824500D01*
X4393102Y-30824500D01*
X3606898Y-30824500D01*
X3606893Y-30824500D01*
X3518434Y-30835123D01*
X3377660Y-30890637D01*
X3377656Y-30890640D01*
X3257081Y-30982075D01*
X3257075Y-30982081D01*
X3165640Y-31102656D01*
X3165637Y-31102660D01*
X3110123Y-31243434D01*
X3099500Y-31331893D01*
X1000000Y-31331893D01*
X1000000Y-29697648D01*
X1018907Y-29639457D01*
X1068407Y-29603493D01*
X1073377Y-29602021D01*
X1079053Y-29600500D01*
X1079057Y-29600500D01*
X1231784Y-29559577D01*
X1368716Y-29480520D01*
X1480520Y-29368716D01*
X1559577Y-29231784D01*
X1600500Y-29079057D01*
X1600500Y-28920943D01*
X4399500Y-28920943D01*
X4399500Y-29079057D01*
X4440423Y-29231784D01*
X4519480Y-29368716D01*
X4631284Y-29480520D01*
X4768216Y-29559577D01*
X4920943Y-29600500D01*
X4920945Y-29600500D01*
X5079055Y-29600500D01*
X5079057Y-29600500D01*
X5231784Y-29559577D01*
X5368716Y-29480520D01*
X5480520Y-29368716D01*
X5559577Y-29231784D01*
X5600500Y-29079057D01*
X5600500Y-28920943D01*
X8399500Y-28920943D01*
X8399500Y-29079057D01*
X8440423Y-29231784D01*
X8519480Y-29368716D01*
X8631284Y-29480520D01*
X8768216Y-29559577D01*
X8920943Y-29600500D01*
X8920945Y-29600500D01*
X9079055Y-29600500D01*
X9079057Y-29600500D01*
X9231784Y-29559577D01*
X9368716Y-29480520D01*
X9480520Y-29368716D01*
X9559577Y-29231784D01*
X9600500Y-29079057D01*
X9600500Y-28920943D01*
X16399500Y-28920943D01*
X16399500Y-29079057D01*
X16440423Y-29231784D01*
X16519480Y-29368716D01*
X16631284Y-29480520D01*
X16768216Y-29559577D01*
X16920943Y-29600500D01*
X16920945Y-29600500D01*
X17079055Y-29600500D01*
X17079057Y-29600500D01*
X17231784Y-29559577D01*
X17368716Y-29480520D01*
X17480520Y-29368716D01*
X17559577Y-29231784D01*
X17600500Y-29079057D01*
X17600500Y-28920943D01*
X28399500Y-28920943D01*
X28399500Y-29079057D01*
X28440423Y-29231784D01*
X28519480Y-29368716D01*
X28631284Y-29480520D01*
X28768216Y-29559577D01*
X28920943Y-29600500D01*
X28920945Y-29600500D01*
X29079055Y-29600500D01*
X29079057Y-29600500D01*
X29231784Y-29559577D01*
X29368716Y-29480520D01*
X29480520Y-29368716D01*
X29559577Y-29231784D01*
X29600500Y-29079057D01*
X29600500Y-28920943D01*
X36399500Y-28920943D01*
X36399500Y-29079057D01*
X36440423Y-29231784D01*
X36519480Y-29368716D01*
X36631284Y-29480520D01*
X36768216Y-29559577D01*
X36920943Y-29600500D01*
X36920945Y-29600500D01*
X37079055Y-29600500D01*
X37079057Y-29600500D01*
X37231784Y-29559577D01*
X37368716Y-29480520D01*
X37480520Y-29368716D01*
X37559577Y-29231784D01*
X37600500Y-29079057D01*
X37600500Y-28920943D01*
X40399500Y-28920943D01*
X40399500Y-29079057D01*
X40440423Y-29231784D01*
X40519480Y-29368716D01*
X40631284Y-29480520D01*
X40768216Y-29559577D01*
X40920943Y-29600500D01*
X40920945Y-29600500D01*
X41079055Y-29600500D01*
X41079057Y-29600500D01*
X41231784Y-29559577D01*
X41368716Y-29480520D01*
X41480520Y-29368716D01*
X41559577Y-29231784D01*
X41600500Y-29079057D01*
X41600500Y-28920943D01*
X44399500Y-28920943D01*
X44399500Y-29079057D01*
X44440423Y-29231784D01*
X44519480Y-29368716D01*
X44631284Y-29480520D01*
X44768216Y-29559577D01*
X44920943Y-29600500D01*
X44920945Y-29600500D01*
X45079055Y-29600500D01*
X45079057Y-29600500D01*
X45231784Y-29559577D01*
X45368716Y-29480520D01*
X45480520Y-29368716D01*
X45559577Y-29231784D01*
X45600500Y-29079057D01*
X45600500Y-28920943D01*
X45559577Y-28768216D01*
X45480520Y-28631284D01*
X45368716Y-28519480D01*
X45231784Y-28440423D01*
X45079057Y-28399500D01*
X44920943Y-28399500D01*
X44768216Y-28440423D01*
X44631284Y-28519480D01*
X44519480Y-28631284D01*
X44440423Y-28768216D01*
X44399500Y-28920943D01*
X41600500Y-28920943D01*
X41559577Y-28768216D01*
X41480520Y-28631284D01*
X41368716Y-28519480D01*
X41231784Y-28440423D01*
X41079057Y-28399500D01*
X40920943Y-28399500D01*
X40768216Y-28440423D01*
X40631284Y-28519480D01*
X40519480Y-28631284D01*
X40440423Y-28768216D01*
X40399500Y-28920943D01*
X37600500Y-28920943D01*
X37559577Y-28768216D01*
X37480520Y-28631284D01*
X37368716Y-28519480D01*
X37231784Y-28440423D01*
X37079057Y-28399500D01*
X36920943Y-28399500D01*
X36768216Y-28440423D01*
X36631284Y-28519480D01*
X36519480Y-28631284D01*
X36440423Y-28768216D01*
X36399500Y-28920943D01*
X29600500Y-28920943D01*
X29559577Y-28768216D01*
X29480520Y-28631284D01*
X29368716Y-28519480D01*
X29231784Y-28440423D01*
X29079057Y-28399500D01*
X28920943Y-28399500D01*
X28768216Y-28440423D01*
X28631284Y-28519480D01*
X28519480Y-28631284D01*
X28440423Y-28768216D01*
X28399500Y-28920943D01*
X17600500Y-28920943D01*
X17559577Y-28768216D01*
X17480520Y-28631284D01*
X17368716Y-28519480D01*
X17231784Y-28440423D01*
X17079057Y-28399500D01*
X16920943Y-28399500D01*
X16768216Y-28440423D01*
X16631284Y-28519480D01*
X16519480Y-28631284D01*
X16440423Y-28768216D01*
X16399500Y-28920943D01*
X9600500Y-28920943D01*
X9559577Y-28768216D01*
X9480520Y-28631284D01*
X9368716Y-28519480D01*
X9231784Y-28440423D01*
X9079057Y-28399500D01*
X8920943Y-28399500D01*
X8768216Y-28440423D01*
X8631284Y-28519480D01*
X8519480Y-28631284D01*
X8440423Y-28768216D01*
X8399500Y-28920943D01*
X5600500Y-28920943D01*
X5559577Y-28768216D01*
X5480520Y-28631284D01*
X5368716Y-28519480D01*
X5231784Y-28440423D01*
X5079057Y-28399500D01*
X4920943Y-28399500D01*
X4768216Y-28440423D01*
X4631284Y-28519480D01*
X4519480Y-28631284D01*
X4440423Y-28768216D01*
X4399500Y-28920943D01*
X1600500Y-28920943D01*
X1559577Y-28768216D01*
X1480520Y-28631284D01*
X1368716Y-28519480D01*
X1231784Y-28440423D01*
X1079057Y-28399500D01*
X1073377Y-28397978D01*
X1022062Y-28364654D01*
X1000136Y-28307532D01*
X1000000Y-28302351D01*
X1000000Y-27545943D01*
X23349500Y-27545943D01*
X23349500Y-27704057D01*
X23390423Y-27856784D01*
X23469480Y-27993716D01*
X23581284Y-28105520D01*
X23718216Y-28184577D01*
X23870943Y-28225500D01*
X23870945Y-28225500D01*
X24029055Y-28225500D01*
X24029057Y-28225500D01*
X24181784Y-28184577D01*
X24318716Y-28105520D01*
X24430520Y-27993716D01*
X24458102Y-27945943D01*
X34449500Y-27945943D01*
X34449500Y-28104057D01*
X34490423Y-28256784D01*
X34569480Y-28393716D01*
X34681284Y-28505520D01*
X34818216Y-28584577D01*
X34970943Y-28625500D01*
X34970945Y-28625500D01*
X35129055Y-28625500D01*
X35129057Y-28625500D01*
X35281784Y-28584577D01*
X35418716Y-28505520D01*
X35530520Y-28393716D01*
X35609577Y-28256784D01*
X35650500Y-28104057D01*
X35650500Y-27945943D01*
X35609577Y-27793216D01*
X35530520Y-27656284D01*
X35418716Y-27544480D01*
X35281784Y-27465423D01*
X35129057Y-27424500D01*
X34970943Y-27424500D01*
X34818216Y-27465423D01*
X34681284Y-27544480D01*
X34569480Y-27656284D01*
X34490423Y-27793216D01*
X34449500Y-27945943D01*
X24458102Y-27945943D01*
X24509577Y-27856784D01*
X24550500Y-27704057D01*
X24550500Y-27545943D01*
X24509577Y-27393216D01*
X24430520Y-27256284D01*
X24318716Y-27144480D01*
X24181784Y-27065423D01*
X24029057Y-27024500D01*
X23870943Y-27024500D01*
X23718216Y-27065423D01*
X23581284Y-27144480D01*
X23469480Y-27256284D01*
X23390423Y-27393216D01*
X23349500Y-27545943D01*
X1000000Y-27545943D01*
X1000000Y-26045943D01*
X9849500Y-26045943D01*
X9849500Y-26204057D01*
X9890423Y-26356784D01*
X9969480Y-26493716D01*
X10081284Y-26605520D01*
X10218216Y-26684577D01*
X10370943Y-26725500D01*
X10370945Y-26725500D01*
X10529055Y-26725500D01*
X10529057Y-26725500D01*
X10681784Y-26684577D01*
X10818716Y-26605520D01*
X10930520Y-26493716D01*
X11009577Y-26356784D01*
X11045975Y-26220943D01*
X12249500Y-26220943D01*
X12249500Y-26379057D01*
X12290423Y-26531784D01*
X12369480Y-26668716D01*
X12481284Y-26780520D01*
X12618216Y-26859577D01*
X12770943Y-26900500D01*
X12770945Y-26900500D01*
X12929055Y-26900500D01*
X12929057Y-26900500D01*
X13081784Y-26859577D01*
X13218716Y-26780520D01*
X13330520Y-26668716D01*
X13409577Y-26531784D01*
X13450500Y-26379057D01*
X13450500Y-26220943D01*
X13409577Y-26068216D01*
X13330520Y-25931284D01*
X13218716Y-25819480D01*
X13122372Y-25763856D01*
X13081433Y-25718388D01*
X13075037Y-25657538D01*
X13105630Y-25604550D01*
X13146247Y-25582496D01*
X13231784Y-25559577D01*
X13368716Y-25480520D01*
X13480520Y-25368716D01*
X13559577Y-25231784D01*
X13600500Y-25079057D01*
X13600500Y-24920943D01*
X16399500Y-24920943D01*
X16399500Y-25079057D01*
X16440423Y-25231784D01*
X16519480Y-25368716D01*
X16631284Y-25480520D01*
X16768216Y-25559577D01*
X16920943Y-25600500D01*
X16920945Y-25600500D01*
X17079055Y-25600500D01*
X17079057Y-25600500D01*
X17231784Y-25559577D01*
X17368716Y-25480520D01*
X17480520Y-25368716D01*
X17559577Y-25231784D01*
X17600500Y-25079057D01*
X17600500Y-24920943D01*
X20399500Y-24920943D01*
X20399500Y-25079057D01*
X20440423Y-25231784D01*
X20519480Y-25368716D01*
X20631284Y-25480520D01*
X20768216Y-25559577D01*
X20920943Y-25600500D01*
X20920945Y-25600500D01*
X21079055Y-25600500D01*
X21079057Y-25600500D01*
X21231784Y-25559577D01*
X21368716Y-25480520D01*
X21480520Y-25368716D01*
X21559577Y-25231784D01*
X21600500Y-25079057D01*
X21600500Y-24920943D01*
X44399500Y-24920943D01*
X44399500Y-25079057D01*
X44440423Y-25231784D01*
X44519480Y-25368716D01*
X44631284Y-25480520D01*
X44768216Y-25559577D01*
X44920943Y-25600500D01*
X44920945Y-25600500D01*
X45079055Y-25600500D01*
X45079057Y-25600500D01*
X45231784Y-25559577D01*
X45368716Y-25480520D01*
X45480520Y-25368716D01*
X45559577Y-25231784D01*
X45600500Y-25079057D01*
X45600500Y-24920943D01*
X45559577Y-24768216D01*
X45480520Y-24631284D01*
X45368716Y-24519480D01*
X45231784Y-24440423D01*
X45079057Y-24399500D01*
X44920943Y-24399500D01*
X44768216Y-24440423D01*
X44631284Y-24519480D01*
X44519480Y-24631284D01*
X44440423Y-24768216D01*
X44399500Y-24920943D01*
X21600500Y-24920943D01*
X21559577Y-24768216D01*
X21480520Y-24631284D01*
X21368716Y-24519480D01*
X21231784Y-24440423D01*
X21079057Y-24399500D01*
X20920943Y-24399500D01*
X20768216Y-24440423D01*
X20631284Y-24519480D01*
X20519480Y-24631284D01*
X20440423Y-24768216D01*
X20399500Y-24920943D01*
X17600500Y-24920943D01*
X17559577Y-24768216D01*
X17480520Y-24631284D01*
X17368716Y-24519480D01*
X17231784Y-24440423D01*
X17079057Y-24399500D01*
X16920943Y-24399500D01*
X16768216Y-24440423D01*
X16631284Y-24519480D01*
X16519480Y-24631284D01*
X16440423Y-24768216D01*
X16399500Y-24920943D01*
X13600500Y-24920943D01*
X13559577Y-24768216D01*
X13480520Y-24631284D01*
X13368716Y-24519480D01*
X13231784Y-24440423D01*
X13079057Y-24399500D01*
X12920943Y-24399500D01*
X12768216Y-24440423D01*
X12631284Y-24519480D01*
X12519480Y-24631284D01*
X12440423Y-24768216D01*
X12399500Y-24920943D01*
X12399500Y-25079057D01*
X12440423Y-25231784D01*
X12519480Y-25368716D01*
X12631284Y-25480520D01*
X12727626Y-25536143D01*
X12768566Y-25581611D01*
X12774962Y-25642461D01*
X12744369Y-25695449D01*
X12703748Y-25717504D01*
X12618216Y-25740423D01*
X12481284Y-25819480D01*
X12369480Y-25931284D01*
X12290423Y-26068216D01*
X12249500Y-26220943D01*
X11045975Y-26220943D01*
X11050500Y-26204057D01*
X11050500Y-26045943D01*
X11009577Y-25893216D01*
X10930520Y-25756284D01*
X10818716Y-25644480D01*
X10681784Y-25565423D01*
X10529057Y-25524500D01*
X10370943Y-25524500D01*
X10218216Y-25565423D01*
X10081284Y-25644480D01*
X9969480Y-25756284D01*
X9890423Y-25893216D01*
X9849500Y-26045943D01*
X1000000Y-26045943D01*
X1000000Y-25697648D01*
X1018907Y-25639457D01*
X1068407Y-25603493D01*
X1073377Y-25602021D01*
X1079053Y-25600500D01*
X1079057Y-25600500D01*
X1231784Y-25559577D01*
X1368716Y-25480520D01*
X1480520Y-25368716D01*
X1559577Y-25231784D01*
X1600500Y-25079057D01*
X1600500Y-24920943D01*
X4399500Y-24920943D01*
X4399500Y-25079057D01*
X4440423Y-25231784D01*
X4519480Y-25368716D01*
X4631284Y-25480520D01*
X4768216Y-25559577D01*
X4920943Y-25600500D01*
X4920945Y-25600500D01*
X5079055Y-25600500D01*
X5079057Y-25600500D01*
X5231784Y-25559577D01*
X5368716Y-25480520D01*
X5480520Y-25368716D01*
X5559577Y-25231784D01*
X5600500Y-25079057D01*
X5600500Y-24920943D01*
X8399500Y-24920943D01*
X8399500Y-25079057D01*
X8440423Y-25231784D01*
X8519480Y-25368716D01*
X8631284Y-25480520D01*
X8768216Y-25559577D01*
X8920943Y-25600500D01*
X8920945Y-25600500D01*
X9079055Y-25600500D01*
X9079057Y-25600500D01*
X9231784Y-25559577D01*
X9368716Y-25480520D01*
X9480520Y-25368716D01*
X9559577Y-25231784D01*
X9600500Y-25079057D01*
X9600500Y-24920943D01*
X9559577Y-24768216D01*
X9480520Y-24631284D01*
X9368716Y-24519480D01*
X9231784Y-24440423D01*
X9079057Y-24399500D01*
X8920943Y-24399500D01*
X8768216Y-24440423D01*
X8631284Y-24519480D01*
X8519480Y-24631284D01*
X8440423Y-24768216D01*
X8399500Y-24920943D01*
X5600500Y-24920943D01*
X5559577Y-24768216D01*
X5480520Y-24631284D01*
X5368716Y-24519480D01*
X5231784Y-24440423D01*
X5079057Y-24399500D01*
X4920943Y-24399500D01*
X4768216Y-24440423D01*
X4631284Y-24519480D01*
X4519480Y-24631284D01*
X4440423Y-24768216D01*
X4399500Y-24920943D01*
X1600500Y-24920943D01*
X1559577Y-24768216D01*
X1480520Y-24631284D01*
X1368716Y-24519480D01*
X1231784Y-24440423D01*
X1079057Y-24399500D01*
X1073377Y-24397978D01*
X1022062Y-24364654D01*
X1000136Y-24307532D01*
X1000000Y-24302351D01*
X1000000Y-22460943D01*
X31879499Y-22460943D01*
X31879499Y-22619057D01*
X31920422Y-22771784D01*
X31999479Y-22908716D01*
X32111283Y-23020520D01*
X32248215Y-23099577D01*
X32400942Y-23140500D01*
X32400944Y-23140500D01*
X32559054Y-23140500D01*
X32559056Y-23140500D01*
X32711783Y-23099577D01*
X32848715Y-23020520D01*
X32960519Y-22908716D01*
X33039576Y-22771784D01*
X33080499Y-22619057D01*
X33080499Y-22460943D01*
X33039576Y-22308216D01*
X32960519Y-22171284D01*
X32848715Y-22059480D01*
X32711783Y-21980423D01*
X32559056Y-21939500D01*
X32400942Y-21939500D01*
X32248215Y-21980423D01*
X32111283Y-22059480D01*
X31999479Y-22171284D01*
X31920422Y-22308216D01*
X31879499Y-22460943D01*
X1000000Y-22460943D01*
X1000000Y-21697648D01*
X1018907Y-21639457D01*
X1068407Y-21603493D01*
X1073377Y-21602021D01*
X1079053Y-21600500D01*
X1079057Y-21600500D01*
X1231784Y-21559577D01*
X1368716Y-21480520D01*
X1480520Y-21368716D01*
X1559577Y-21231784D01*
X1600500Y-21079057D01*
X1600500Y-20920943D01*
X4399500Y-20920943D01*
X4399500Y-21079057D01*
X4440423Y-21231784D01*
X4519480Y-21368716D01*
X4631284Y-21480520D01*
X4768216Y-21559577D01*
X4920943Y-21600500D01*
X4920945Y-21600500D01*
X5079055Y-21600500D01*
X5079057Y-21600500D01*
X5231784Y-21559577D01*
X5368716Y-21480520D01*
X5480520Y-21368716D01*
X5559577Y-21231784D01*
X5600500Y-21079057D01*
X5600500Y-20920943D01*
X8399500Y-20920943D01*
X8399500Y-21079057D01*
X8440423Y-21231784D01*
X8519480Y-21368716D01*
X8631284Y-21480520D01*
X8768216Y-21559577D01*
X8920943Y-21600500D01*
X8920945Y-21600500D01*
X9079055Y-21600500D01*
X9079057Y-21600500D01*
X9231784Y-21559577D01*
X9368716Y-21480520D01*
X9480520Y-21368716D01*
X9559577Y-21231784D01*
X9600500Y-21079057D01*
X9600500Y-20920943D01*
X12399500Y-20920943D01*
X12399500Y-21079057D01*
X12440423Y-21231784D01*
X12519480Y-21368716D01*
X12631284Y-21480520D01*
X12768216Y-21559577D01*
X12920943Y-21600500D01*
X12920945Y-21600500D01*
X13079055Y-21600500D01*
X13079057Y-21600500D01*
X13231784Y-21559577D01*
X13368716Y-21480520D01*
X13480520Y-21368716D01*
X13559577Y-21231784D01*
X13600500Y-21079057D01*
X13600500Y-20920943D01*
X16399500Y-20920943D01*
X16399500Y-21079057D01*
X16440423Y-21231784D01*
X16519480Y-21368716D01*
X16631284Y-21480520D01*
X16768216Y-21559577D01*
X16920943Y-21600500D01*
X16920945Y-21600500D01*
X17079055Y-21600500D01*
X17079057Y-21600500D01*
X17231784Y-21559577D01*
X17368716Y-21480520D01*
X17480520Y-21368716D01*
X17559577Y-21231784D01*
X17600500Y-21079057D01*
X17600500Y-20920943D01*
X20399500Y-20920943D01*
X20399500Y-21079057D01*
X20440423Y-21231784D01*
X20519480Y-21368716D01*
X20631284Y-21480520D01*
X20768216Y-21559577D01*
X20920943Y-21600500D01*
X20920945Y-21600500D01*
X21079055Y-21600500D01*
X21079057Y-21600500D01*
X21231784Y-21559577D01*
X21368716Y-21480520D01*
X21480520Y-21368716D01*
X21559577Y-21231784D01*
X21600500Y-21079057D01*
X21600500Y-20920943D01*
X24399500Y-20920943D01*
X24399500Y-21079057D01*
X24440423Y-21231784D01*
X24519480Y-21368716D01*
X24631284Y-21480520D01*
X24768216Y-21559577D01*
X24920943Y-21600500D01*
X24920945Y-21600500D01*
X25079055Y-21600500D01*
X25079057Y-21600500D01*
X25231784Y-21559577D01*
X25368716Y-21480520D01*
X25480520Y-21368716D01*
X25559577Y-21231784D01*
X25600500Y-21079057D01*
X25600500Y-20920943D01*
X28399500Y-20920943D01*
X28399500Y-21079057D01*
X28440423Y-21231784D01*
X28519480Y-21368716D01*
X28631284Y-21480520D01*
X28768216Y-21559577D01*
X28920943Y-21600500D01*
X28920945Y-21600500D01*
X29079055Y-21600500D01*
X29079057Y-21600500D01*
X29231784Y-21559577D01*
X29368716Y-21480520D01*
X29480520Y-21368716D01*
X29559577Y-21231784D01*
X29600500Y-21079057D01*
X29600500Y-20920943D01*
X32399500Y-20920943D01*
X32399500Y-21079057D01*
X32440423Y-21231784D01*
X32519480Y-21368716D01*
X32631284Y-21480520D01*
X32768216Y-21559577D01*
X32920943Y-21600500D01*
X32920945Y-21600500D01*
X33079055Y-21600500D01*
X33079057Y-21600500D01*
X33231784Y-21559577D01*
X33368716Y-21480520D01*
X33480520Y-21368716D01*
X33559577Y-21231784D01*
X33600500Y-21079057D01*
X33600500Y-20920943D01*
X40399500Y-20920943D01*
X40399500Y-21079057D01*
X40440423Y-21231784D01*
X40519480Y-21368716D01*
X40631284Y-21480520D01*
X40768216Y-21559577D01*
X40920943Y-21600500D01*
X40920945Y-21600500D01*
X41079055Y-21600500D01*
X41079057Y-21600500D01*
X41231784Y-21559577D01*
X41368716Y-21480520D01*
X41480520Y-21368716D01*
X41559577Y-21231784D01*
X41600500Y-21079057D01*
X41600500Y-20920943D01*
X44399500Y-20920943D01*
X44399500Y-21079057D01*
X44440423Y-21231784D01*
X44519480Y-21368716D01*
X44631284Y-21480520D01*
X44768216Y-21559577D01*
X44920943Y-21600500D01*
X44920945Y-21600500D01*
X45079055Y-21600500D01*
X45079057Y-21600500D01*
X45231784Y-21559577D01*
X45368716Y-21480520D01*
X45480520Y-21368716D01*
X45559577Y-21231784D01*
X45600500Y-21079057D01*
X45600500Y-20920943D01*
X45559577Y-20768216D01*
X45480520Y-20631284D01*
X45368716Y-20519480D01*
X45231784Y-20440423D01*
X45079057Y-20399500D01*
X44920943Y-20399500D01*
X44768216Y-20440423D01*
X44631284Y-20519480D01*
X44519480Y-20631284D01*
X44440423Y-20768216D01*
X44399500Y-20920943D01*
X41600500Y-20920943D01*
X41559577Y-20768216D01*
X41480520Y-20631284D01*
X41368716Y-20519480D01*
X41231784Y-20440423D01*
X41079057Y-20399500D01*
X40920943Y-20399500D01*
X40768216Y-20440423D01*
X40631284Y-20519480D01*
X40519480Y-20631284D01*
X40440423Y-20768216D01*
X40399500Y-20920943D01*
X33600500Y-20920943D01*
X33559577Y-20768216D01*
X33480520Y-20631284D01*
X33368716Y-20519480D01*
X33231784Y-20440423D01*
X33079057Y-20399500D01*
X32920943Y-20399500D01*
X32768216Y-20440423D01*
X32631284Y-20519480D01*
X32519480Y-20631284D01*
X32440423Y-20768216D01*
X32399500Y-20920943D01*
X29600500Y-20920943D01*
X29559577Y-20768216D01*
X29480520Y-20631284D01*
X29368716Y-20519480D01*
X29231784Y-20440423D01*
X29079057Y-20399500D01*
X28920943Y-20399500D01*
X28768216Y-20440423D01*
X28631284Y-20519480D01*
X28519480Y-20631284D01*
X28440423Y-20768216D01*
X28399500Y-20920943D01*
X25600500Y-20920943D01*
X25559577Y-20768216D01*
X25480520Y-20631284D01*
X25368716Y-20519480D01*
X25231784Y-20440423D01*
X25079057Y-20399500D01*
X24920943Y-20399500D01*
X24768216Y-20440423D01*
X24631284Y-20519480D01*
X24519480Y-20631284D01*
X24440423Y-20768216D01*
X24399500Y-20920943D01*
X21600500Y-20920943D01*
X21559577Y-20768216D01*
X21480520Y-20631284D01*
X21368716Y-20519480D01*
X21231784Y-20440423D01*
X21079057Y-20399500D01*
X20920943Y-20399500D01*
X20768216Y-20440423D01*
X20631284Y-20519480D01*
X20519480Y-20631284D01*
X20440423Y-20768216D01*
X20399500Y-20920943D01*
X17600500Y-20920943D01*
X17559577Y-20768216D01*
X17480520Y-20631284D01*
X17368716Y-20519480D01*
X17231784Y-20440423D01*
X17079057Y-20399500D01*
X16920943Y-20399500D01*
X16768216Y-20440423D01*
X16631284Y-20519480D01*
X16519480Y-20631284D01*
X16440423Y-20768216D01*
X16399500Y-20920943D01*
X13600500Y-20920943D01*
X13559577Y-20768216D01*
X13480520Y-20631284D01*
X13368716Y-20519480D01*
X13231784Y-20440423D01*
X13079057Y-20399500D01*
X12920943Y-20399500D01*
X12768216Y-20440423D01*
X12631284Y-20519480D01*
X12519480Y-20631284D01*
X12440423Y-20768216D01*
X12399500Y-20920943D01*
X9600500Y-20920943D01*
X9559577Y-20768216D01*
X9480520Y-20631284D01*
X9368716Y-20519480D01*
X9231784Y-20440423D01*
X9079057Y-20399500D01*
X8920943Y-20399500D01*
X8768216Y-20440423D01*
X8631284Y-20519480D01*
X8519480Y-20631284D01*
X8440423Y-20768216D01*
X8399500Y-20920943D01*
X5600500Y-20920943D01*
X5559577Y-20768216D01*
X5480520Y-20631284D01*
X5368716Y-20519480D01*
X5231784Y-20440423D01*
X5079057Y-20399500D01*
X4920943Y-20399500D01*
X4768216Y-20440423D01*
X4631284Y-20519480D01*
X4519480Y-20631284D01*
X4440423Y-20768216D01*
X4399500Y-20920943D01*
X1600500Y-20920943D01*
X1559577Y-20768216D01*
X1480520Y-20631284D01*
X1368716Y-20519480D01*
X1231784Y-20440423D01*
X1079057Y-20399500D01*
X1073377Y-20397978D01*
X1022062Y-20364654D01*
X1000136Y-20307532D01*
X1000000Y-20302351D01*
X1000000Y-18530943D01*
X17999500Y-18530943D01*
X17999500Y-18689057D01*
X18040423Y-18841784D01*
X18119480Y-18978716D01*
X18231284Y-19090520D01*
X18368216Y-19169577D01*
X18520943Y-19210500D01*
X18520945Y-19210500D01*
X18679055Y-19210500D01*
X18679057Y-19210500D01*
X18831784Y-19169577D01*
X18968716Y-19090520D01*
X19080520Y-18978716D01*
X19159577Y-18841784D01*
X19200500Y-18689057D01*
X19200500Y-18530943D01*
X20799500Y-18530943D01*
X20799500Y-18689057D01*
X20840423Y-18841784D01*
X20919480Y-18978716D01*
X21031284Y-19090520D01*
X21168216Y-19169577D01*
X21320943Y-19210500D01*
X21320945Y-19210500D01*
X21479055Y-19210500D01*
X21479057Y-19210500D01*
X21631784Y-19169577D01*
X21768716Y-19090520D01*
X21880520Y-18978716D01*
X21959577Y-18841784D01*
X22000500Y-18689057D01*
X22000500Y-18530943D01*
X21959577Y-18378216D01*
X21880520Y-18241284D01*
X21768716Y-18129480D01*
X21631784Y-18050423D01*
X21479057Y-18009500D01*
X21320943Y-18009500D01*
X21168216Y-18050423D01*
X21031284Y-18129480D01*
X20919480Y-18241284D01*
X20840423Y-18378216D01*
X20799500Y-18530943D01*
X19200500Y-18530943D01*
X19159577Y-18378216D01*
X19080520Y-18241284D01*
X18968716Y-18129480D01*
X18831784Y-18050423D01*
X18679057Y-18009500D01*
X18520943Y-18009500D01*
X18368216Y-18050423D01*
X18231284Y-18129480D01*
X18119480Y-18241284D01*
X18040423Y-18378216D01*
X17999500Y-18530943D01*
X1000000Y-18530943D01*
X1000000Y-16920943D01*
X6399500Y-16920943D01*
X6399500Y-17079057D01*
X6440423Y-17231784D01*
X6519480Y-17368716D01*
X6631284Y-17480520D01*
X6768216Y-17559577D01*
X6920943Y-17600500D01*
X6920945Y-17600500D01*
X7079055Y-17600500D01*
X7079057Y-17600500D01*
X7231784Y-17559577D01*
X7368716Y-17480520D01*
X7480520Y-17368716D01*
X7559577Y-17231784D01*
X7600500Y-17079057D01*
X7600500Y-16920943D01*
X8399500Y-16920943D01*
X8399500Y-17079057D01*
X8440423Y-17231784D01*
X8519480Y-17368716D01*
X8631284Y-17480520D01*
X8768216Y-17559577D01*
X8920943Y-17600500D01*
X8920945Y-17600500D01*
X9079055Y-17600500D01*
X9079057Y-17600500D01*
X9231784Y-17559577D01*
X9368716Y-17480520D01*
X9480520Y-17368716D01*
X9559577Y-17231784D01*
X9600500Y-17079057D01*
X9600500Y-16920943D01*
X10399500Y-16920943D01*
X10399500Y-17079057D01*
X10440423Y-17231784D01*
X10519480Y-17368716D01*
X10631284Y-17480520D01*
X10768216Y-17559577D01*
X10920943Y-17600500D01*
X10920945Y-17600500D01*
X11079055Y-17600500D01*
X11079057Y-17600500D01*
X11231784Y-17559577D01*
X11368716Y-17480520D01*
X11480520Y-17368716D01*
X11559577Y-17231784D01*
X11600500Y-17079057D01*
X11600500Y-16920943D01*
X12399500Y-16920943D01*
X12399500Y-17079057D01*
X12440423Y-17231784D01*
X12519480Y-17368716D01*
X12631284Y-17480520D01*
X12768216Y-17559577D01*
X12920943Y-17600500D01*
X12920945Y-17600500D01*
X13079055Y-17600500D01*
X13079057Y-17600500D01*
X13231784Y-17559577D01*
X13368716Y-17480520D01*
X13480520Y-17368716D01*
X13559577Y-17231784D01*
X13600500Y-17079057D01*
X13600500Y-16920943D01*
X14399500Y-16920943D01*
X14399500Y-17079057D01*
X14440423Y-17231784D01*
X14519480Y-17368716D01*
X14631284Y-17480520D01*
X14768216Y-17559577D01*
X14920943Y-17600500D01*
X14920945Y-17600500D01*
X15079055Y-17600500D01*
X15079057Y-17600500D01*
X15231784Y-17559577D01*
X15368716Y-17480520D01*
X15480520Y-17368716D01*
X15559577Y-17231784D01*
X15600500Y-17079057D01*
X15600500Y-16920943D01*
X16399500Y-16920943D01*
X16399500Y-17079057D01*
X16440423Y-17231784D01*
X16519480Y-17368716D01*
X16631284Y-17480520D01*
X16768216Y-17559577D01*
X16920943Y-17600500D01*
X16920945Y-17600500D01*
X17079055Y-17600500D01*
X17079057Y-17600500D01*
X17231784Y-17559577D01*
X17368716Y-17480520D01*
X17480520Y-17368716D01*
X17559577Y-17231784D01*
X17600500Y-17079057D01*
X17600500Y-16920943D01*
X17559577Y-16768216D01*
X17480520Y-16631284D01*
X17368716Y-16519480D01*
X17368713Y-16519478D01*
X17335308Y-16500191D01*
X17335306Y-16500191D01*
X17231784Y-16440423D01*
X17159084Y-16420943D01*
X19149500Y-16420943D01*
X19149500Y-16579057D01*
X19190423Y-16731784D01*
X19269480Y-16868716D01*
X19381284Y-16980520D01*
X19518216Y-17059577D01*
X19670943Y-17100500D01*
X19670945Y-17100500D01*
X19829055Y-17100500D01*
X19829057Y-17100500D01*
X19981784Y-17059577D01*
X20118716Y-16980520D01*
X20178293Y-16920943D01*
X22399500Y-16920943D01*
X22399500Y-17079057D01*
X22440423Y-17231784D01*
X22519480Y-17368716D01*
X22631284Y-17480520D01*
X22768216Y-17559577D01*
X22920943Y-17600500D01*
X22920945Y-17600500D01*
X23079055Y-17600500D01*
X23079057Y-17600500D01*
X23231784Y-17559577D01*
X23368716Y-17480520D01*
X23480520Y-17368716D01*
X23559577Y-17231784D01*
X23600500Y-17079057D01*
X23600500Y-16920943D01*
X24399500Y-16920943D01*
X24399500Y-17079057D01*
X24440423Y-17231784D01*
X24519480Y-17368716D01*
X24631284Y-17480520D01*
X24768216Y-17559577D01*
X24920943Y-17600500D01*
X24920945Y-17600500D01*
X25079055Y-17600500D01*
X25079057Y-17600500D01*
X25231784Y-17559577D01*
X25368716Y-17480520D01*
X25480520Y-17368716D01*
X25559577Y-17231784D01*
X25600500Y-17079057D01*
X25600500Y-16920943D01*
X26399500Y-16920943D01*
X26399500Y-17079057D01*
X26440423Y-17231784D01*
X26519480Y-17368716D01*
X26631284Y-17480520D01*
X26768216Y-17559577D01*
X26920943Y-17600500D01*
X26920945Y-17600500D01*
X27079055Y-17600500D01*
X27079057Y-17600500D01*
X27231784Y-17559577D01*
X27368716Y-17480520D01*
X27480520Y-17368716D01*
X27559577Y-17231784D01*
X27600500Y-17079057D01*
X27600500Y-16920943D01*
X28399500Y-16920943D01*
X28399500Y-17079057D01*
X28440423Y-17231784D01*
X28519480Y-17368716D01*
X28631284Y-17480520D01*
X28768216Y-17559577D01*
X28920943Y-17600500D01*
X28920945Y-17600500D01*
X29079055Y-17600500D01*
X29079057Y-17600500D01*
X29231784Y-17559577D01*
X29368716Y-17480520D01*
X29480520Y-17368716D01*
X29559577Y-17231784D01*
X29600500Y-17079057D01*
X29600500Y-16920943D01*
X30399500Y-16920943D01*
X30399500Y-17079057D01*
X30440423Y-17231784D01*
X30519480Y-17368716D01*
X30631284Y-17480520D01*
X30768216Y-17559577D01*
X30920943Y-17600500D01*
X30920945Y-17600500D01*
X31079055Y-17600500D01*
X31079057Y-17600500D01*
X31231784Y-17559577D01*
X31368716Y-17480520D01*
X31480520Y-17368716D01*
X31559577Y-17231784D01*
X31600500Y-17079057D01*
X31600500Y-16920943D01*
X32399500Y-16920943D01*
X32399500Y-17079057D01*
X32440423Y-17231784D01*
X32519480Y-17368716D01*
X32631284Y-17480520D01*
X32768216Y-17559577D01*
X32920943Y-17600500D01*
X32920945Y-17600500D01*
X33079055Y-17600500D01*
X33079057Y-17600500D01*
X33231784Y-17559577D01*
X33368716Y-17480520D01*
X33480520Y-17368716D01*
X33559577Y-17231784D01*
X33600500Y-17079057D01*
X33600500Y-16920943D01*
X34399500Y-16920943D01*
X34399500Y-17079057D01*
X34440423Y-17231784D01*
X34519480Y-17368716D01*
X34631284Y-17480520D01*
X34768216Y-17559577D01*
X34920943Y-17600500D01*
X34920945Y-17600500D01*
X35079055Y-17600500D01*
X35079057Y-17600500D01*
X35231784Y-17559577D01*
X35368716Y-17480520D01*
X35480520Y-17368716D01*
X35559577Y-17231784D01*
X35600500Y-17079057D01*
X35600500Y-16920943D01*
X38399500Y-16920943D01*
X38399500Y-17079057D01*
X38440423Y-17231784D01*
X38519480Y-17368716D01*
X38631284Y-17480520D01*
X38768216Y-17559577D01*
X38920943Y-17600500D01*
X38920945Y-17600500D01*
X39079055Y-17600500D01*
X39079057Y-17600500D01*
X39231784Y-17559577D01*
X39368716Y-17480520D01*
X39480520Y-17368716D01*
X39559577Y-17231784D01*
X39600500Y-17079057D01*
X39600500Y-16920943D01*
X40399500Y-16920943D01*
X40399500Y-17079057D01*
X40440423Y-17231784D01*
X40519480Y-17368716D01*
X40631284Y-17480520D01*
X40768216Y-17559577D01*
X40920943Y-17600500D01*
X40920945Y-17600500D01*
X41079055Y-17600500D01*
X41079057Y-17600500D01*
X41191231Y-17570443D01*
X43774500Y-17570443D01*
X43774500Y-17728557D01*
X43815423Y-17881284D01*
X43894480Y-18018216D01*
X44006284Y-18130020D01*
X44143216Y-18209077D01*
X44295943Y-18250000D01*
X44295945Y-18250000D01*
X44454055Y-18250000D01*
X44454057Y-18250000D01*
X44606784Y-18209077D01*
X44743716Y-18130020D01*
X44855520Y-18018216D01*
X44934577Y-17881284D01*
X44975500Y-17728557D01*
X44975500Y-17570443D01*
X44934577Y-17417716D01*
X44855520Y-17280784D01*
X44743716Y-17168980D01*
X44606784Y-17089923D01*
X44454057Y-17049000D01*
X44295943Y-17049000D01*
X44143216Y-17089923D01*
X44006284Y-17168980D01*
X43894480Y-17280784D01*
X43815423Y-17417716D01*
X43774500Y-17570443D01*
X41191231Y-17570443D01*
X41231784Y-17559577D01*
X41368716Y-17480520D01*
X41480520Y-17368716D01*
X41559577Y-17231784D01*
X41600500Y-17079057D01*
X41600500Y-16920943D01*
X41559577Y-16768216D01*
X41480520Y-16631284D01*
X41368716Y-16519480D01*
X41231784Y-16440423D01*
X41079057Y-16399500D01*
X40920943Y-16399500D01*
X40768216Y-16440423D01*
X40631284Y-16519480D01*
X40519480Y-16631284D01*
X40440423Y-16768216D01*
X40399500Y-16920943D01*
X39600500Y-16920943D01*
X39559577Y-16768216D01*
X39480520Y-16631284D01*
X39368716Y-16519480D01*
X39231784Y-16440423D01*
X39079057Y-16399500D01*
X38920943Y-16399500D01*
X38768216Y-16440423D01*
X38631284Y-16519480D01*
X38519480Y-16631284D01*
X38440423Y-16768216D01*
X38399500Y-16920943D01*
X35600500Y-16920943D01*
X35559577Y-16768216D01*
X35480520Y-16631284D01*
X35368716Y-16519480D01*
X35231784Y-16440423D01*
X35079057Y-16399500D01*
X34920943Y-16399500D01*
X34768216Y-16440423D01*
X34631284Y-16519480D01*
X34519480Y-16631284D01*
X34440423Y-16768216D01*
X34399500Y-16920943D01*
X33600500Y-16920943D01*
X33559577Y-16768216D01*
X33480520Y-16631284D01*
X33368716Y-16519480D01*
X33231784Y-16440423D01*
X33079057Y-16399500D01*
X32920943Y-16399500D01*
X32768216Y-16440423D01*
X32631284Y-16519480D01*
X32519480Y-16631284D01*
X32440423Y-16768216D01*
X32399500Y-16920943D01*
X31600500Y-16920943D01*
X31559577Y-16768216D01*
X31480520Y-16631284D01*
X31368716Y-16519480D01*
X31231784Y-16440423D01*
X31079057Y-16399500D01*
X30920943Y-16399500D01*
X30768216Y-16440423D01*
X30631284Y-16519480D01*
X30519480Y-16631284D01*
X30440423Y-16768216D01*
X30399500Y-16920943D01*
X29600500Y-16920943D01*
X29559577Y-16768216D01*
X29480520Y-16631284D01*
X29368716Y-16519480D01*
X29231784Y-16440423D01*
X29079057Y-16399500D01*
X28920943Y-16399500D01*
X28768216Y-16440423D01*
X28631284Y-16519480D01*
X28519480Y-16631284D01*
X28440423Y-16768216D01*
X28399500Y-16920943D01*
X27600500Y-16920943D01*
X27559577Y-16768216D01*
X27480520Y-16631284D01*
X27368716Y-16519480D01*
X27231784Y-16440423D01*
X27079057Y-16399500D01*
X26920943Y-16399500D01*
X26768216Y-16440423D01*
X26631284Y-16519480D01*
X26519480Y-16631284D01*
X26440423Y-16768216D01*
X26399500Y-16920943D01*
X25600500Y-16920943D01*
X25559577Y-16768216D01*
X25480520Y-16631284D01*
X25368716Y-16519480D01*
X25231784Y-16440423D01*
X25079057Y-16399500D01*
X24920943Y-16399500D01*
X24768216Y-16440423D01*
X24631284Y-16519480D01*
X24519480Y-16631284D01*
X24440423Y-16768216D01*
X24399500Y-16920943D01*
X23600500Y-16920943D01*
X23559577Y-16768216D01*
X23480520Y-16631284D01*
X23368716Y-16519480D01*
X23231784Y-16440423D01*
X23079057Y-16399500D01*
X22920943Y-16399500D01*
X22768216Y-16440423D01*
X22631284Y-16519480D01*
X22519480Y-16631284D01*
X22440423Y-16768216D01*
X22399500Y-16920943D01*
X20178293Y-16920943D01*
X20230520Y-16868716D01*
X20309577Y-16731784D01*
X20350500Y-16579057D01*
X20350500Y-16420943D01*
X20309577Y-16268216D01*
X20253417Y-16170943D01*
X45035500Y-16170943D01*
X45035500Y-16329057D01*
X45076423Y-16481784D01*
X45155480Y-16618716D01*
X45267284Y-16730520D01*
X45404216Y-16809577D01*
X45556943Y-16850500D01*
X45556945Y-16850500D01*
X45715055Y-16850500D01*
X45715057Y-16850500D01*
X45867784Y-16809577D01*
X46004716Y-16730520D01*
X46116520Y-16618716D01*
X46195577Y-16481784D01*
X46236500Y-16329057D01*
X46236500Y-16170943D01*
X46559500Y-16170943D01*
X46559500Y-16329057D01*
X46600423Y-16481784D01*
X46679480Y-16618716D01*
X46791284Y-16730520D01*
X46928216Y-16809577D01*
X47080943Y-16850500D01*
X47080945Y-16850500D01*
X47239055Y-16850500D01*
X47239057Y-16850500D01*
X47391784Y-16809577D01*
X47528716Y-16730520D01*
X47640520Y-16618716D01*
X47719577Y-16481784D01*
X47760500Y-16329057D01*
X47760500Y-16170943D01*
X47719577Y-16018216D01*
X47640520Y-15881284D01*
X47528716Y-15769480D01*
X47391784Y-15690423D01*
X47239057Y-15649500D01*
X47080943Y-15649500D01*
X46928216Y-15690423D01*
X46791284Y-15769480D01*
X46679480Y-15881284D01*
X46600423Y-16018216D01*
X46559500Y-16170943D01*
X46236500Y-16170943D01*
X46195577Y-16018216D01*
X46116520Y-15881284D01*
X46004716Y-15769480D01*
X45867784Y-15690423D01*
X45715057Y-15649500D01*
X45556943Y-15649500D01*
X45404216Y-15690423D01*
X45267284Y-15769480D01*
X45155480Y-15881284D01*
X45076423Y-16018216D01*
X45035500Y-16170943D01*
X20253417Y-16170943D01*
X20230520Y-16131284D01*
X20118716Y-16019480D01*
X19981784Y-15940423D01*
X19829057Y-15899500D01*
X19670943Y-15899500D01*
X19518216Y-15940423D01*
X19381284Y-16019480D01*
X19269480Y-16131284D01*
X19190423Y-16268216D01*
X19149500Y-16420943D01*
X17159084Y-16420943D01*
X17079057Y-16399500D01*
X16920943Y-16399500D01*
X16768216Y-16440423D01*
X16631284Y-16519480D01*
X16519480Y-16631284D01*
X16440423Y-16768216D01*
X16399500Y-16920943D01*
X15600500Y-16920943D01*
X15559577Y-16768216D01*
X15480520Y-16631284D01*
X15368716Y-16519480D01*
X15231784Y-16440423D01*
X15079057Y-16399500D01*
X14920943Y-16399500D01*
X14768216Y-16440423D01*
X14631284Y-16519480D01*
X14519480Y-16631284D01*
X14440423Y-16768216D01*
X14399500Y-16920943D01*
X13600500Y-16920943D01*
X13559577Y-16768216D01*
X13480520Y-16631284D01*
X13368716Y-16519480D01*
X13231784Y-16440423D01*
X13079057Y-16399500D01*
X12920943Y-16399500D01*
X12768216Y-16440423D01*
X12631284Y-16519480D01*
X12519480Y-16631284D01*
X12440423Y-16768216D01*
X12399500Y-16920943D01*
X11600500Y-16920943D01*
X11559577Y-16768216D01*
X11480520Y-16631284D01*
X11368716Y-16519480D01*
X11231784Y-16440423D01*
X11079057Y-16399500D01*
X10920943Y-16399500D01*
X10768216Y-16440423D01*
X10631284Y-16519480D01*
X10519480Y-16631284D01*
X10440423Y-16768216D01*
X10399500Y-16920943D01*
X9600500Y-16920943D01*
X9559577Y-16768216D01*
X9480520Y-16631284D01*
X9368716Y-16519480D01*
X9231784Y-16440423D01*
X9079057Y-16399500D01*
X8920943Y-16399500D01*
X8768216Y-16440423D01*
X8631284Y-16519480D01*
X8519480Y-16631284D01*
X8440423Y-16768216D01*
X8399500Y-16920943D01*
X7600500Y-16920943D01*
X7559577Y-16768216D01*
X7480520Y-16631284D01*
X7368716Y-16519480D01*
X7231784Y-16440423D01*
X7079057Y-16399500D01*
X6920943Y-16399500D01*
X6768216Y-16440423D01*
X6631284Y-16519480D01*
X6519480Y-16631284D01*
X6440423Y-16768216D01*
X6399500Y-16920943D01*
X1000000Y-16920943D01*
X1000000Y-16916030D01*
X1018907Y-16857839D01*
X1068407Y-16821875D01*
X1124619Y-16820403D01*
X1236943Y-16850500D01*
X1236945Y-16850500D01*
X1395055Y-16850500D01*
X1395057Y-16850500D01*
X1547784Y-16809577D01*
X1684716Y-16730520D01*
X1796520Y-16618716D01*
X1875577Y-16481784D01*
X1916500Y-16329057D01*
X1916500Y-16170943D01*
X2239500Y-16170943D01*
X2239500Y-16329057D01*
X2280423Y-16481784D01*
X2359480Y-16618716D01*
X2471284Y-16730520D01*
X2608216Y-16809577D01*
X2760943Y-16850500D01*
X2760945Y-16850500D01*
X2919055Y-16850500D01*
X2919057Y-16850500D01*
X3071784Y-16809577D01*
X3208716Y-16730520D01*
X3320520Y-16618716D01*
X3399577Y-16481784D01*
X3440500Y-16329057D01*
X3440500Y-16170943D01*
X3763500Y-16170943D01*
X3763500Y-16329057D01*
X3804423Y-16481784D01*
X3883480Y-16618716D01*
X3995284Y-16730520D01*
X4132216Y-16809577D01*
X4284943Y-16850500D01*
X4284945Y-16850500D01*
X4443055Y-16850500D01*
X4443057Y-16850500D01*
X4595784Y-16809577D01*
X4732716Y-16730520D01*
X4844520Y-16618716D01*
X4923577Y-16481784D01*
X4964500Y-16329057D01*
X4964500Y-16170943D01*
X4923577Y-16018216D01*
X4844520Y-15881284D01*
X4732716Y-15769480D01*
X4595784Y-15690423D01*
X4443057Y-15649500D01*
X4284943Y-15649500D01*
X4132216Y-15690423D01*
X3995284Y-15769480D01*
X3883480Y-15881284D01*
X3804423Y-16018216D01*
X3763500Y-16170943D01*
X3440500Y-16170943D01*
X3399577Y-16018216D01*
X3320520Y-15881284D01*
X3208716Y-15769480D01*
X3071784Y-15690423D01*
X2919057Y-15649500D01*
X2760943Y-15649500D01*
X2608216Y-15690423D01*
X2471284Y-15769480D01*
X2359480Y-15881284D01*
X2280423Y-16018216D01*
X2239500Y-16170943D01*
X1916500Y-16170943D01*
X1875577Y-16018216D01*
X1796520Y-15881284D01*
X1684716Y-15769480D01*
X1547784Y-15690423D01*
X1395057Y-15649500D01*
X1236943Y-15649500D01*
X1124623Y-15679596D01*
X1063521Y-15676393D01*
X1015971Y-15637888D01*
X1000000Y-15583969D01*
X1000000Y-14920943D01*
X6399500Y-14920943D01*
X6399500Y-15079057D01*
X6440423Y-15231784D01*
X6519480Y-15368716D01*
X6631284Y-15480520D01*
X6768216Y-15559577D01*
X6920943Y-15600500D01*
X6920945Y-15600500D01*
X7079055Y-15600500D01*
X7079057Y-15600500D01*
X7231784Y-15559577D01*
X7368716Y-15480520D01*
X7480520Y-15368716D01*
X7559577Y-15231784D01*
X7600500Y-15079057D01*
X7600500Y-14920943D01*
X8399500Y-14920943D01*
X8399500Y-15079057D01*
X8440423Y-15231784D01*
X8519480Y-15368716D01*
X8631284Y-15480520D01*
X8768216Y-15559577D01*
X8920943Y-15600500D01*
X8920945Y-15600500D01*
X9079055Y-15600500D01*
X9079057Y-15600500D01*
X9231784Y-15559577D01*
X9368716Y-15480520D01*
X9480520Y-15368716D01*
X9559577Y-15231784D01*
X9600500Y-15079057D01*
X9600500Y-14920943D01*
X10399500Y-14920943D01*
X10399500Y-15079057D01*
X10440423Y-15231784D01*
X10519480Y-15368716D01*
X10631284Y-15480520D01*
X10768216Y-15559577D01*
X10920943Y-15600500D01*
X10920945Y-15600500D01*
X11079055Y-15600500D01*
X11079057Y-15600500D01*
X11231784Y-15559577D01*
X11368716Y-15480520D01*
X11480520Y-15368716D01*
X11559577Y-15231784D01*
X11600500Y-15079057D01*
X11600500Y-14920943D01*
X12399500Y-14920943D01*
X12399500Y-15079057D01*
X12440423Y-15231784D01*
X12519480Y-15368716D01*
X12631284Y-15480520D01*
X12768216Y-15559577D01*
X12920943Y-15600500D01*
X12920945Y-15600500D01*
X13079055Y-15600500D01*
X13079057Y-15600500D01*
X13231784Y-15559577D01*
X13368716Y-15480520D01*
X13480520Y-15368716D01*
X13559577Y-15231784D01*
X13600500Y-15079057D01*
X13600500Y-14920943D01*
X14399500Y-14920943D01*
X14399500Y-15079057D01*
X14440423Y-15231784D01*
X14519480Y-15368716D01*
X14631284Y-15480520D01*
X14768216Y-15559577D01*
X14920943Y-15600500D01*
X14920945Y-15600500D01*
X15079055Y-15600500D01*
X15079057Y-15600500D01*
X15231784Y-15559577D01*
X15368716Y-15480520D01*
X15480520Y-15368716D01*
X15559577Y-15231784D01*
X15600500Y-15079057D01*
X15600500Y-14920943D01*
X16399500Y-14920943D01*
X16399500Y-15079057D01*
X16440423Y-15231784D01*
X16519480Y-15368716D01*
X16631284Y-15480520D01*
X16768216Y-15559577D01*
X16920943Y-15600500D01*
X16920945Y-15600500D01*
X17079055Y-15600500D01*
X17079057Y-15600500D01*
X17231784Y-15559577D01*
X17368716Y-15480520D01*
X17480520Y-15368716D01*
X17559577Y-15231784D01*
X17600500Y-15079057D01*
X17600500Y-14920943D01*
X17559577Y-14768216D01*
X17548481Y-14748997D01*
X17535761Y-14689151D01*
X17560648Y-14633256D01*
X17613636Y-14602663D01*
X17634219Y-14600500D01*
X17713055Y-14600500D01*
X17713057Y-14600500D01*
X17865784Y-14559577D01*
X18002716Y-14480520D01*
X18114520Y-14368716D01*
X18193577Y-14231784D01*
X18234500Y-14079057D01*
X18234500Y-13920943D01*
X18193577Y-13768216D01*
X18114520Y-13631284D01*
X18036237Y-13553001D01*
X18008462Y-13498487D01*
X18018033Y-13438055D01*
X18036236Y-13412999D01*
X18080520Y-13368716D01*
X18159577Y-13231784D01*
X18200500Y-13079057D01*
X18200500Y-12920943D01*
X19499500Y-12920943D01*
X19499500Y-13079057D01*
X19540423Y-13231784D01*
X19619480Y-13368716D01*
X19731284Y-13480520D01*
X19731286Y-13480521D01*
X19826477Y-13535480D01*
X19867418Y-13580949D01*
X19873814Y-13641799D01*
X19862714Y-13670715D01*
X19806423Y-13768214D01*
X19792974Y-13818407D01*
X19765500Y-13920943D01*
X19765500Y-14079057D01*
X19806423Y-14231784D01*
X19885480Y-14368716D01*
X19997284Y-14480520D01*
X20134216Y-14559577D01*
X20286943Y-14600500D01*
X20286945Y-14600500D01*
X20365781Y-14600500D01*
X20423972Y-14619407D01*
X20459936Y-14668907D01*
X20459936Y-14730093D01*
X20451520Y-14748994D01*
X20440423Y-14768216D01*
X20399500Y-14920943D01*
X20399500Y-15079057D01*
X20440423Y-15231784D01*
X20519480Y-15368716D01*
X20631284Y-15480520D01*
X20768216Y-15559577D01*
X20920943Y-15600500D01*
X20920945Y-15600500D01*
X21079055Y-15600500D01*
X21079057Y-15600500D01*
X21231784Y-15559577D01*
X21368716Y-15480520D01*
X21480520Y-15368716D01*
X21559577Y-15231784D01*
X21600500Y-15079057D01*
X21600500Y-14920943D01*
X22399500Y-14920943D01*
X22399500Y-15079057D01*
X22440423Y-15231784D01*
X22519480Y-15368716D01*
X22631284Y-15480520D01*
X22768216Y-15559577D01*
X22920943Y-15600500D01*
X22920945Y-15600500D01*
X23079055Y-15600500D01*
X23079057Y-15600500D01*
X23231784Y-15559577D01*
X23368716Y-15480520D01*
X23480520Y-15368716D01*
X23559577Y-15231784D01*
X23600500Y-15079057D01*
X23600500Y-14920943D01*
X24399500Y-14920943D01*
X24399500Y-15079057D01*
X24440423Y-15231784D01*
X24519480Y-15368716D01*
X24631284Y-15480520D01*
X24768216Y-15559577D01*
X24920943Y-15600500D01*
X24920945Y-15600500D01*
X25079055Y-15600500D01*
X25079057Y-15600500D01*
X25231784Y-15559577D01*
X25368716Y-15480520D01*
X25480520Y-15368716D01*
X25559577Y-15231784D01*
X25600500Y-15079057D01*
X25600500Y-14920943D01*
X26399500Y-14920943D01*
X26399500Y-15079057D01*
X26440423Y-15231784D01*
X26519480Y-15368716D01*
X26631284Y-15480520D01*
X26768216Y-15559577D01*
X26920943Y-15600500D01*
X26920945Y-15600500D01*
X27079055Y-15600500D01*
X27079057Y-15600500D01*
X27231784Y-15559577D01*
X27368716Y-15480520D01*
X27480520Y-15368716D01*
X27559577Y-15231784D01*
X27600500Y-15079057D01*
X27600500Y-14920943D01*
X28399500Y-14920943D01*
X28399500Y-15079057D01*
X28440423Y-15231784D01*
X28519480Y-15368716D01*
X28631284Y-15480520D01*
X28768216Y-15559577D01*
X28920943Y-15600500D01*
X28920945Y-15600500D01*
X29079055Y-15600500D01*
X29079057Y-15600500D01*
X29231784Y-15559577D01*
X29368716Y-15480520D01*
X29480520Y-15368716D01*
X29559577Y-15231784D01*
X29600500Y-15079057D01*
X29600500Y-14920943D01*
X30399500Y-14920943D01*
X30399500Y-15079057D01*
X30440423Y-15231784D01*
X30519480Y-15368716D01*
X30631284Y-15480520D01*
X30768216Y-15559577D01*
X30920943Y-15600500D01*
X30920945Y-15600500D01*
X31079055Y-15600500D01*
X31079057Y-15600500D01*
X31231784Y-15559577D01*
X31368716Y-15480520D01*
X31480520Y-15368716D01*
X31559577Y-15231784D01*
X31600500Y-15079057D01*
X31600500Y-14920943D01*
X32399500Y-14920943D01*
X32399500Y-15079057D01*
X32440423Y-15231784D01*
X32519480Y-15368716D01*
X32631284Y-15480520D01*
X32768216Y-15559577D01*
X32920943Y-15600500D01*
X32920945Y-15600500D01*
X33079055Y-15600500D01*
X33079057Y-15600500D01*
X33231784Y-15559577D01*
X33368716Y-15480520D01*
X33480520Y-15368716D01*
X33559577Y-15231784D01*
X33600500Y-15079057D01*
X33600500Y-14920943D01*
X34399500Y-14920943D01*
X34399500Y-15079057D01*
X34440423Y-15231784D01*
X34519480Y-15368716D01*
X34631284Y-15480520D01*
X34768216Y-15559577D01*
X34920943Y-15600500D01*
X34920945Y-15600500D01*
X35079055Y-15600500D01*
X35079057Y-15600500D01*
X35231784Y-15559577D01*
X35368716Y-15480520D01*
X35480520Y-15368716D01*
X35559577Y-15231784D01*
X35600500Y-15079057D01*
X35600500Y-14920943D01*
X38399500Y-14920943D01*
X38399500Y-15079057D01*
X38440423Y-15231784D01*
X38519480Y-15368716D01*
X38631284Y-15480520D01*
X38768216Y-15559577D01*
X38920943Y-15600500D01*
X38920945Y-15600500D01*
X39079055Y-15600500D01*
X39079057Y-15600500D01*
X39231784Y-15559577D01*
X39368716Y-15480520D01*
X39480520Y-15368716D01*
X39559577Y-15231784D01*
X39600500Y-15079057D01*
X39600500Y-14920943D01*
X40399500Y-14920943D01*
X40399500Y-15079057D01*
X40440423Y-15231784D01*
X40519480Y-15368716D01*
X40631284Y-15480520D01*
X40768216Y-15559577D01*
X40920943Y-15600500D01*
X40920945Y-15600500D01*
X41079055Y-15600500D01*
X41079057Y-15600500D01*
X41231784Y-15559577D01*
X41368716Y-15480520D01*
X41480520Y-15368716D01*
X41559577Y-15231784D01*
X41600500Y-15079057D01*
X41600500Y-14920943D01*
X41559577Y-14768216D01*
X41542099Y-14737943D01*
X43649500Y-14737943D01*
X43649500Y-14896057D01*
X43690423Y-15048784D01*
X43769480Y-15185716D01*
X43881284Y-15297520D01*
X44018216Y-15376577D01*
X44170943Y-15417500D01*
X44170945Y-15417500D01*
X44329055Y-15417500D01*
X44329057Y-15417500D01*
X44481784Y-15376577D01*
X44618716Y-15297520D01*
X44730520Y-15185716D01*
X44809577Y-15048784D01*
X44850500Y-14896057D01*
X44850500Y-14737943D01*
X44809577Y-14585216D01*
X44730520Y-14448284D01*
X44618716Y-14336480D01*
X44481784Y-14257423D01*
X44329057Y-14216500D01*
X44170943Y-14216500D01*
X44018216Y-14257423D01*
X43881284Y-14336480D01*
X43769480Y-14448284D01*
X43690423Y-14585216D01*
X43649500Y-14737943D01*
X41542099Y-14737943D01*
X41480520Y-14631284D01*
X41368716Y-14519480D01*
X41231784Y-14440423D01*
X41079057Y-14399500D01*
X40920943Y-14399500D01*
X40768216Y-14440423D01*
X40631284Y-14519480D01*
X40519480Y-14631284D01*
X40440423Y-14768216D01*
X40399500Y-14920943D01*
X39600500Y-14920943D01*
X39559577Y-14768216D01*
X39480520Y-14631284D01*
X39368716Y-14519480D01*
X39231784Y-14440423D01*
X39079057Y-14399500D01*
X38920943Y-14399500D01*
X38768216Y-14440423D01*
X38631284Y-14519480D01*
X38519480Y-14631284D01*
X38440423Y-14768216D01*
X38399500Y-14920943D01*
X35600500Y-14920943D01*
X35559577Y-14768216D01*
X35480520Y-14631284D01*
X35368716Y-14519480D01*
X35231784Y-14440423D01*
X35079057Y-14399500D01*
X34920943Y-14399500D01*
X34768216Y-14440423D01*
X34631284Y-14519480D01*
X34519480Y-14631284D01*
X34440423Y-14768216D01*
X34399500Y-14920943D01*
X33600500Y-14920943D01*
X33559577Y-14768216D01*
X33480520Y-14631284D01*
X33368716Y-14519480D01*
X33231784Y-14440423D01*
X33079057Y-14399500D01*
X32920943Y-14399500D01*
X32768216Y-14440423D01*
X32631284Y-14519480D01*
X32519480Y-14631284D01*
X32440423Y-14768216D01*
X32399500Y-14920943D01*
X31600500Y-14920943D01*
X31559577Y-14768216D01*
X31480520Y-14631284D01*
X31368716Y-14519480D01*
X31231784Y-14440423D01*
X31079057Y-14399500D01*
X30920943Y-14399500D01*
X30768216Y-14440423D01*
X30631284Y-14519480D01*
X30519480Y-14631284D01*
X30440423Y-14768216D01*
X30399500Y-14920943D01*
X29600500Y-14920943D01*
X29559577Y-14768216D01*
X29480520Y-14631284D01*
X29368716Y-14519480D01*
X29231784Y-14440423D01*
X29079057Y-14399500D01*
X28920943Y-14399500D01*
X28768216Y-14440423D01*
X28631284Y-14519480D01*
X28519480Y-14631284D01*
X28440423Y-14768216D01*
X28399500Y-14920943D01*
X27600500Y-14920943D01*
X27559577Y-14768216D01*
X27480520Y-14631284D01*
X27368716Y-14519480D01*
X27231784Y-14440423D01*
X27079057Y-14399500D01*
X26920943Y-14399500D01*
X26768216Y-14440423D01*
X26631284Y-14519480D01*
X26519480Y-14631284D01*
X26440423Y-14768216D01*
X26399500Y-14920943D01*
X25600500Y-14920943D01*
X25559577Y-14768216D01*
X25480520Y-14631284D01*
X25368716Y-14519480D01*
X25231784Y-14440423D01*
X25079057Y-14399500D01*
X24920943Y-14399500D01*
X24768216Y-14440423D01*
X24631284Y-14519480D01*
X24519480Y-14631284D01*
X24440423Y-14768216D01*
X24399500Y-14920943D01*
X23600500Y-14920943D01*
X23559577Y-14768216D01*
X23480520Y-14631284D01*
X23368716Y-14519480D01*
X23231784Y-14440423D01*
X23079057Y-14399500D01*
X22920943Y-14399500D01*
X22768216Y-14440423D01*
X22631284Y-14519480D01*
X22519480Y-14631284D01*
X22440423Y-14768216D01*
X22399500Y-14920943D01*
X21600500Y-14920943D01*
X21559577Y-14768216D01*
X21480520Y-14631284D01*
X21368716Y-14519480D01*
X21231784Y-14440423D01*
X21079057Y-14399500D01*
X21000219Y-14399500D01*
X20942028Y-14380593D01*
X20906064Y-14331093D01*
X20906064Y-14269907D01*
X20914479Y-14251005D01*
X20925577Y-14231784D01*
X20966500Y-14079057D01*
X20966500Y-13920943D01*
X20925577Y-13768216D01*
X20846520Y-13631284D01*
X20734716Y-13519480D01*
X20734713Y-13519478D01*
X20639522Y-13464519D01*
X20598581Y-13419050D01*
X20592185Y-13358199D01*
X20603286Y-13329283D01*
X20619202Y-13301716D01*
X20659577Y-13231784D01*
X20700500Y-13079057D01*
X20700500Y-12920943D01*
X20999500Y-12920943D01*
X20999500Y-13079057D01*
X21040423Y-13231784D01*
X21119480Y-13368716D01*
X21231284Y-13480520D01*
X21368216Y-13559577D01*
X21520943Y-13600500D01*
X21520945Y-13600500D01*
X21679055Y-13600500D01*
X21679057Y-13600500D01*
X21831784Y-13559577D01*
X21968716Y-13480520D01*
X22080520Y-13368716D01*
X22159577Y-13231784D01*
X22200500Y-13079057D01*
X22200500Y-12920943D01*
X22499500Y-12920943D01*
X22499500Y-13079057D01*
X22540423Y-13231784D01*
X22619480Y-13368716D01*
X22731284Y-13480520D01*
X22868216Y-13559577D01*
X23020943Y-13600500D01*
X23020945Y-13600500D01*
X23179055Y-13600500D01*
X23179057Y-13600500D01*
X23331784Y-13559577D01*
X23468716Y-13480520D01*
X23580520Y-13368716D01*
X23659577Y-13231784D01*
X23700500Y-13079057D01*
X23700500Y-12920943D01*
X23999500Y-12920943D01*
X23999500Y-13079057D01*
X24040423Y-13231784D01*
X24119480Y-13368716D01*
X24231284Y-13480520D01*
X24368216Y-13559577D01*
X24520943Y-13600500D01*
X24520945Y-13600500D01*
X24679055Y-13600500D01*
X24679057Y-13600500D01*
X24831784Y-13559577D01*
X24968716Y-13480520D01*
X25080520Y-13368716D01*
X25159577Y-13231784D01*
X25200500Y-13079057D01*
X25200500Y-12920943D01*
X25499500Y-12920943D01*
X25499500Y-13079057D01*
X25540423Y-13231784D01*
X25619480Y-13368716D01*
X25731284Y-13480520D01*
X25868216Y-13559577D01*
X26020943Y-13600500D01*
X26020945Y-13600500D01*
X26179055Y-13600500D01*
X26179057Y-13600500D01*
X26331784Y-13559577D01*
X26468716Y-13480520D01*
X26580520Y-13368716D01*
X26659577Y-13231784D01*
X26700500Y-13079057D01*
X26700500Y-12920943D01*
X26999500Y-12920943D01*
X26999500Y-13079057D01*
X27040423Y-13231784D01*
X27119480Y-13368716D01*
X27231284Y-13480520D01*
X27368216Y-13559577D01*
X27520943Y-13600500D01*
X27520945Y-13600500D01*
X27679055Y-13600500D01*
X27679057Y-13600500D01*
X27831784Y-13559577D01*
X27968716Y-13480520D01*
X28080520Y-13368716D01*
X28159577Y-13231784D01*
X28200500Y-13079057D01*
X28200500Y-12920943D01*
X28499500Y-12920943D01*
X28499500Y-13079057D01*
X28540423Y-13231784D01*
X28619480Y-13368716D01*
X28731284Y-13480520D01*
X28868216Y-13559577D01*
X29020943Y-13600500D01*
X29020945Y-13600500D01*
X29179055Y-13600500D01*
X29179057Y-13600500D01*
X29331784Y-13559577D01*
X29468716Y-13480520D01*
X29580520Y-13368716D01*
X29659577Y-13231784D01*
X29700500Y-13079057D01*
X29700500Y-12920943D01*
X29999500Y-12920943D01*
X29999500Y-13079057D01*
X30040423Y-13231784D01*
X30119480Y-13368716D01*
X30231284Y-13480520D01*
X30368216Y-13559577D01*
X30520943Y-13600500D01*
X30520945Y-13600500D01*
X30679055Y-13600500D01*
X30679057Y-13600500D01*
X30831784Y-13559577D01*
X30968716Y-13480520D01*
X31080520Y-13368716D01*
X31159577Y-13231784D01*
X31200500Y-13079057D01*
X31200500Y-12920943D01*
X31499500Y-12920943D01*
X31499500Y-13079057D01*
X31540423Y-13231784D01*
X31619480Y-13368716D01*
X31731284Y-13480520D01*
X31868216Y-13559577D01*
X32020943Y-13600500D01*
X32020945Y-13600500D01*
X32179055Y-13600500D01*
X32179057Y-13600500D01*
X32331784Y-13559577D01*
X32468716Y-13480520D01*
X32580520Y-13368716D01*
X32659577Y-13231784D01*
X32700500Y-13079057D01*
X32700500Y-12920943D01*
X32999500Y-12920943D01*
X32999500Y-13079057D01*
X33040423Y-13231784D01*
X33119480Y-13368716D01*
X33231284Y-13480520D01*
X33368216Y-13559577D01*
X33520943Y-13600500D01*
X33520945Y-13600500D01*
X33679055Y-13600500D01*
X33679057Y-13600500D01*
X33831784Y-13559577D01*
X33968716Y-13480520D01*
X34080520Y-13368716D01*
X34159577Y-13231784D01*
X34200500Y-13079057D01*
X34200500Y-12920943D01*
X34499500Y-12920943D01*
X34499500Y-13079057D01*
X34540423Y-13231784D01*
X34619480Y-13368716D01*
X34731284Y-13480520D01*
X34868216Y-13559577D01*
X35020943Y-13600500D01*
X35020945Y-13600500D01*
X35179055Y-13600500D01*
X35179057Y-13600500D01*
X35331784Y-13559577D01*
X35468716Y-13480520D01*
X35580520Y-13368716D01*
X35659577Y-13231784D01*
X35700500Y-13079057D01*
X35700500Y-12920943D01*
X35999500Y-12920943D01*
X35999500Y-13079057D01*
X36040423Y-13231784D01*
X36119480Y-13368716D01*
X36231284Y-13480520D01*
X36368216Y-13559577D01*
X36520943Y-13600500D01*
X36520945Y-13600500D01*
X36679055Y-13600500D01*
X36679057Y-13600500D01*
X36831784Y-13559577D01*
X36968716Y-13480520D01*
X37080520Y-13368716D01*
X37159577Y-13231784D01*
X37200500Y-13079057D01*
X37200500Y-12920943D01*
X37499500Y-12920943D01*
X37499500Y-13079057D01*
X37540423Y-13231784D01*
X37619480Y-13368716D01*
X37731284Y-13480520D01*
X37868216Y-13559577D01*
X38020943Y-13600500D01*
X38020945Y-13600500D01*
X38179055Y-13600500D01*
X38179057Y-13600500D01*
X38331784Y-13559577D01*
X38468716Y-13480520D01*
X38580520Y-13368716D01*
X38659577Y-13231784D01*
X38700500Y-13079057D01*
X38700500Y-12920943D01*
X38999500Y-12920943D01*
X38999500Y-13079057D01*
X39040423Y-13231784D01*
X39119480Y-13368716D01*
X39231284Y-13480520D01*
X39368216Y-13559577D01*
X39520943Y-13600500D01*
X39520945Y-13600500D01*
X39679055Y-13600500D01*
X39679057Y-13600500D01*
X39831784Y-13559577D01*
X39968716Y-13480520D01*
X40080520Y-13368716D01*
X40159577Y-13231784D01*
X40200500Y-13079057D01*
X40200500Y-12920943D01*
X40499500Y-12920943D01*
X40499500Y-13079057D01*
X40540423Y-13231784D01*
X40619480Y-13368716D01*
X40731284Y-13480520D01*
X40868216Y-13559577D01*
X41020943Y-13600500D01*
X41020945Y-13600500D01*
X41179055Y-13600500D01*
X41179057Y-13600500D01*
X41331784Y-13559577D01*
X41468716Y-13480520D01*
X41580520Y-13368716D01*
X41659577Y-13231784D01*
X41700500Y-13079057D01*
X41700500Y-12920943D01*
X41999500Y-12920943D01*
X41999500Y-13079057D01*
X42040423Y-13231784D01*
X42119480Y-13368716D01*
X42231284Y-13480520D01*
X42368216Y-13559577D01*
X42520943Y-13600500D01*
X42520945Y-13600500D01*
X42679055Y-13600500D01*
X42679057Y-13600500D01*
X42831784Y-13559577D01*
X42968716Y-13480520D01*
X43080520Y-13368716D01*
X43159577Y-13231784D01*
X43200500Y-13079057D01*
X43200500Y-12920943D01*
X43159577Y-12768216D01*
X43080520Y-12631284D01*
X42968716Y-12519480D01*
X42831784Y-12440423D01*
X42679057Y-12399500D01*
X42520943Y-12399500D01*
X42368216Y-12440423D01*
X42231284Y-12519480D01*
X42119480Y-12631284D01*
X42040423Y-12768216D01*
X41999500Y-12920943D01*
X41700500Y-12920943D01*
X41659577Y-12768216D01*
X41580520Y-12631284D01*
X41468716Y-12519480D01*
X41331784Y-12440423D01*
X41179057Y-12399500D01*
X41020943Y-12399500D01*
X40868216Y-12440423D01*
X40731284Y-12519480D01*
X40619480Y-12631284D01*
X40540423Y-12768216D01*
X40499500Y-12920943D01*
X40200500Y-12920943D01*
X40159577Y-12768216D01*
X40080520Y-12631284D01*
X39968716Y-12519480D01*
X39831784Y-12440423D01*
X39679057Y-12399500D01*
X39520943Y-12399500D01*
X39368216Y-12440423D01*
X39231284Y-12519480D01*
X39119480Y-12631284D01*
X39040423Y-12768216D01*
X38999500Y-12920943D01*
X38700500Y-12920943D01*
X38659577Y-12768216D01*
X38580520Y-12631284D01*
X38468716Y-12519480D01*
X38331784Y-12440423D01*
X38179057Y-12399500D01*
X38020943Y-12399500D01*
X37868216Y-12440423D01*
X37731284Y-12519480D01*
X37619480Y-12631284D01*
X37540423Y-12768216D01*
X37499500Y-12920943D01*
X37200500Y-12920943D01*
X37159577Y-12768216D01*
X37080520Y-12631284D01*
X36968716Y-12519480D01*
X36831784Y-12440423D01*
X36679057Y-12399500D01*
X36520943Y-12399500D01*
X36368216Y-12440423D01*
X36231284Y-12519480D01*
X36119480Y-12631284D01*
X36040423Y-12768216D01*
X35999500Y-12920943D01*
X35700500Y-12920943D01*
X35659577Y-12768216D01*
X35580520Y-12631284D01*
X35468716Y-12519480D01*
X35331784Y-12440423D01*
X35179057Y-12399500D01*
X35020943Y-12399500D01*
X34868216Y-12440423D01*
X34731284Y-12519480D01*
X34619480Y-12631284D01*
X34540423Y-12768216D01*
X34499500Y-12920943D01*
X34200500Y-12920943D01*
X34159577Y-12768216D01*
X34080520Y-12631284D01*
X33968716Y-12519480D01*
X33831784Y-12440423D01*
X33679057Y-12399500D01*
X33520943Y-12399500D01*
X33368216Y-12440423D01*
X33231284Y-12519480D01*
X33119480Y-12631284D01*
X33040423Y-12768216D01*
X32999500Y-12920943D01*
X32700500Y-12920943D01*
X32659577Y-12768216D01*
X32580520Y-12631284D01*
X32468716Y-12519480D01*
X32331784Y-12440423D01*
X32179057Y-12399500D01*
X32020943Y-12399500D01*
X31868216Y-12440423D01*
X31731284Y-12519480D01*
X31619480Y-12631284D01*
X31540423Y-12768216D01*
X31499500Y-12920943D01*
X31200500Y-12920943D01*
X31159577Y-12768216D01*
X31080520Y-12631284D01*
X30968716Y-12519480D01*
X30831784Y-12440423D01*
X30679057Y-12399500D01*
X30520943Y-12399500D01*
X30368216Y-12440423D01*
X30231284Y-12519480D01*
X30119480Y-12631284D01*
X30040423Y-12768216D01*
X29999500Y-12920943D01*
X29700500Y-12920943D01*
X29659577Y-12768216D01*
X29580520Y-12631284D01*
X29468716Y-12519480D01*
X29331784Y-12440423D01*
X29179057Y-12399500D01*
X29020943Y-12399500D01*
X28868216Y-12440423D01*
X28731284Y-12519480D01*
X28619480Y-12631284D01*
X28540423Y-12768216D01*
X28499500Y-12920943D01*
X28200500Y-12920943D01*
X28159577Y-12768216D01*
X28080520Y-12631284D01*
X27968716Y-12519480D01*
X27831784Y-12440423D01*
X27679057Y-12399500D01*
X27520943Y-12399500D01*
X27368216Y-12440423D01*
X27231284Y-12519480D01*
X27119480Y-12631284D01*
X27040423Y-12768216D01*
X26999500Y-12920943D01*
X26700500Y-12920943D01*
X26659577Y-12768216D01*
X26580520Y-12631284D01*
X26468716Y-12519480D01*
X26331784Y-12440423D01*
X26179057Y-12399500D01*
X26020943Y-12399500D01*
X25868216Y-12440423D01*
X25731284Y-12519480D01*
X25619480Y-12631284D01*
X25540423Y-12768216D01*
X25499500Y-12920943D01*
X25200500Y-12920943D01*
X25159577Y-12768216D01*
X25080520Y-12631284D01*
X24968716Y-12519480D01*
X24831784Y-12440423D01*
X24679057Y-12399500D01*
X24520943Y-12399500D01*
X24368216Y-12440423D01*
X24231284Y-12519480D01*
X24119480Y-12631284D01*
X24040423Y-12768216D01*
X23999500Y-12920943D01*
X23700500Y-12920943D01*
X23659577Y-12768216D01*
X23580520Y-12631284D01*
X23468716Y-12519480D01*
X23331784Y-12440423D01*
X23179057Y-12399500D01*
X23020943Y-12399500D01*
X22868216Y-12440423D01*
X22731284Y-12519480D01*
X22619480Y-12631284D01*
X22540423Y-12768216D01*
X22499500Y-12920943D01*
X22200500Y-12920943D01*
X22159577Y-12768216D01*
X22080520Y-12631284D01*
X21968716Y-12519480D01*
X21831784Y-12440423D01*
X21679057Y-12399500D01*
X21520943Y-12399500D01*
X21368216Y-12440423D01*
X21231284Y-12519480D01*
X21119480Y-12631284D01*
X21040423Y-12768216D01*
X20999500Y-12920943D01*
X20700500Y-12920943D01*
X20659577Y-12768216D01*
X20580520Y-12631284D01*
X20468716Y-12519480D01*
X20331784Y-12440423D01*
X20179057Y-12399500D01*
X20020943Y-12399500D01*
X19868216Y-12440423D01*
X19731284Y-12519480D01*
X19619480Y-12631284D01*
X19540423Y-12768216D01*
X19499500Y-12920943D01*
X18200500Y-12920943D01*
X18159577Y-12768216D01*
X18080520Y-12631284D01*
X17968716Y-12519480D01*
X17831784Y-12440423D01*
X17679057Y-12399500D01*
X17520943Y-12399500D01*
X17368216Y-12440423D01*
X17231284Y-12519480D01*
X17119480Y-12631284D01*
X17040423Y-12768216D01*
X16999500Y-12920943D01*
X16999500Y-13079057D01*
X17040423Y-13231784D01*
X17119480Y-13368716D01*
X17197762Y-13446998D01*
X17225538Y-13501513D01*
X17215967Y-13561945D01*
X17197763Y-13587000D01*
X17153480Y-13631284D01*
X17074423Y-13768216D01*
X17033500Y-13920943D01*
X17033500Y-14079057D01*
X17074423Y-14231784D01*
X17085518Y-14251002D01*
X17098239Y-14310849D01*
X17073352Y-14366744D01*
X17020364Y-14397337D01*
X16999781Y-14399500D01*
X16920943Y-14399500D01*
X16768216Y-14440423D01*
X16631284Y-14519480D01*
X16519480Y-14631284D01*
X16440423Y-14768216D01*
X16399500Y-14920943D01*
X15600500Y-14920943D01*
X15559577Y-14768216D01*
X15480520Y-14631284D01*
X15368716Y-14519480D01*
X15231784Y-14440423D01*
X15079057Y-14399500D01*
X14920943Y-14399500D01*
X14768216Y-14440423D01*
X14631284Y-14519480D01*
X14519480Y-14631284D01*
X14440423Y-14768216D01*
X14399500Y-14920943D01*
X13600500Y-14920943D01*
X13559577Y-14768216D01*
X13480520Y-14631284D01*
X13368716Y-14519480D01*
X13231784Y-14440423D01*
X13079057Y-14399500D01*
X12920943Y-14399500D01*
X12768216Y-14440423D01*
X12631284Y-14519480D01*
X12519480Y-14631284D01*
X12440423Y-14768216D01*
X12399500Y-14920943D01*
X11600500Y-14920943D01*
X11559577Y-14768216D01*
X11480520Y-14631284D01*
X11368716Y-14519480D01*
X11231784Y-14440423D01*
X11079057Y-14399500D01*
X10920943Y-14399500D01*
X10768216Y-14440423D01*
X10631284Y-14519480D01*
X10519480Y-14631284D01*
X10440423Y-14768216D01*
X10399500Y-14920943D01*
X9600500Y-14920943D01*
X9559577Y-14768216D01*
X9480520Y-14631284D01*
X9368716Y-14519480D01*
X9231784Y-14440423D01*
X9079057Y-14399500D01*
X8920943Y-14399500D01*
X8768216Y-14440423D01*
X8631284Y-14519480D01*
X8519480Y-14631284D01*
X8440423Y-14768216D01*
X8399500Y-14920943D01*
X7600500Y-14920943D01*
X7559577Y-14768216D01*
X7480520Y-14631284D01*
X7368716Y-14519480D01*
X7231784Y-14440423D01*
X7079057Y-14399500D01*
X6920943Y-14399500D01*
X6768216Y-14440423D01*
X6631284Y-14519480D01*
X6519480Y-14631284D01*
X6440423Y-14768216D01*
X6399500Y-14920943D01*
X1000000Y-14920943D01*
X1000000Y-14791030D01*
X1018907Y-14732839D01*
X1068407Y-14696875D01*
X1124619Y-14695403D01*
X1236943Y-14725500D01*
X1236945Y-14725500D01*
X1395055Y-14725500D01*
X1395057Y-14725500D01*
X1547784Y-14684577D01*
X1684716Y-14605520D01*
X1796520Y-14493716D01*
X1875577Y-14356784D01*
X1916500Y-14204057D01*
X1916500Y-14045943D01*
X1875577Y-13893216D01*
X1875572Y-13893208D01*
X1873094Y-13887222D01*
X1875977Y-13886027D01*
X1865906Y-13838654D01*
X1890791Y-13782758D01*
X1943779Y-13752164D01*
X1964364Y-13750000D01*
X2191636Y-13750000D01*
X2249827Y-13768907D01*
X2285791Y-13818407D01*
X2285791Y-13879593D01*
X2282473Y-13887042D01*
X2282906Y-13887222D01*
X2280423Y-13893214D01*
X2280423Y-13893216D01*
X2239500Y-14045943D01*
X2239500Y-14204057D01*
X2280423Y-14356784D01*
X2359480Y-14493716D01*
X2471284Y-14605520D01*
X2608216Y-14684577D01*
X2760943Y-14725500D01*
X2760945Y-14725500D01*
X2919055Y-14725500D01*
X2919057Y-14725500D01*
X3071784Y-14684577D01*
X3208716Y-14605520D01*
X3320520Y-14493716D01*
X3399577Y-14356784D01*
X3440500Y-14204057D01*
X3440500Y-14045943D01*
X3399577Y-13893216D01*
X3399572Y-13893208D01*
X3397094Y-13887222D01*
X3399977Y-13886027D01*
X3389906Y-13838654D01*
X3414791Y-13782758D01*
X3467779Y-13752164D01*
X3488364Y-13750000D01*
X3715636Y-13750000D01*
X3773827Y-13768907D01*
X3809791Y-13818407D01*
X3809791Y-13879593D01*
X3806473Y-13887042D01*
X3806906Y-13887222D01*
X3804423Y-13893214D01*
X3804423Y-13893216D01*
X3763500Y-14045943D01*
X3763500Y-14204057D01*
X3804423Y-14356784D01*
X3883480Y-14493716D01*
X3995284Y-14605520D01*
X4132216Y-14684577D01*
X4284943Y-14725500D01*
X4284945Y-14725500D01*
X4443055Y-14725500D01*
X4443057Y-14725500D01*
X4595784Y-14684577D01*
X4732716Y-14605520D01*
X4844520Y-14493716D01*
X4923577Y-14356784D01*
X4964500Y-14204057D01*
X4964500Y-14045943D01*
X4923577Y-13893216D01*
X4923572Y-13893208D01*
X4921094Y-13887222D01*
X4923977Y-13886027D01*
X4913906Y-13838654D01*
X4938791Y-13782758D01*
X4991779Y-13752164D01*
X5012364Y-13750000D01*
X5379999Y-13750000D01*
X5380000Y-13750000D01*
X5380000Y-13468243D01*
X5398907Y-13410052D01*
X5448407Y-13374088D01*
X5509593Y-13374088D01*
X5549001Y-13398237D01*
X5631284Y-13480520D01*
X5768216Y-13559577D01*
X5920943Y-13600500D01*
X5920945Y-13600500D01*
X6079055Y-13600500D01*
X6079057Y-13600500D01*
X6231784Y-13559577D01*
X6368716Y-13480520D01*
X6480520Y-13368716D01*
X6559577Y-13231784D01*
X6600500Y-13079057D01*
X6600500Y-12920943D01*
X6849500Y-12920943D01*
X6849500Y-13079057D01*
X6890423Y-13231784D01*
X6969480Y-13368716D01*
X7081284Y-13480520D01*
X7218216Y-13559577D01*
X7370943Y-13600500D01*
X7370945Y-13600500D01*
X7529055Y-13600500D01*
X7529057Y-13600500D01*
X7681784Y-13559577D01*
X7818716Y-13480520D01*
X7930520Y-13368716D01*
X8009577Y-13231784D01*
X8050500Y-13079057D01*
X8050500Y-12920943D01*
X8299500Y-12920943D01*
X8299500Y-13079057D01*
X8340423Y-13231784D01*
X8419480Y-13368716D01*
X8531284Y-13480520D01*
X8668216Y-13559577D01*
X8820943Y-13600500D01*
X8820945Y-13600500D01*
X8979055Y-13600500D01*
X8979057Y-13600500D01*
X9131784Y-13559577D01*
X9268716Y-13480520D01*
X9380520Y-13368716D01*
X9459577Y-13231784D01*
X9500500Y-13079057D01*
X9500500Y-12920943D01*
X9749500Y-12920943D01*
X9749500Y-13079057D01*
X9790423Y-13231784D01*
X9869480Y-13368716D01*
X9981284Y-13480520D01*
X10118216Y-13559577D01*
X10270943Y-13600500D01*
X10270945Y-13600500D01*
X10429055Y-13600500D01*
X10429057Y-13600500D01*
X10581784Y-13559577D01*
X10718716Y-13480520D01*
X10830520Y-13368716D01*
X10909577Y-13231784D01*
X10950500Y-13079057D01*
X10950500Y-12920943D01*
X11249500Y-12920943D01*
X11249500Y-13079057D01*
X11290423Y-13231784D01*
X11369480Y-13368716D01*
X11481284Y-13480520D01*
X11618216Y-13559577D01*
X11770943Y-13600500D01*
X11770945Y-13600500D01*
X11929055Y-13600500D01*
X11929057Y-13600500D01*
X12081784Y-13559577D01*
X12218716Y-13480520D01*
X12330520Y-13368716D01*
X12339049Y-13353943D01*
X13649500Y-13353943D01*
X13649500Y-13512057D01*
X13690423Y-13664784D01*
X13769480Y-13801716D01*
X13881284Y-13913520D01*
X14018216Y-13992577D01*
X14170943Y-14033500D01*
X14170945Y-14033500D01*
X14329055Y-14033500D01*
X14329057Y-14033500D01*
X14481784Y-13992577D01*
X14618716Y-13913520D01*
X14730520Y-13801716D01*
X14809577Y-13664784D01*
X14850500Y-13512057D01*
X14850500Y-13420943D01*
X15399500Y-13420943D01*
X15399500Y-13579057D01*
X15440423Y-13731784D01*
X15519480Y-13868716D01*
X15631284Y-13980520D01*
X15768216Y-14059577D01*
X15920943Y-14100500D01*
X15920945Y-14100500D01*
X16079055Y-14100500D01*
X16079057Y-14100500D01*
X16231784Y-14059577D01*
X16368716Y-13980520D01*
X16480520Y-13868716D01*
X16559577Y-13731784D01*
X16600500Y-13579057D01*
X16600500Y-13420943D01*
X16559577Y-13268216D01*
X16480520Y-13131284D01*
X16368716Y-13019480D01*
X16231784Y-12940423D01*
X16079057Y-12899500D01*
X15920943Y-12899500D01*
X15768216Y-12940423D01*
X15631284Y-13019480D01*
X15519480Y-13131284D01*
X15440423Y-13268216D01*
X15399500Y-13420943D01*
X14850500Y-13420943D01*
X14850500Y-13353943D01*
X14809577Y-13201216D01*
X14730520Y-13064284D01*
X14618716Y-12952480D01*
X14481784Y-12873423D01*
X14329057Y-12832500D01*
X14170943Y-12832500D01*
X14018216Y-12873423D01*
X13881284Y-12952480D01*
X13769480Y-13064284D01*
X13690423Y-13201216D01*
X13649500Y-13353943D01*
X12339049Y-13353943D01*
X12409577Y-13231784D01*
X12450500Y-13079057D01*
X12450500Y-12920943D01*
X12409577Y-12768216D01*
X12330520Y-12631284D01*
X12218716Y-12519480D01*
X12081784Y-12440423D01*
X11929057Y-12399500D01*
X11770943Y-12399500D01*
X11618216Y-12440423D01*
X11481284Y-12519480D01*
X11369480Y-12631284D01*
X11290423Y-12768216D01*
X11249500Y-12920943D01*
X10950500Y-12920943D01*
X10909577Y-12768216D01*
X10830520Y-12631284D01*
X10718716Y-12519480D01*
X10581784Y-12440423D01*
X10429057Y-12399500D01*
X10270943Y-12399500D01*
X10118216Y-12440423D01*
X9981284Y-12519480D01*
X9869480Y-12631284D01*
X9790423Y-12768216D01*
X9749500Y-12920943D01*
X9500500Y-12920943D01*
X9459577Y-12768216D01*
X9380520Y-12631284D01*
X9268716Y-12519480D01*
X9131784Y-12440423D01*
X8979057Y-12399500D01*
X8820943Y-12399500D01*
X8668216Y-12440423D01*
X8531284Y-12519480D01*
X8419480Y-12631284D01*
X8340423Y-12768216D01*
X8299500Y-12920943D01*
X8050500Y-12920943D01*
X8009577Y-12768216D01*
X7930520Y-12631284D01*
X7818716Y-12519480D01*
X7681784Y-12440423D01*
X7529057Y-12399500D01*
X7370943Y-12399500D01*
X7218216Y-12440423D01*
X7081284Y-12519480D01*
X6969480Y-12631284D01*
X6890423Y-12768216D01*
X6849500Y-12920943D01*
X6600500Y-12920943D01*
X6559577Y-12768216D01*
X6480520Y-12631284D01*
X6368716Y-12519480D01*
X6231784Y-12440423D01*
X6079057Y-12399500D01*
X5920943Y-12399500D01*
X5768216Y-12440423D01*
X5631284Y-12519480D01*
X5549001Y-12601762D01*
X5494487Y-12629538D01*
X5434055Y-12619967D01*
X5390790Y-12576702D01*
X5380000Y-12531757D01*
X5380000Y-11468243D01*
X5398907Y-11410052D01*
X5448407Y-11374088D01*
X5509593Y-11374088D01*
X5549001Y-11398237D01*
X5631284Y-11480520D01*
X5768216Y-11559577D01*
X5920943Y-11600500D01*
X5920945Y-11600500D01*
X6079055Y-11600500D01*
X6079057Y-11600500D01*
X6231784Y-11559577D01*
X6368716Y-11480520D01*
X6480520Y-11368716D01*
X6559577Y-11231784D01*
X6600500Y-11079057D01*
X6600500Y-10920943D01*
X6849500Y-10920943D01*
X6849500Y-11079057D01*
X6890423Y-11231784D01*
X6969480Y-11368716D01*
X7081284Y-11480520D01*
X7218216Y-11559577D01*
X7370943Y-11600500D01*
X7370945Y-11600500D01*
X7529055Y-11600500D01*
X7529057Y-11600500D01*
X7681784Y-11559577D01*
X7818716Y-11480520D01*
X7930520Y-11368716D01*
X8009577Y-11231784D01*
X8050500Y-11079057D01*
X8050500Y-10920943D01*
X8299500Y-10920943D01*
X8299500Y-11079057D01*
X8340423Y-11231784D01*
X8419480Y-11368716D01*
X8531284Y-11480520D01*
X8668216Y-11559577D01*
X8820943Y-11600500D01*
X8820945Y-11600500D01*
X8979055Y-11600500D01*
X8979057Y-11600500D01*
X9131784Y-11559577D01*
X9268716Y-11480520D01*
X9380520Y-11368716D01*
X9459577Y-11231784D01*
X9500500Y-11079057D01*
X9500500Y-10920943D01*
X9749500Y-10920943D01*
X9749500Y-11079057D01*
X9790423Y-11231784D01*
X9869480Y-11368716D01*
X9981284Y-11480520D01*
X10118216Y-11559577D01*
X10270943Y-11600500D01*
X10270945Y-11600500D01*
X10429055Y-11600500D01*
X10429057Y-11600500D01*
X10581784Y-11559577D01*
X10718716Y-11480520D01*
X10830520Y-11368716D01*
X10909577Y-11231784D01*
X10950500Y-11079057D01*
X10950500Y-10920943D01*
X11249500Y-10920943D01*
X11249500Y-11079057D01*
X11290423Y-11231784D01*
X11369480Y-11368716D01*
X11481284Y-11480520D01*
X11618216Y-11559577D01*
X11770943Y-11600500D01*
X11770945Y-11600500D01*
X11929055Y-11600500D01*
X11929057Y-11600500D01*
X12081784Y-11559577D01*
X12218716Y-11480520D01*
X12330520Y-11368716D01*
X12409577Y-11231784D01*
X12450500Y-11079057D01*
X12450500Y-10920943D01*
X12409577Y-10768216D01*
X12330520Y-10631284D01*
X12218716Y-10519480D01*
X12081784Y-10440423D01*
X11929057Y-10399500D01*
X11770943Y-10399500D01*
X11618216Y-10440423D01*
X11481284Y-10519480D01*
X11369480Y-10631284D01*
X11290423Y-10768216D01*
X11249500Y-10920943D01*
X10950500Y-10920943D01*
X10909577Y-10768216D01*
X10830520Y-10631284D01*
X10718716Y-10519480D01*
X10581784Y-10440423D01*
X10429057Y-10399500D01*
X10270943Y-10399500D01*
X10118216Y-10440423D01*
X9981284Y-10519480D01*
X9869480Y-10631284D01*
X9790423Y-10768216D01*
X9749500Y-10920943D01*
X9500500Y-10920943D01*
X9459577Y-10768216D01*
X9380520Y-10631284D01*
X9268716Y-10519480D01*
X9131784Y-10440423D01*
X8979057Y-10399500D01*
X8820943Y-10399500D01*
X8668216Y-10440423D01*
X8531284Y-10519480D01*
X8419480Y-10631284D01*
X8340423Y-10768216D01*
X8299500Y-10920943D01*
X8050500Y-10920943D01*
X8009577Y-10768216D01*
X7930520Y-10631284D01*
X7818716Y-10519480D01*
X7681784Y-10440423D01*
X7529057Y-10399500D01*
X7370943Y-10399500D01*
X7218216Y-10440423D01*
X7081284Y-10519480D01*
X6969480Y-10631284D01*
X6890423Y-10768216D01*
X6849500Y-10920943D01*
X6600500Y-10920943D01*
X6559577Y-10768216D01*
X6480520Y-10631284D01*
X6368716Y-10519480D01*
X6231784Y-10440423D01*
X6079057Y-10399500D01*
X5920943Y-10399500D01*
X5768216Y-10440423D01*
X5631284Y-10519480D01*
X5549001Y-10601762D01*
X5494487Y-10629538D01*
X5434055Y-10619967D01*
X5390790Y-10576702D01*
X5380000Y-10531757D01*
X5380000Y-10250001D01*
X5380000Y-10250000D01*
X5379999Y-10250000D01*
X5012364Y-10250000D01*
X4954173Y-10231093D01*
X4918209Y-10181593D01*
X4918209Y-10120407D01*
X4921526Y-10112957D01*
X4921094Y-10112778D01*
X4923571Y-10106793D01*
X4923577Y-10106784D01*
X4964500Y-9954057D01*
X4964500Y-9795943D01*
X4923577Y-9643216D01*
X4844520Y-9506284D01*
X4732716Y-9394480D01*
X4595784Y-9315423D01*
X4443057Y-9274500D01*
X4284943Y-9274500D01*
X4132216Y-9315423D01*
X3995284Y-9394480D01*
X3883480Y-9506284D01*
X3804423Y-9643216D01*
X3763500Y-9795943D01*
X3763500Y-9954057D01*
X3804423Y-10106784D01*
X3804424Y-10106785D01*
X3806906Y-10112778D01*
X3804022Y-10113972D01*
X3814094Y-10161346D01*
X3789209Y-10217242D01*
X3736221Y-10247836D01*
X3715636Y-10250000D01*
X3488364Y-10250000D01*
X3430173Y-10231093D01*
X3394209Y-10181593D01*
X3394209Y-10120407D01*
X3397526Y-10112957D01*
X3397094Y-10112778D01*
X3399571Y-10106793D01*
X3399577Y-10106784D01*
X3440500Y-9954057D01*
X3440500Y-9795943D01*
X3399577Y-9643216D01*
X3320520Y-9506284D01*
X3208716Y-9394480D01*
X3071784Y-9315423D01*
X2919057Y-9274500D01*
X2760943Y-9274500D01*
X2608216Y-9315423D01*
X2471284Y-9394480D01*
X2359480Y-9506284D01*
X2280423Y-9643216D01*
X2239500Y-9795943D01*
X2239500Y-9954057D01*
X2280423Y-10106784D01*
X2280424Y-10106785D01*
X2282906Y-10112778D01*
X2280022Y-10113972D01*
X2290094Y-10161346D01*
X2265209Y-10217242D01*
X2212221Y-10247836D01*
X2191636Y-10250000D01*
X1964364Y-10250000D01*
X1906173Y-10231093D01*
X1870209Y-10181593D01*
X1870209Y-10120407D01*
X1873526Y-10112957D01*
X1873094Y-10112778D01*
X1875571Y-10106793D01*
X1875577Y-10106784D01*
X1916500Y-9954057D01*
X1916500Y-9795943D01*
X1875577Y-9643216D01*
X1796520Y-9506284D01*
X1684716Y-9394480D01*
X1547784Y-9315423D01*
X1395057Y-9274500D01*
X1236943Y-9274500D01*
X1124623Y-9304596D01*
X1063521Y-9301393D01*
X1015971Y-9262888D01*
X1000000Y-9208969D01*
X1000000Y-8920943D01*
X6399500Y-8920943D01*
X6399500Y-9079057D01*
X6440423Y-9231784D01*
X6519480Y-9368716D01*
X6631284Y-9480520D01*
X6768216Y-9559577D01*
X6920943Y-9600500D01*
X6920945Y-9600500D01*
X7079055Y-9600500D01*
X7079057Y-9600500D01*
X7231784Y-9559577D01*
X7368716Y-9480520D01*
X7480520Y-9368716D01*
X7559577Y-9231784D01*
X7600500Y-9079057D01*
X7600500Y-8920943D01*
X8399500Y-8920943D01*
X8399500Y-9079057D01*
X8440423Y-9231784D01*
X8519480Y-9368716D01*
X8631284Y-9480520D01*
X8768216Y-9559577D01*
X8920943Y-9600500D01*
X8920945Y-9600500D01*
X9079055Y-9600500D01*
X9079057Y-9600500D01*
X9231784Y-9559577D01*
X9368716Y-9480520D01*
X9480520Y-9368716D01*
X9559577Y-9231784D01*
X9600500Y-9079057D01*
X9600500Y-8920943D01*
X10399500Y-8920943D01*
X10399500Y-9079057D01*
X10440423Y-9231784D01*
X10519480Y-9368716D01*
X10631284Y-9480520D01*
X10768216Y-9559577D01*
X10920943Y-9600500D01*
X10920945Y-9600500D01*
X11079055Y-9600500D01*
X11079057Y-9600500D01*
X11231784Y-9559577D01*
X11368716Y-9480520D01*
X11480520Y-9368716D01*
X11559577Y-9231784D01*
X11600500Y-9079057D01*
X11600500Y-8920943D01*
X12399500Y-8920943D01*
X12399500Y-9079057D01*
X12440423Y-9231784D01*
X12519480Y-9368716D01*
X12631284Y-9480520D01*
X12768216Y-9559577D01*
X12920943Y-9600500D01*
X12920945Y-9600500D01*
X13079055Y-9600500D01*
X13079057Y-9600500D01*
X13231784Y-9559577D01*
X13368716Y-9480520D01*
X13480520Y-9368716D01*
X13559577Y-9231784D01*
X13600500Y-9079057D01*
X13600500Y-8920943D01*
X13559577Y-8768216D01*
X13555378Y-8760943D01*
X13966200Y-8760943D01*
X13966200Y-8919057D01*
X14007123Y-9071784D01*
X14086180Y-9208716D01*
X14141212Y-9263748D01*
X14168988Y-9318263D01*
X14159417Y-9378695D01*
X14141213Y-9403750D01*
X14086180Y-9458784D01*
X14007123Y-9595716D01*
X13966200Y-9748443D01*
X13966200Y-9906557D01*
X14007123Y-10059284D01*
X14086180Y-10196216D01*
X14141212Y-10251248D01*
X14168988Y-10305763D01*
X14159417Y-10366195D01*
X14141213Y-10391250D01*
X14086180Y-10446284D01*
X14007123Y-10583216D01*
X13966200Y-10735943D01*
X13966200Y-10894057D01*
X14007123Y-11046784D01*
X14086180Y-11183716D01*
X14197984Y-11295520D01*
X14334916Y-11374577D01*
X14487643Y-11415500D01*
X14487645Y-11415500D01*
X14645755Y-11415500D01*
X14645757Y-11415500D01*
X14798484Y-11374577D01*
X14935416Y-11295520D01*
X14935420Y-11295515D01*
X14939731Y-11292208D01*
X14997407Y-11271783D01*
X15056073Y-11289160D01*
X15060269Y-11292208D01*
X15064583Y-11295519D01*
X15064584Y-11295520D01*
X15201516Y-11374577D01*
X15354243Y-11415500D01*
X15354245Y-11415500D01*
X15512355Y-11415500D01*
X15512357Y-11415500D01*
X15665084Y-11374577D01*
X15802016Y-11295520D01*
X15913820Y-11183716D01*
X15992877Y-11046784D01*
X16026596Y-10920943D01*
X16999500Y-10920943D01*
X16999500Y-11079057D01*
X17040423Y-11231784D01*
X17119480Y-11368716D01*
X17231284Y-11480520D01*
X17368216Y-11559577D01*
X17520943Y-11600500D01*
X17520945Y-11600500D01*
X17679055Y-11600500D01*
X17679057Y-11600500D01*
X17831784Y-11559577D01*
X17968716Y-11480520D01*
X18080520Y-11368716D01*
X18159577Y-11231784D01*
X18200500Y-11079057D01*
X18200500Y-10920943D01*
X18499500Y-10920943D01*
X18499500Y-11079057D01*
X18540423Y-11231784D01*
X18619480Y-11368716D01*
X18731284Y-11480520D01*
X18868216Y-11559577D01*
X19020943Y-11600500D01*
X19020945Y-11600500D01*
X19179055Y-11600500D01*
X19179057Y-11600500D01*
X19331784Y-11559577D01*
X19468716Y-11480520D01*
X19580520Y-11368716D01*
X19659577Y-11231784D01*
X19700500Y-11079057D01*
X19700500Y-10920943D01*
X19999500Y-10920943D01*
X19999500Y-11079057D01*
X20040423Y-11231784D01*
X20119480Y-11368716D01*
X20231284Y-11480520D01*
X20368216Y-11559577D01*
X20520943Y-11600500D01*
X20520945Y-11600500D01*
X20679055Y-11600500D01*
X20679057Y-11600500D01*
X20831784Y-11559577D01*
X20968716Y-11480520D01*
X21080520Y-11368716D01*
X21159577Y-11231784D01*
X21200500Y-11079057D01*
X21200500Y-10920943D01*
X21499500Y-10920943D01*
X21499500Y-11079057D01*
X21540423Y-11231784D01*
X21619480Y-11368716D01*
X21731284Y-11480520D01*
X21868216Y-11559577D01*
X22020943Y-11600500D01*
X22020945Y-11600500D01*
X22179055Y-11600500D01*
X22179057Y-11600500D01*
X22331784Y-11559577D01*
X22468716Y-11480520D01*
X22580520Y-11368716D01*
X22659577Y-11231784D01*
X22700500Y-11079057D01*
X22700500Y-10920943D01*
X22999500Y-10920943D01*
X22999500Y-11079057D01*
X23040423Y-11231784D01*
X23119480Y-11368716D01*
X23231284Y-11480520D01*
X23368216Y-11559577D01*
X23520943Y-11600500D01*
X23520945Y-11600500D01*
X23679055Y-11600500D01*
X23679057Y-11600500D01*
X23831784Y-11559577D01*
X23968716Y-11480520D01*
X24080520Y-11368716D01*
X24159577Y-11231784D01*
X24200500Y-11079057D01*
X24200500Y-10920943D01*
X24499500Y-10920943D01*
X24499500Y-11079057D01*
X24540423Y-11231784D01*
X24619480Y-11368716D01*
X24731284Y-11480520D01*
X24868216Y-11559577D01*
X25020943Y-11600500D01*
X25020945Y-11600500D01*
X25179055Y-11600500D01*
X25179057Y-11600500D01*
X25331784Y-11559577D01*
X25468716Y-11480520D01*
X25580520Y-11368716D01*
X25659577Y-11231784D01*
X25700500Y-11079057D01*
X25700500Y-10920943D01*
X25999500Y-10920943D01*
X25999500Y-11079057D01*
X26040423Y-11231784D01*
X26119480Y-11368716D01*
X26231284Y-11480520D01*
X26368216Y-11559577D01*
X26520943Y-11600500D01*
X26520945Y-11600500D01*
X26679055Y-11600500D01*
X26679057Y-11600500D01*
X26831784Y-11559577D01*
X26968716Y-11480520D01*
X27080520Y-11368716D01*
X27159577Y-11231784D01*
X27200500Y-11079057D01*
X27200500Y-10920943D01*
X27499500Y-10920943D01*
X27499500Y-11079057D01*
X27540423Y-11231784D01*
X27619480Y-11368716D01*
X27731284Y-11480520D01*
X27868216Y-11559577D01*
X28020943Y-11600500D01*
X28020945Y-11600500D01*
X28179055Y-11600500D01*
X28179057Y-11600500D01*
X28331784Y-11559577D01*
X28468716Y-11480520D01*
X28580520Y-11368716D01*
X28659577Y-11231784D01*
X28700500Y-11079057D01*
X28700500Y-10920943D01*
X28999500Y-10920943D01*
X28999500Y-11079057D01*
X29040423Y-11231784D01*
X29119480Y-11368716D01*
X29231284Y-11480520D01*
X29368216Y-11559577D01*
X29520943Y-11600500D01*
X29520945Y-11600500D01*
X29679055Y-11600500D01*
X29679057Y-11600500D01*
X29831784Y-11559577D01*
X29968716Y-11480520D01*
X30080520Y-11368716D01*
X30159577Y-11231784D01*
X30200500Y-11079057D01*
X30200500Y-10920943D01*
X30499500Y-10920943D01*
X30499500Y-11079057D01*
X30540423Y-11231784D01*
X30619480Y-11368716D01*
X30731284Y-11480520D01*
X30868216Y-11559577D01*
X31020943Y-11600500D01*
X31020945Y-11600500D01*
X31179055Y-11600500D01*
X31179057Y-11600500D01*
X31331784Y-11559577D01*
X31468716Y-11480520D01*
X31580520Y-11368716D01*
X31659577Y-11231784D01*
X31700500Y-11079057D01*
X31700500Y-10920943D01*
X31999500Y-10920943D01*
X31999500Y-11079057D01*
X32040423Y-11231784D01*
X32119480Y-11368716D01*
X32231284Y-11480520D01*
X32368216Y-11559577D01*
X32520943Y-11600500D01*
X32520945Y-11600500D01*
X32679055Y-11600500D01*
X32679057Y-11600500D01*
X32831784Y-11559577D01*
X32968716Y-11480520D01*
X33080520Y-11368716D01*
X33159577Y-11231784D01*
X33200500Y-11079057D01*
X33200500Y-10920943D01*
X33499500Y-10920943D01*
X33499500Y-11079057D01*
X33540423Y-11231784D01*
X33619480Y-11368716D01*
X33731284Y-11480520D01*
X33868216Y-11559577D01*
X34020943Y-11600500D01*
X34020945Y-11600500D01*
X34179055Y-11600500D01*
X34179057Y-11600500D01*
X34331784Y-11559577D01*
X34468716Y-11480520D01*
X34580520Y-11368716D01*
X34659577Y-11231784D01*
X34700500Y-11079057D01*
X34700500Y-10920943D01*
X34999500Y-10920943D01*
X34999500Y-11079057D01*
X35040423Y-11231784D01*
X35119480Y-11368716D01*
X35231284Y-11480520D01*
X35368216Y-11559577D01*
X35520943Y-11600500D01*
X35520945Y-11600500D01*
X35679055Y-11600500D01*
X35679057Y-11600500D01*
X35831784Y-11559577D01*
X35968716Y-11480520D01*
X36080520Y-11368716D01*
X36159577Y-11231784D01*
X36200500Y-11079057D01*
X36200500Y-10920943D01*
X36499500Y-10920943D01*
X36499500Y-11079057D01*
X36540423Y-11231784D01*
X36619480Y-11368716D01*
X36731284Y-11480520D01*
X36868216Y-11559577D01*
X37020943Y-11600500D01*
X37020945Y-11600500D01*
X37179055Y-11600500D01*
X37179057Y-11600500D01*
X37331784Y-11559577D01*
X37468716Y-11480520D01*
X37580520Y-11368716D01*
X37659577Y-11231784D01*
X37700500Y-11079057D01*
X37700500Y-10920943D01*
X37999500Y-10920943D01*
X37999500Y-11079057D01*
X38040423Y-11231784D01*
X38119480Y-11368716D01*
X38231284Y-11480520D01*
X38368216Y-11559577D01*
X38520943Y-11600500D01*
X38520945Y-11600500D01*
X38679055Y-11600500D01*
X38679057Y-11600500D01*
X38831784Y-11559577D01*
X38968716Y-11480520D01*
X39080520Y-11368716D01*
X39159577Y-11231784D01*
X39200500Y-11079057D01*
X39200500Y-10920943D01*
X39499500Y-10920943D01*
X39499500Y-11079057D01*
X39540423Y-11231784D01*
X39619480Y-11368716D01*
X39731284Y-11480520D01*
X39868216Y-11559577D01*
X40020943Y-11600500D01*
X40020945Y-11600500D01*
X40179055Y-11600500D01*
X40179057Y-11600500D01*
X40331784Y-11559577D01*
X40468716Y-11480520D01*
X40580520Y-11368716D01*
X40659577Y-11231784D01*
X40700500Y-11079057D01*
X40700500Y-10920943D01*
X40999500Y-10920943D01*
X40999500Y-11079057D01*
X41040423Y-11231784D01*
X41119480Y-11368716D01*
X41231284Y-11480520D01*
X41368216Y-11559577D01*
X41520943Y-11600500D01*
X41520945Y-11600500D01*
X41679055Y-11600500D01*
X41679057Y-11600500D01*
X41831784Y-11559577D01*
X41968716Y-11480520D01*
X42080520Y-11368716D01*
X42159577Y-11231784D01*
X42200500Y-11079057D01*
X42200500Y-10920943D01*
X42499500Y-10920943D01*
X42499500Y-11079057D01*
X42540423Y-11231784D01*
X42619480Y-11368716D01*
X42731284Y-11480520D01*
X42868216Y-11559577D01*
X43020943Y-11600500D01*
X43020945Y-11600500D01*
X43179055Y-11600500D01*
X43179057Y-11600500D01*
X43331784Y-11559577D01*
X43468716Y-11480520D01*
X43580520Y-11368716D01*
X43659577Y-11231784D01*
X43700500Y-11079057D01*
X43700500Y-10920943D01*
X43659577Y-10768216D01*
X43580520Y-10631284D01*
X43468716Y-10519480D01*
X43331784Y-10440423D01*
X43179057Y-10399500D01*
X43020943Y-10399500D01*
X42868216Y-10440423D01*
X42731284Y-10519480D01*
X42619480Y-10631284D01*
X42540423Y-10768216D01*
X42499500Y-10920943D01*
X42200500Y-10920943D01*
X42159577Y-10768216D01*
X42080520Y-10631284D01*
X41968716Y-10519480D01*
X41831784Y-10440423D01*
X41679057Y-10399500D01*
X41520943Y-10399500D01*
X41368216Y-10440423D01*
X41231284Y-10519480D01*
X41119480Y-10631284D01*
X41040423Y-10768216D01*
X40999500Y-10920943D01*
X40700500Y-10920943D01*
X40659577Y-10768216D01*
X40580520Y-10631284D01*
X40468716Y-10519480D01*
X40331784Y-10440423D01*
X40179057Y-10399500D01*
X40020943Y-10399500D01*
X39868216Y-10440423D01*
X39731284Y-10519480D01*
X39619480Y-10631284D01*
X39540423Y-10768216D01*
X39499500Y-10920943D01*
X39200500Y-10920943D01*
X39159577Y-10768216D01*
X39080520Y-10631284D01*
X38968716Y-10519480D01*
X38831784Y-10440423D01*
X38679057Y-10399500D01*
X38520943Y-10399500D01*
X38368216Y-10440423D01*
X38231284Y-10519480D01*
X38119480Y-10631284D01*
X38040423Y-10768216D01*
X37999500Y-10920943D01*
X37700500Y-10920943D01*
X37659577Y-10768216D01*
X37580520Y-10631284D01*
X37468716Y-10519480D01*
X37331784Y-10440423D01*
X37179057Y-10399500D01*
X37020943Y-10399500D01*
X36868216Y-10440423D01*
X36731284Y-10519480D01*
X36619480Y-10631284D01*
X36540423Y-10768216D01*
X36499500Y-10920943D01*
X36200500Y-10920943D01*
X36159577Y-10768216D01*
X36080520Y-10631284D01*
X35968716Y-10519480D01*
X35831784Y-10440423D01*
X35679057Y-10399500D01*
X35520943Y-10399500D01*
X35368216Y-10440423D01*
X35231284Y-10519480D01*
X35119480Y-10631284D01*
X35040423Y-10768216D01*
X34999500Y-10920943D01*
X34700500Y-10920943D01*
X34659577Y-10768216D01*
X34580520Y-10631284D01*
X34468716Y-10519480D01*
X34331784Y-10440423D01*
X34179057Y-10399500D01*
X34020943Y-10399500D01*
X33868216Y-10440423D01*
X33731284Y-10519480D01*
X33619480Y-10631284D01*
X33540423Y-10768216D01*
X33499500Y-10920943D01*
X33200500Y-10920943D01*
X33159577Y-10768216D01*
X33080520Y-10631284D01*
X32968716Y-10519480D01*
X32831784Y-10440423D01*
X32679057Y-10399500D01*
X32520943Y-10399500D01*
X32368216Y-10440423D01*
X32231284Y-10519480D01*
X32119480Y-10631284D01*
X32040423Y-10768216D01*
X31999500Y-10920943D01*
X31700500Y-10920943D01*
X31659577Y-10768216D01*
X31580520Y-10631284D01*
X31468716Y-10519480D01*
X31331784Y-10440423D01*
X31179057Y-10399500D01*
X31020943Y-10399500D01*
X30868216Y-10440423D01*
X30731284Y-10519480D01*
X30619480Y-10631284D01*
X30540423Y-10768216D01*
X30499500Y-10920943D01*
X30200500Y-10920943D01*
X30159577Y-10768216D01*
X30080520Y-10631284D01*
X29968716Y-10519480D01*
X29831784Y-10440423D01*
X29679057Y-10399500D01*
X29520943Y-10399500D01*
X29368216Y-10440423D01*
X29231284Y-10519480D01*
X29119480Y-10631284D01*
X29040423Y-10768216D01*
X28999500Y-10920943D01*
X28700500Y-10920943D01*
X28659577Y-10768216D01*
X28580520Y-10631284D01*
X28468716Y-10519480D01*
X28331784Y-10440423D01*
X28179057Y-10399500D01*
X28020943Y-10399500D01*
X27868216Y-10440423D01*
X27731284Y-10519480D01*
X27619480Y-10631284D01*
X27540423Y-10768216D01*
X27499500Y-10920943D01*
X27200500Y-10920943D01*
X27159577Y-10768216D01*
X27080520Y-10631284D01*
X26968716Y-10519480D01*
X26831784Y-10440423D01*
X26679057Y-10399500D01*
X26520943Y-10399500D01*
X26368216Y-10440423D01*
X26231284Y-10519480D01*
X26119480Y-10631284D01*
X26040423Y-10768216D01*
X25999500Y-10920943D01*
X25700500Y-10920943D01*
X25659577Y-10768216D01*
X25580520Y-10631284D01*
X25468716Y-10519480D01*
X25331784Y-10440423D01*
X25179057Y-10399500D01*
X25020943Y-10399500D01*
X24868216Y-10440423D01*
X24731284Y-10519480D01*
X24619480Y-10631284D01*
X24540423Y-10768216D01*
X24499500Y-10920943D01*
X24200500Y-10920943D01*
X24159577Y-10768216D01*
X24080520Y-10631284D01*
X23968716Y-10519480D01*
X23831784Y-10440423D01*
X23679057Y-10399500D01*
X23520943Y-10399500D01*
X23368216Y-10440423D01*
X23231284Y-10519480D01*
X23119480Y-10631284D01*
X23040423Y-10768216D01*
X22999500Y-10920943D01*
X22700500Y-10920943D01*
X22659577Y-10768216D01*
X22580520Y-10631284D01*
X22468716Y-10519480D01*
X22331784Y-10440423D01*
X22179057Y-10399500D01*
X22020943Y-10399500D01*
X21868216Y-10440423D01*
X21731284Y-10519480D01*
X21619480Y-10631284D01*
X21540423Y-10768216D01*
X21499500Y-10920943D01*
X21200500Y-10920943D01*
X21159577Y-10768216D01*
X21080520Y-10631284D01*
X20968716Y-10519480D01*
X20831784Y-10440423D01*
X20679057Y-10399500D01*
X20520943Y-10399500D01*
X20368216Y-10440423D01*
X20231284Y-10519480D01*
X20119480Y-10631284D01*
X20040423Y-10768216D01*
X19999500Y-10920943D01*
X19700500Y-10920943D01*
X19659577Y-10768216D01*
X19580520Y-10631284D01*
X19468716Y-10519480D01*
X19331784Y-10440423D01*
X19179057Y-10399500D01*
X19020943Y-10399500D01*
X18868216Y-10440423D01*
X18731284Y-10519480D01*
X18619480Y-10631284D01*
X18540423Y-10768216D01*
X18499500Y-10920943D01*
X18200500Y-10920943D01*
X18159577Y-10768216D01*
X18080520Y-10631284D01*
X17968716Y-10519480D01*
X17831784Y-10440423D01*
X17679057Y-10399500D01*
X17520943Y-10399500D01*
X17368216Y-10440423D01*
X17231284Y-10519480D01*
X17119480Y-10631284D01*
X17040423Y-10768216D01*
X16999500Y-10920943D01*
X16026596Y-10920943D01*
X16033800Y-10894057D01*
X16033800Y-10735943D01*
X15992877Y-10583216D01*
X15913820Y-10446284D01*
X15858787Y-10391251D01*
X15831012Y-10336737D01*
X15840583Y-10276305D01*
X15858786Y-10251249D01*
X15913820Y-10196216D01*
X15992877Y-10059284D01*
X16033800Y-9906557D01*
X16033800Y-9748443D01*
X15992877Y-9595716D01*
X15913820Y-9458784D01*
X15858787Y-9403751D01*
X15831012Y-9349237D01*
X15840583Y-9288805D01*
X15858786Y-9263749D01*
X15913820Y-9208716D01*
X15992877Y-9071784D01*
X16033295Y-8920943D01*
X16399500Y-8920943D01*
X16399500Y-9079057D01*
X16440423Y-9231784D01*
X16519480Y-9368716D01*
X16631284Y-9480520D01*
X16768216Y-9559577D01*
X16920943Y-9600500D01*
X16920945Y-9600500D01*
X17079055Y-9600500D01*
X17079057Y-9600500D01*
X17231784Y-9559577D01*
X17368716Y-9480520D01*
X17480520Y-9368716D01*
X17559577Y-9231784D01*
X17600500Y-9079057D01*
X17600500Y-8920943D01*
X18399500Y-8920943D01*
X18399500Y-9079057D01*
X18440423Y-9231784D01*
X18519480Y-9368716D01*
X18631284Y-9480520D01*
X18768216Y-9559577D01*
X18920943Y-9600500D01*
X18920945Y-9600500D01*
X19079055Y-9600500D01*
X19079057Y-9600500D01*
X19231784Y-9559577D01*
X19368716Y-9480520D01*
X19480520Y-9368716D01*
X19559577Y-9231784D01*
X19600500Y-9079057D01*
X19600500Y-8920943D01*
X20399500Y-8920943D01*
X20399500Y-9079057D01*
X20440423Y-9231784D01*
X20519480Y-9368716D01*
X20631284Y-9480520D01*
X20768216Y-9559577D01*
X20920943Y-9600500D01*
X20920945Y-9600500D01*
X21079055Y-9600500D01*
X21079057Y-9600500D01*
X21231784Y-9559577D01*
X21368716Y-9480520D01*
X21480520Y-9368716D01*
X21559577Y-9231784D01*
X21600500Y-9079057D01*
X21600500Y-8920943D01*
X22399500Y-8920943D01*
X22399500Y-9079057D01*
X22440423Y-9231784D01*
X22519480Y-9368716D01*
X22631284Y-9480520D01*
X22768216Y-9559577D01*
X22920943Y-9600500D01*
X22920945Y-9600500D01*
X23079055Y-9600500D01*
X23079057Y-9600500D01*
X23231784Y-9559577D01*
X23368716Y-9480520D01*
X23480520Y-9368716D01*
X23559577Y-9231784D01*
X23600500Y-9079057D01*
X23600500Y-8920943D01*
X24399500Y-8920943D01*
X24399500Y-9079057D01*
X24440423Y-9231784D01*
X24519480Y-9368716D01*
X24631284Y-9480520D01*
X24768216Y-9559577D01*
X24920943Y-9600500D01*
X24920945Y-9600500D01*
X25079055Y-9600500D01*
X25079057Y-9600500D01*
X25231784Y-9559577D01*
X25368716Y-9480520D01*
X25480520Y-9368716D01*
X25559577Y-9231784D01*
X25600500Y-9079057D01*
X25600500Y-8920943D01*
X26399500Y-8920943D01*
X26399500Y-9079057D01*
X26440423Y-9231784D01*
X26519480Y-9368716D01*
X26631284Y-9480520D01*
X26768216Y-9559577D01*
X26920943Y-9600500D01*
X26920945Y-9600500D01*
X27079055Y-9600500D01*
X27079057Y-9600500D01*
X27231784Y-9559577D01*
X27368716Y-9480520D01*
X27480520Y-9368716D01*
X27559577Y-9231784D01*
X27600500Y-9079057D01*
X27600500Y-8920943D01*
X28399500Y-8920943D01*
X28399500Y-9079057D01*
X28440423Y-9231784D01*
X28519480Y-9368716D01*
X28631284Y-9480520D01*
X28768216Y-9559577D01*
X28920943Y-9600500D01*
X28920945Y-9600500D01*
X29079055Y-9600500D01*
X29079057Y-9600500D01*
X29231784Y-9559577D01*
X29368716Y-9480520D01*
X29480520Y-9368716D01*
X29559577Y-9231784D01*
X29600500Y-9079057D01*
X29600500Y-8920943D01*
X30399500Y-8920943D01*
X30399500Y-9079057D01*
X30440423Y-9231784D01*
X30519480Y-9368716D01*
X30631284Y-9480520D01*
X30768216Y-9559577D01*
X30920943Y-9600500D01*
X30920945Y-9600500D01*
X31079055Y-9600500D01*
X31079057Y-9600500D01*
X31231784Y-9559577D01*
X31368716Y-9480520D01*
X31480520Y-9368716D01*
X31559577Y-9231784D01*
X31600500Y-9079057D01*
X31600500Y-8920943D01*
X32399500Y-8920943D01*
X32399500Y-9079057D01*
X32440423Y-9231784D01*
X32519480Y-9368716D01*
X32631284Y-9480520D01*
X32768216Y-9559577D01*
X32920943Y-9600500D01*
X32920945Y-9600500D01*
X33079055Y-9600500D01*
X33079057Y-9600500D01*
X33231784Y-9559577D01*
X33368716Y-9480520D01*
X33480520Y-9368716D01*
X33559577Y-9231784D01*
X33600500Y-9079057D01*
X33600500Y-8920943D01*
X34399500Y-8920943D01*
X34399500Y-9079057D01*
X34440423Y-9231784D01*
X34519480Y-9368716D01*
X34631284Y-9480520D01*
X34768216Y-9559577D01*
X34920943Y-9600500D01*
X34920945Y-9600500D01*
X35079055Y-9600500D01*
X35079057Y-9600500D01*
X35231784Y-9559577D01*
X35368716Y-9480520D01*
X35480520Y-9368716D01*
X35559577Y-9231784D01*
X35600500Y-9079057D01*
X35600500Y-8920943D01*
X36399500Y-8920943D01*
X36399500Y-9079057D01*
X36440423Y-9231784D01*
X36519480Y-9368716D01*
X36631284Y-9480520D01*
X36768216Y-9559577D01*
X36920943Y-9600500D01*
X36920945Y-9600500D01*
X37079055Y-9600500D01*
X37079057Y-9600500D01*
X37231784Y-9559577D01*
X37368716Y-9480520D01*
X37480520Y-9368716D01*
X37559577Y-9231784D01*
X37600500Y-9079057D01*
X37600500Y-8920943D01*
X38399500Y-8920943D01*
X38399500Y-9079057D01*
X38440423Y-9231784D01*
X38519480Y-9368716D01*
X38631284Y-9480520D01*
X38768216Y-9559577D01*
X38920943Y-9600500D01*
X38920945Y-9600500D01*
X39079055Y-9600500D01*
X39079057Y-9600500D01*
X39231784Y-9559577D01*
X39368716Y-9480520D01*
X39480520Y-9368716D01*
X39559577Y-9231784D01*
X39600500Y-9079057D01*
X39600500Y-8920943D01*
X40399500Y-8920943D01*
X40399500Y-9079057D01*
X40440423Y-9231784D01*
X40519480Y-9368716D01*
X40631284Y-9480520D01*
X40768216Y-9559577D01*
X40920943Y-9600500D01*
X40920945Y-9600500D01*
X41079055Y-9600500D01*
X41079057Y-9600500D01*
X41231784Y-9559577D01*
X41368716Y-9480520D01*
X41480520Y-9368716D01*
X41559577Y-9231784D01*
X41600500Y-9079057D01*
X41600500Y-8920943D01*
X42399500Y-8920943D01*
X42399500Y-9079057D01*
X42440423Y-9231784D01*
X42519480Y-9368716D01*
X42631284Y-9480520D01*
X42768216Y-9559577D01*
X42920943Y-9600500D01*
X42920945Y-9600500D01*
X43079055Y-9600500D01*
X43079057Y-9600500D01*
X43231784Y-9559577D01*
X43368716Y-9480520D01*
X43480520Y-9368716D01*
X43559577Y-9231784D01*
X43600500Y-9079057D01*
X43600500Y-8920943D01*
X43559577Y-8768216D01*
X43480520Y-8631284D01*
X43368716Y-8519480D01*
X43231784Y-8440423D01*
X43079057Y-8399500D01*
X42920943Y-8399500D01*
X42768216Y-8440423D01*
X42631284Y-8519480D01*
X42519480Y-8631284D01*
X42440423Y-8768216D01*
X42399500Y-8920943D01*
X41600500Y-8920943D01*
X41559577Y-8768216D01*
X41480520Y-8631284D01*
X41368716Y-8519480D01*
X41231784Y-8440423D01*
X41079057Y-8399500D01*
X40920943Y-8399500D01*
X40768216Y-8440423D01*
X40631284Y-8519480D01*
X40519480Y-8631284D01*
X40440423Y-8768216D01*
X40399500Y-8920943D01*
X39600500Y-8920943D01*
X39559577Y-8768216D01*
X39480520Y-8631284D01*
X39368716Y-8519480D01*
X39231784Y-8440423D01*
X39079057Y-8399500D01*
X38920943Y-8399500D01*
X38768216Y-8440423D01*
X38631284Y-8519480D01*
X38519480Y-8631284D01*
X38440423Y-8768216D01*
X38399500Y-8920943D01*
X37600500Y-8920943D01*
X37559577Y-8768216D01*
X37480520Y-8631284D01*
X37368716Y-8519480D01*
X37231784Y-8440423D01*
X37079057Y-8399500D01*
X36920943Y-8399500D01*
X36768216Y-8440423D01*
X36631284Y-8519480D01*
X36519480Y-8631284D01*
X36440423Y-8768216D01*
X36399500Y-8920943D01*
X35600500Y-8920943D01*
X35559577Y-8768216D01*
X35480520Y-8631284D01*
X35368716Y-8519480D01*
X35231784Y-8440423D01*
X35079057Y-8399500D01*
X34920943Y-8399500D01*
X34768216Y-8440423D01*
X34631284Y-8519480D01*
X34519480Y-8631284D01*
X34440423Y-8768216D01*
X34399500Y-8920943D01*
X33600500Y-8920943D01*
X33559577Y-8768216D01*
X33480520Y-8631284D01*
X33368716Y-8519480D01*
X33231784Y-8440423D01*
X33079057Y-8399500D01*
X32920943Y-8399500D01*
X32768216Y-8440423D01*
X32631284Y-8519480D01*
X32519480Y-8631284D01*
X32440423Y-8768216D01*
X32399500Y-8920943D01*
X31600500Y-8920943D01*
X31559577Y-8768216D01*
X31480520Y-8631284D01*
X31368716Y-8519480D01*
X31231784Y-8440423D01*
X31079057Y-8399500D01*
X30920943Y-8399500D01*
X30768216Y-8440423D01*
X30631284Y-8519480D01*
X30519480Y-8631284D01*
X30440423Y-8768216D01*
X30399500Y-8920943D01*
X29600500Y-8920943D01*
X29559577Y-8768216D01*
X29480520Y-8631284D01*
X29368716Y-8519480D01*
X29231784Y-8440423D01*
X29079057Y-8399500D01*
X28920943Y-8399500D01*
X28768216Y-8440423D01*
X28631284Y-8519480D01*
X28519480Y-8631284D01*
X28440423Y-8768216D01*
X28399500Y-8920943D01*
X27600500Y-8920943D01*
X27559577Y-8768216D01*
X27480520Y-8631284D01*
X27368716Y-8519480D01*
X27231784Y-8440423D01*
X27079057Y-8399500D01*
X26920943Y-8399500D01*
X26768216Y-8440423D01*
X26631284Y-8519480D01*
X26519480Y-8631284D01*
X26440423Y-8768216D01*
X26399500Y-8920943D01*
X25600500Y-8920943D01*
X25559577Y-8768216D01*
X25480520Y-8631284D01*
X25368716Y-8519480D01*
X25231784Y-8440423D01*
X25079057Y-8399500D01*
X24920943Y-8399500D01*
X24768216Y-8440423D01*
X24631284Y-8519480D01*
X24519480Y-8631284D01*
X24440423Y-8768216D01*
X24399500Y-8920943D01*
X23600500Y-8920943D01*
X23559577Y-8768216D01*
X23480520Y-8631284D01*
X23368716Y-8519480D01*
X23231784Y-8440423D01*
X23079057Y-8399500D01*
X22920943Y-8399500D01*
X22768216Y-8440423D01*
X22631284Y-8519480D01*
X22519480Y-8631284D01*
X22440423Y-8768216D01*
X22399500Y-8920943D01*
X21600500Y-8920943D01*
X21559577Y-8768216D01*
X21480520Y-8631284D01*
X21368716Y-8519480D01*
X21231784Y-8440423D01*
X21079057Y-8399500D01*
X20920943Y-8399500D01*
X20768216Y-8440423D01*
X20631284Y-8519480D01*
X20519480Y-8631284D01*
X20440423Y-8768216D01*
X20399500Y-8920943D01*
X19600500Y-8920943D01*
X19559577Y-8768216D01*
X19480520Y-8631284D01*
X19368716Y-8519480D01*
X19231784Y-8440423D01*
X19079057Y-8399500D01*
X18920943Y-8399500D01*
X18768216Y-8440423D01*
X18631284Y-8519480D01*
X18519480Y-8631284D01*
X18440423Y-8768216D01*
X18399500Y-8920943D01*
X17600500Y-8920943D01*
X17559577Y-8768216D01*
X17480520Y-8631284D01*
X17368716Y-8519480D01*
X17231784Y-8440423D01*
X17079057Y-8399500D01*
X16920943Y-8399500D01*
X16768216Y-8440423D01*
X16631284Y-8519480D01*
X16519480Y-8631284D01*
X16440423Y-8768216D01*
X16399500Y-8920943D01*
X16033295Y-8920943D01*
X16033800Y-8919057D01*
X16033800Y-8760943D01*
X15992877Y-8608216D01*
X15913820Y-8471284D01*
X15802016Y-8359480D01*
X15665084Y-8280423D01*
X15512357Y-8239500D01*
X15354243Y-8239500D01*
X15201516Y-8280423D01*
X15064577Y-8359484D01*
X15060263Y-8362795D01*
X15002587Y-8383216D01*
X14943922Y-8365836D01*
X14939737Y-8362795D01*
X14935422Y-8359484D01*
X14935417Y-8359481D01*
X14935416Y-8359480D01*
X14798484Y-8280423D01*
X14645757Y-8239500D01*
X14487643Y-8239500D01*
X14334916Y-8280423D01*
X14197984Y-8359480D01*
X14086180Y-8471284D01*
X14007123Y-8608216D01*
X13966200Y-8760943D01*
X13555378Y-8760943D01*
X13480520Y-8631284D01*
X13368716Y-8519480D01*
X13231784Y-8440423D01*
X13079057Y-8399500D01*
X12920943Y-8399500D01*
X12768216Y-8440423D01*
X12631284Y-8519480D01*
X12519480Y-8631284D01*
X12440423Y-8768216D01*
X12399500Y-8920943D01*
X11600500Y-8920943D01*
X11559577Y-8768216D01*
X11480520Y-8631284D01*
X11368716Y-8519480D01*
X11231784Y-8440423D01*
X11079057Y-8399500D01*
X10920943Y-8399500D01*
X10768216Y-8440423D01*
X10631284Y-8519480D01*
X10519480Y-8631284D01*
X10440423Y-8768216D01*
X10399500Y-8920943D01*
X9600500Y-8920943D01*
X9559577Y-8768216D01*
X9480520Y-8631284D01*
X9368716Y-8519480D01*
X9231784Y-8440423D01*
X9079057Y-8399500D01*
X8920943Y-8399500D01*
X8768216Y-8440423D01*
X8631284Y-8519480D01*
X8519480Y-8631284D01*
X8440423Y-8768216D01*
X8399500Y-8920943D01*
X7600500Y-8920943D01*
X7559577Y-8768216D01*
X7480520Y-8631284D01*
X7368716Y-8519480D01*
X7231784Y-8440423D01*
X7079057Y-8399500D01*
X6920943Y-8399500D01*
X6768216Y-8440423D01*
X6631284Y-8519480D01*
X6519480Y-8631284D01*
X6440423Y-8768216D01*
X6399500Y-8920943D01*
X1000000Y-8920943D01*
X1000000Y-8416030D01*
X1018907Y-8357839D01*
X1068407Y-8321875D01*
X1124619Y-8320403D01*
X1236943Y-8350500D01*
X1236945Y-8350500D01*
X1395055Y-8350500D01*
X1395057Y-8350500D01*
X1547784Y-8309577D01*
X1684716Y-8230520D01*
X1796520Y-8118716D01*
X1875577Y-7981784D01*
X1916500Y-7829057D01*
X1916500Y-7670943D01*
X2239500Y-7670943D01*
X2239500Y-7829057D01*
X2280423Y-7981784D01*
X2359480Y-8118716D01*
X2471284Y-8230520D01*
X2608216Y-8309577D01*
X2760943Y-8350500D01*
X2760945Y-8350500D01*
X2919055Y-8350500D01*
X2919057Y-8350500D01*
X3071784Y-8309577D01*
X3208716Y-8230520D01*
X3320520Y-8118716D01*
X3399577Y-7981784D01*
X3440500Y-7829057D01*
X3440500Y-7670943D01*
X3763500Y-7670943D01*
X3763500Y-7829057D01*
X3804423Y-7981784D01*
X3883480Y-8118716D01*
X3995284Y-8230520D01*
X4132216Y-8309577D01*
X4284943Y-8350500D01*
X4284945Y-8350500D01*
X4443055Y-8350500D01*
X4443057Y-8350500D01*
X4595784Y-8309577D01*
X4732716Y-8230520D01*
X4844520Y-8118716D01*
X4923577Y-7981784D01*
X4964500Y-7829057D01*
X4964500Y-7670943D01*
X45035500Y-7670943D01*
X45035500Y-7829057D01*
X45076423Y-7981784D01*
X45155480Y-8118716D01*
X45267284Y-8230520D01*
X45404216Y-8309577D01*
X45556943Y-8350500D01*
X45556945Y-8350500D01*
X45715055Y-8350500D01*
X45715057Y-8350500D01*
X45867784Y-8309577D01*
X46004716Y-8230520D01*
X46116520Y-8118716D01*
X46195577Y-7981784D01*
X46236500Y-7829057D01*
X46236500Y-7670943D01*
X46559500Y-7670943D01*
X46559500Y-7829057D01*
X46600423Y-7981784D01*
X46679480Y-8118716D01*
X46791284Y-8230520D01*
X46928216Y-8309577D01*
X47080943Y-8350500D01*
X47080945Y-8350500D01*
X47239055Y-8350500D01*
X47239057Y-8350500D01*
X47391784Y-8309577D01*
X47528716Y-8230520D01*
X47640520Y-8118716D01*
X47719577Y-7981784D01*
X47760500Y-7829057D01*
X47760500Y-7670943D01*
X47719577Y-7518216D01*
X47640520Y-7381284D01*
X47528716Y-7269480D01*
X47391784Y-7190423D01*
X47239057Y-7149500D01*
X47080943Y-7149500D01*
X46928216Y-7190423D01*
X46791284Y-7269480D01*
X46679480Y-7381284D01*
X46600423Y-7518216D01*
X46559500Y-7670943D01*
X46236500Y-7670943D01*
X46195577Y-7518216D01*
X46116520Y-7381284D01*
X46004716Y-7269480D01*
X45867784Y-7190423D01*
X45715057Y-7149500D01*
X45556943Y-7149500D01*
X45404216Y-7190423D01*
X45267284Y-7269480D01*
X45155480Y-7381284D01*
X45076423Y-7518216D01*
X45035500Y-7670943D01*
X4964500Y-7670943D01*
X4923577Y-7518216D01*
X4844520Y-7381284D01*
X4732716Y-7269480D01*
X4595784Y-7190423D01*
X4443057Y-7149500D01*
X4284943Y-7149500D01*
X4132216Y-7190423D01*
X3995284Y-7269480D01*
X3883480Y-7381284D01*
X3804423Y-7518216D01*
X3763500Y-7670943D01*
X3440500Y-7670943D01*
X3399577Y-7518216D01*
X3320520Y-7381284D01*
X3208716Y-7269480D01*
X3071784Y-7190423D01*
X2919057Y-7149500D01*
X2760943Y-7149500D01*
X2608216Y-7190423D01*
X2471284Y-7269480D01*
X2359480Y-7381284D01*
X2280423Y-7518216D01*
X2239500Y-7670943D01*
X1916500Y-7670943D01*
X1875577Y-7518216D01*
X1796520Y-7381284D01*
X1684716Y-7269480D01*
X1547784Y-7190423D01*
X1395057Y-7149500D01*
X1236943Y-7149500D01*
X1124623Y-7179596D01*
X1096542Y-7178124D01*
X1068407Y-7178124D01*
X1066219Y-7176534D01*
X1063521Y-7176393D01*
X1041668Y-7158696D01*
X1018907Y-7142160D01*
X1018071Y-7139589D01*
X1015971Y-7137888D01*
X1000000Y-7083969D01*
X1000000Y-6920943D01*
X6399500Y-6920943D01*
X6399500Y-7079057D01*
X6440423Y-7231784D01*
X6519480Y-7368716D01*
X6631284Y-7480520D01*
X6768216Y-7559577D01*
X6920943Y-7600500D01*
X6920945Y-7600500D01*
X7079055Y-7600500D01*
X7079057Y-7600500D01*
X7231784Y-7559577D01*
X7368716Y-7480520D01*
X7480520Y-7368716D01*
X7559577Y-7231784D01*
X7600500Y-7079057D01*
X7600500Y-6920943D01*
X8399500Y-6920943D01*
X8399500Y-7079057D01*
X8440423Y-7231784D01*
X8519480Y-7368716D01*
X8631284Y-7480520D01*
X8768216Y-7559577D01*
X8920943Y-7600500D01*
X8920945Y-7600500D01*
X9079055Y-7600500D01*
X9079057Y-7600500D01*
X9231784Y-7559577D01*
X9368716Y-7480520D01*
X9480520Y-7368716D01*
X9559577Y-7231784D01*
X9600500Y-7079057D01*
X9600500Y-6920943D01*
X10399500Y-6920943D01*
X10399500Y-7079057D01*
X10440423Y-7231784D01*
X10519480Y-7368716D01*
X10631284Y-7480520D01*
X10768216Y-7559577D01*
X10920943Y-7600500D01*
X10920945Y-7600500D01*
X11079055Y-7600500D01*
X11079057Y-7600500D01*
X11231784Y-7559577D01*
X11368716Y-7480520D01*
X11480520Y-7368716D01*
X11559577Y-7231784D01*
X11600500Y-7079057D01*
X11600500Y-6920943D01*
X12399500Y-6920943D01*
X12399500Y-7079057D01*
X12440423Y-7231784D01*
X12519480Y-7368716D01*
X12631284Y-7480520D01*
X12768216Y-7559577D01*
X12920943Y-7600500D01*
X12920945Y-7600500D01*
X13079055Y-7600500D01*
X13079057Y-7600500D01*
X13231784Y-7559577D01*
X13368716Y-7480520D01*
X13480520Y-7368716D01*
X13559577Y-7231784D01*
X13600500Y-7079057D01*
X13600500Y-6920943D01*
X14399500Y-6920943D01*
X14399500Y-7079057D01*
X14440423Y-7231784D01*
X14519480Y-7368716D01*
X14631284Y-7480520D01*
X14768216Y-7559577D01*
X14920943Y-7600500D01*
X14920945Y-7600500D01*
X15079055Y-7600500D01*
X15079057Y-7600500D01*
X15231784Y-7559577D01*
X15368716Y-7480520D01*
X15480520Y-7368716D01*
X15559577Y-7231784D01*
X15600500Y-7079057D01*
X15600500Y-6920943D01*
X16399500Y-6920943D01*
X16399500Y-7079057D01*
X16440423Y-7231784D01*
X16519480Y-7368716D01*
X16631284Y-7480520D01*
X16768216Y-7559577D01*
X16920943Y-7600500D01*
X16920945Y-7600500D01*
X17079055Y-7600500D01*
X17079057Y-7600500D01*
X17231784Y-7559577D01*
X17368716Y-7480520D01*
X17480520Y-7368716D01*
X17559577Y-7231784D01*
X17600500Y-7079057D01*
X17600500Y-6920943D01*
X18399500Y-6920943D01*
X18399500Y-7079057D01*
X18440423Y-7231784D01*
X18519480Y-7368716D01*
X18631284Y-7480520D01*
X18768216Y-7559577D01*
X18920943Y-7600500D01*
X18920945Y-7600500D01*
X19079055Y-7600500D01*
X19079057Y-7600500D01*
X19231784Y-7559577D01*
X19368716Y-7480520D01*
X19480520Y-7368716D01*
X19559577Y-7231784D01*
X19600500Y-7079057D01*
X19600500Y-6920943D01*
X20399500Y-6920943D01*
X20399500Y-7079057D01*
X20440423Y-7231784D01*
X20519480Y-7368716D01*
X20631284Y-7480520D01*
X20768216Y-7559577D01*
X20920943Y-7600500D01*
X20920945Y-7600500D01*
X21079055Y-7600500D01*
X21079057Y-7600500D01*
X21231784Y-7559577D01*
X21368716Y-7480520D01*
X21480520Y-7368716D01*
X21559577Y-7231784D01*
X21600500Y-7079057D01*
X21600500Y-6920943D01*
X22399500Y-6920943D01*
X22399500Y-7079057D01*
X22440423Y-7231784D01*
X22519480Y-7368716D01*
X22631284Y-7480520D01*
X22768216Y-7559577D01*
X22920943Y-7600500D01*
X22920945Y-7600500D01*
X23079055Y-7600500D01*
X23079057Y-7600500D01*
X23231784Y-7559577D01*
X23368716Y-7480520D01*
X23480520Y-7368716D01*
X23559577Y-7231784D01*
X23600500Y-7079057D01*
X23600500Y-6920943D01*
X24399500Y-6920943D01*
X24399500Y-7079057D01*
X24440423Y-7231784D01*
X24519480Y-7368716D01*
X24631284Y-7480520D01*
X24768216Y-7559577D01*
X24920943Y-7600500D01*
X24920945Y-7600500D01*
X25079055Y-7600500D01*
X25079057Y-7600500D01*
X25231784Y-7559577D01*
X25368716Y-7480520D01*
X25480520Y-7368716D01*
X25559577Y-7231784D01*
X25600500Y-7079057D01*
X25600500Y-6920943D01*
X26399500Y-6920943D01*
X26399500Y-7079057D01*
X26440423Y-7231784D01*
X26519480Y-7368716D01*
X26631284Y-7480520D01*
X26768216Y-7559577D01*
X26920943Y-7600500D01*
X26920945Y-7600500D01*
X27079055Y-7600500D01*
X27079057Y-7600500D01*
X27231784Y-7559577D01*
X27368716Y-7480520D01*
X27480520Y-7368716D01*
X27559577Y-7231784D01*
X27600500Y-7079057D01*
X27600500Y-6920943D01*
X28399500Y-6920943D01*
X28399500Y-7079057D01*
X28440423Y-7231784D01*
X28519480Y-7368716D01*
X28631284Y-7480520D01*
X28768216Y-7559577D01*
X28920943Y-7600500D01*
X28920945Y-7600500D01*
X29079055Y-7600500D01*
X29079057Y-7600500D01*
X29231784Y-7559577D01*
X29368716Y-7480520D01*
X29480520Y-7368716D01*
X29559577Y-7231784D01*
X29600500Y-7079057D01*
X29600500Y-6920943D01*
X30399500Y-6920943D01*
X30399500Y-7079057D01*
X30440423Y-7231784D01*
X30519480Y-7368716D01*
X30631284Y-7480520D01*
X30768216Y-7559577D01*
X30920943Y-7600500D01*
X30920945Y-7600500D01*
X31079055Y-7600500D01*
X31079057Y-7600500D01*
X31231784Y-7559577D01*
X31368716Y-7480520D01*
X31480520Y-7368716D01*
X31559577Y-7231784D01*
X31600500Y-7079057D01*
X31600500Y-6920943D01*
X32399500Y-6920943D01*
X32399500Y-7079057D01*
X32440423Y-7231784D01*
X32519480Y-7368716D01*
X32631284Y-7480520D01*
X32768216Y-7559577D01*
X32920943Y-7600500D01*
X32920945Y-7600500D01*
X33079055Y-7600500D01*
X33079057Y-7600500D01*
X33231784Y-7559577D01*
X33368716Y-7480520D01*
X33480520Y-7368716D01*
X33559577Y-7231784D01*
X33600500Y-7079057D01*
X33600500Y-6920943D01*
X34399500Y-6920943D01*
X34399500Y-7079057D01*
X34440423Y-7231784D01*
X34519480Y-7368716D01*
X34631284Y-7480520D01*
X34768216Y-7559577D01*
X34920943Y-7600500D01*
X34920945Y-7600500D01*
X35079055Y-7600500D01*
X35079057Y-7600500D01*
X35231784Y-7559577D01*
X35368716Y-7480520D01*
X35480520Y-7368716D01*
X35559577Y-7231784D01*
X35600500Y-7079057D01*
X35600500Y-6920943D01*
X36399500Y-6920943D01*
X36399500Y-7079057D01*
X36440423Y-7231784D01*
X36519480Y-7368716D01*
X36631284Y-7480520D01*
X36768216Y-7559577D01*
X36920943Y-7600500D01*
X36920945Y-7600500D01*
X37079055Y-7600500D01*
X37079057Y-7600500D01*
X37231784Y-7559577D01*
X37368716Y-7480520D01*
X37480520Y-7368716D01*
X37559577Y-7231784D01*
X37600500Y-7079057D01*
X37600500Y-6920943D01*
X38399500Y-6920943D01*
X38399500Y-7079057D01*
X38440423Y-7231784D01*
X38519480Y-7368716D01*
X38631284Y-7480520D01*
X38768216Y-7559577D01*
X38920943Y-7600500D01*
X38920945Y-7600500D01*
X39079055Y-7600500D01*
X39079057Y-7600500D01*
X39231784Y-7559577D01*
X39368716Y-7480520D01*
X39480520Y-7368716D01*
X39559577Y-7231784D01*
X39600500Y-7079057D01*
X39600500Y-6920943D01*
X40399500Y-6920943D01*
X40399500Y-7079057D01*
X40440423Y-7231784D01*
X40519480Y-7368716D01*
X40631284Y-7480520D01*
X40768216Y-7559577D01*
X40920943Y-7600500D01*
X40920945Y-7600500D01*
X41079055Y-7600500D01*
X41079057Y-7600500D01*
X41231784Y-7559577D01*
X41368716Y-7480520D01*
X41480520Y-7368716D01*
X41559577Y-7231784D01*
X41600500Y-7079057D01*
X41600500Y-6920943D01*
X42399500Y-6920943D01*
X42399500Y-7079057D01*
X42440423Y-7231784D01*
X42519480Y-7368716D01*
X42631284Y-7480520D01*
X42768216Y-7559577D01*
X42920943Y-7600500D01*
X42920945Y-7600500D01*
X43079055Y-7600500D01*
X43079057Y-7600500D01*
X43231784Y-7559577D01*
X43368716Y-7480520D01*
X43480520Y-7368716D01*
X43559577Y-7231784D01*
X43600500Y-7079057D01*
X43600500Y-6920943D01*
X43559577Y-6768216D01*
X43480520Y-6631284D01*
X43368716Y-6519480D01*
X43231784Y-6440423D01*
X43079057Y-6399500D01*
X42920943Y-6399500D01*
X42768216Y-6440423D01*
X42631284Y-6519480D01*
X42519480Y-6631284D01*
X42440423Y-6768216D01*
X42399500Y-6920943D01*
X41600500Y-6920943D01*
X41559577Y-6768216D01*
X41480520Y-6631284D01*
X41368716Y-6519480D01*
X41231784Y-6440423D01*
X41079057Y-6399500D01*
X40920943Y-6399500D01*
X40768216Y-6440423D01*
X40631284Y-6519480D01*
X40519480Y-6631284D01*
X40440423Y-6768216D01*
X40399500Y-6920943D01*
X39600500Y-6920943D01*
X39559577Y-6768216D01*
X39480520Y-6631284D01*
X39368716Y-6519480D01*
X39231784Y-6440423D01*
X39079057Y-6399500D01*
X38920943Y-6399500D01*
X38768216Y-6440423D01*
X38631284Y-6519480D01*
X38519480Y-6631284D01*
X38440423Y-6768216D01*
X38399500Y-6920943D01*
X37600500Y-6920943D01*
X37559577Y-6768216D01*
X37480520Y-6631284D01*
X37368716Y-6519480D01*
X37231784Y-6440423D01*
X37079057Y-6399500D01*
X36920943Y-6399500D01*
X36768216Y-6440423D01*
X36631284Y-6519480D01*
X36519480Y-6631284D01*
X36440423Y-6768216D01*
X36399500Y-6920943D01*
X35600500Y-6920943D01*
X35559577Y-6768216D01*
X35480520Y-6631284D01*
X35368716Y-6519480D01*
X35231784Y-6440423D01*
X35079057Y-6399500D01*
X34920943Y-6399500D01*
X34768216Y-6440423D01*
X34631284Y-6519480D01*
X34519480Y-6631284D01*
X34440423Y-6768216D01*
X34399500Y-6920943D01*
X33600500Y-6920943D01*
X33559577Y-6768216D01*
X33480520Y-6631284D01*
X33368716Y-6519480D01*
X33231784Y-6440423D01*
X33079057Y-6399500D01*
X32920943Y-6399500D01*
X32768216Y-6440423D01*
X32631284Y-6519480D01*
X32519480Y-6631284D01*
X32440423Y-6768216D01*
X32399500Y-6920943D01*
X31600500Y-6920943D01*
X31559577Y-6768216D01*
X31480520Y-6631284D01*
X31368716Y-6519480D01*
X31231784Y-6440423D01*
X31079057Y-6399500D01*
X30920943Y-6399500D01*
X30768216Y-6440423D01*
X30631284Y-6519480D01*
X30519480Y-6631284D01*
X30440423Y-6768216D01*
X30399500Y-6920943D01*
X29600500Y-6920943D01*
X29559577Y-6768216D01*
X29480520Y-6631284D01*
X29368716Y-6519480D01*
X29231784Y-6440423D01*
X29079057Y-6399500D01*
X28920943Y-6399500D01*
X28768216Y-6440423D01*
X28631284Y-6519480D01*
X28519480Y-6631284D01*
X28440423Y-6768216D01*
X28399500Y-6920943D01*
X27600500Y-6920943D01*
X27559577Y-6768216D01*
X27480520Y-6631284D01*
X27368716Y-6519480D01*
X27231784Y-6440423D01*
X27079057Y-6399500D01*
X26920943Y-6399500D01*
X26768216Y-6440423D01*
X26631284Y-6519480D01*
X26519480Y-6631284D01*
X26440423Y-6768216D01*
X26399500Y-6920943D01*
X25600500Y-6920943D01*
X25559577Y-6768216D01*
X25480520Y-6631284D01*
X25368716Y-6519480D01*
X25231784Y-6440423D01*
X25079057Y-6399500D01*
X24920943Y-6399500D01*
X24768216Y-6440423D01*
X24631284Y-6519480D01*
X24519480Y-6631284D01*
X24440423Y-6768216D01*
X24399500Y-6920943D01*
X23600500Y-6920943D01*
X23559577Y-6768216D01*
X23480520Y-6631284D01*
X23368716Y-6519480D01*
X23231784Y-6440423D01*
X23079057Y-6399500D01*
X22920943Y-6399500D01*
X22768216Y-6440423D01*
X22631284Y-6519480D01*
X22519480Y-6631284D01*
X22440423Y-6768216D01*
X22399500Y-6920943D01*
X21600500Y-6920943D01*
X21559577Y-6768216D01*
X21480520Y-6631284D01*
X21368716Y-6519480D01*
X21231784Y-6440423D01*
X21079057Y-6399500D01*
X20920943Y-6399500D01*
X20768216Y-6440423D01*
X20631284Y-6519480D01*
X20519480Y-6631284D01*
X20440423Y-6768216D01*
X20399500Y-6920943D01*
X19600500Y-6920943D01*
X19559577Y-6768216D01*
X19480520Y-6631284D01*
X19368716Y-6519480D01*
X19231784Y-6440423D01*
X19079057Y-6399500D01*
X18920943Y-6399500D01*
X18768216Y-6440423D01*
X18631284Y-6519480D01*
X18519480Y-6631284D01*
X18440423Y-6768216D01*
X18399500Y-6920943D01*
X17600500Y-6920943D01*
X17559577Y-6768216D01*
X17480520Y-6631284D01*
X17368716Y-6519480D01*
X17231784Y-6440423D01*
X17079057Y-6399500D01*
X16920943Y-6399500D01*
X16768216Y-6440423D01*
X16631284Y-6519480D01*
X16519480Y-6631284D01*
X16440423Y-6768216D01*
X16399500Y-6920943D01*
X15600500Y-6920943D01*
X15559577Y-6768216D01*
X15480520Y-6631284D01*
X15368716Y-6519480D01*
X15231784Y-6440423D01*
X15079057Y-6399500D01*
X14920943Y-6399500D01*
X14768216Y-6440423D01*
X14631284Y-6519480D01*
X14519480Y-6631284D01*
X14440423Y-6768216D01*
X14399500Y-6920943D01*
X13600500Y-6920943D01*
X13559577Y-6768216D01*
X13480520Y-6631284D01*
X13368716Y-6519480D01*
X13231784Y-6440423D01*
X13079057Y-6399500D01*
X12920943Y-6399500D01*
X12768216Y-6440423D01*
X12631284Y-6519480D01*
X12519480Y-6631284D01*
X12440423Y-6768216D01*
X12399500Y-6920943D01*
X11600500Y-6920943D01*
X11559577Y-6768216D01*
X11480520Y-6631284D01*
X11368716Y-6519480D01*
X11231784Y-6440423D01*
X11079057Y-6399500D01*
X10920943Y-6399500D01*
X10768216Y-6440423D01*
X10631284Y-6519480D01*
X10519480Y-6631284D01*
X10440423Y-6768216D01*
X10399500Y-6920943D01*
X9600500Y-6920943D01*
X9559577Y-6768216D01*
X9480520Y-6631284D01*
X9368716Y-6519480D01*
X9231784Y-6440423D01*
X9079057Y-6399500D01*
X8920943Y-6399500D01*
X8768216Y-6440423D01*
X8631284Y-6519480D01*
X8519480Y-6631284D01*
X8440423Y-6768216D01*
X8399500Y-6920943D01*
X7600500Y-6920943D01*
X7559577Y-6768216D01*
X7480520Y-6631284D01*
X7368716Y-6519480D01*
X7231784Y-6440423D01*
X7079057Y-6399500D01*
X6920943Y-6399500D01*
X6768216Y-6440423D01*
X6631284Y-6519480D01*
X6519480Y-6631284D01*
X6440423Y-6768216D01*
X6399500Y-6920943D01*
X1000000Y-6920943D01*
X1000000Y-5697648D01*
X1018907Y-5639457D01*
X1068407Y-5603493D01*
X1073377Y-5602021D01*
X1079053Y-5600500D01*
X1079057Y-5600500D01*
X1231784Y-5559577D01*
X1368716Y-5480520D01*
X1480520Y-5368716D01*
X1559577Y-5231784D01*
X1600500Y-5079057D01*
X1600500Y-4920943D01*
X4399500Y-4920943D01*
X4399500Y-5079057D01*
X4440423Y-5231784D01*
X4519480Y-5368716D01*
X4631284Y-5480520D01*
X4768216Y-5559577D01*
X4920943Y-5600500D01*
X4920945Y-5600500D01*
X5079055Y-5600500D01*
X5079057Y-5600500D01*
X5231784Y-5559577D01*
X5368716Y-5480520D01*
X5480520Y-5368716D01*
X5559577Y-5231784D01*
X5600500Y-5079057D01*
X5600500Y-4920943D01*
X8399500Y-4920943D01*
X8399500Y-5079057D01*
X8440423Y-5231784D01*
X8519480Y-5368716D01*
X8631284Y-5480520D01*
X8768216Y-5559577D01*
X8920943Y-5600500D01*
X8920945Y-5600500D01*
X9079055Y-5600500D01*
X9079057Y-5600500D01*
X9231784Y-5559577D01*
X9368716Y-5480520D01*
X9480520Y-5368716D01*
X9559577Y-5231784D01*
X9600500Y-5079057D01*
X9600500Y-4920943D01*
X12399500Y-4920943D01*
X12399500Y-5079057D01*
X12440423Y-5231784D01*
X12519480Y-5368716D01*
X12631284Y-5480520D01*
X12768216Y-5559577D01*
X12920943Y-5600500D01*
X12920945Y-5600500D01*
X13079055Y-5600500D01*
X13079057Y-5600500D01*
X13231784Y-5559577D01*
X13368716Y-5480520D01*
X13480520Y-5368716D01*
X13559577Y-5231784D01*
X13600500Y-5079057D01*
X13600500Y-4920943D01*
X16399500Y-4920943D01*
X16399500Y-5079057D01*
X16440423Y-5231784D01*
X16519480Y-5368716D01*
X16631284Y-5480520D01*
X16768216Y-5559577D01*
X16920943Y-5600500D01*
X16920945Y-5600500D01*
X17079055Y-5600500D01*
X17079057Y-5600500D01*
X17231784Y-5559577D01*
X17368716Y-5480520D01*
X17480520Y-5368716D01*
X17559577Y-5231784D01*
X17600500Y-5079057D01*
X17600500Y-4920943D01*
X20399500Y-4920943D01*
X20399500Y-5079057D01*
X20440423Y-5231784D01*
X20519480Y-5368716D01*
X20631284Y-5480520D01*
X20768216Y-5559577D01*
X20920943Y-5600500D01*
X20920945Y-5600500D01*
X21079055Y-5600500D01*
X21079057Y-5600500D01*
X21231784Y-5559577D01*
X21368716Y-5480520D01*
X21480520Y-5368716D01*
X21559577Y-5231784D01*
X21600500Y-5079057D01*
X21600500Y-4920943D01*
X24399500Y-4920943D01*
X24399500Y-5079057D01*
X24440423Y-5231784D01*
X24519480Y-5368716D01*
X24631284Y-5480520D01*
X24768216Y-5559577D01*
X24920943Y-5600500D01*
X24920945Y-5600500D01*
X25079055Y-5600500D01*
X25079057Y-5600500D01*
X25231784Y-5559577D01*
X25368716Y-5480520D01*
X25480520Y-5368716D01*
X25559577Y-5231784D01*
X25600500Y-5079057D01*
X25600500Y-4920943D01*
X28399500Y-4920943D01*
X28399500Y-5079057D01*
X28440423Y-5231784D01*
X28519480Y-5368716D01*
X28631284Y-5480520D01*
X28768216Y-5559577D01*
X28920943Y-5600500D01*
X28920945Y-5600500D01*
X29079055Y-5600500D01*
X29079057Y-5600500D01*
X29231784Y-5559577D01*
X29368716Y-5480520D01*
X29480520Y-5368716D01*
X29559577Y-5231784D01*
X29600500Y-5079057D01*
X29600500Y-4920943D01*
X32399500Y-4920943D01*
X32399500Y-5079057D01*
X32440423Y-5231784D01*
X32519480Y-5368716D01*
X32631284Y-5480520D01*
X32768216Y-5559577D01*
X32920943Y-5600500D01*
X32920945Y-5600500D01*
X33079055Y-5600500D01*
X33079057Y-5600500D01*
X33231784Y-5559577D01*
X33368716Y-5480520D01*
X33480520Y-5368716D01*
X33559577Y-5231784D01*
X33600500Y-5079057D01*
X33600500Y-4920943D01*
X36399500Y-4920943D01*
X36399500Y-5079057D01*
X36440423Y-5231784D01*
X36519480Y-5368716D01*
X36631284Y-5480520D01*
X36768216Y-5559577D01*
X36920943Y-5600500D01*
X36920945Y-5600500D01*
X37079055Y-5600500D01*
X37079057Y-5600500D01*
X37231784Y-5559577D01*
X37368716Y-5480520D01*
X37480520Y-5368716D01*
X37559577Y-5231784D01*
X37600500Y-5079057D01*
X37600500Y-4920943D01*
X40399500Y-4920943D01*
X40399500Y-5079057D01*
X40440423Y-5231784D01*
X40519480Y-5368716D01*
X40631284Y-5480520D01*
X40768216Y-5559577D01*
X40920943Y-5600500D01*
X40920945Y-5600500D01*
X41079055Y-5600500D01*
X41079057Y-5600500D01*
X41231784Y-5559577D01*
X41368716Y-5480520D01*
X41480520Y-5368716D01*
X41559577Y-5231784D01*
X41600500Y-5079057D01*
X41600500Y-4920943D01*
X44399500Y-4920943D01*
X44399500Y-5079057D01*
X44440423Y-5231784D01*
X44519480Y-5368716D01*
X44631284Y-5480520D01*
X44768216Y-5559577D01*
X44920943Y-5600500D01*
X44920945Y-5600500D01*
X45079055Y-5600500D01*
X45079057Y-5600500D01*
X45231784Y-5559577D01*
X45368716Y-5480520D01*
X45480520Y-5368716D01*
X45559577Y-5231784D01*
X45600500Y-5079057D01*
X45600500Y-4920943D01*
X45559577Y-4768216D01*
X45480520Y-4631284D01*
X45368716Y-4519480D01*
X45231784Y-4440423D01*
X45079057Y-4399500D01*
X44920943Y-4399500D01*
X44768216Y-4440423D01*
X44631284Y-4519480D01*
X44519480Y-4631284D01*
X44440423Y-4768216D01*
X44399500Y-4920943D01*
X41600500Y-4920943D01*
X41559577Y-4768216D01*
X41480520Y-4631284D01*
X41368716Y-4519480D01*
X41231784Y-4440423D01*
X41079057Y-4399500D01*
X40920943Y-4399500D01*
X40768216Y-4440423D01*
X40631284Y-4519480D01*
X40519480Y-4631284D01*
X40440423Y-4768216D01*
X40399500Y-4920943D01*
X37600500Y-4920943D01*
X37559577Y-4768216D01*
X37480520Y-4631284D01*
X37368716Y-4519480D01*
X37231784Y-4440423D01*
X37079057Y-4399500D01*
X36920943Y-4399500D01*
X36768216Y-4440423D01*
X36631284Y-4519480D01*
X36519480Y-4631284D01*
X36440423Y-4768216D01*
X36399500Y-4920943D01*
X33600500Y-4920943D01*
X33559577Y-4768216D01*
X33480520Y-4631284D01*
X33368716Y-4519480D01*
X33231784Y-4440423D01*
X33079057Y-4399500D01*
X32920943Y-4399500D01*
X32768216Y-4440423D01*
X32631284Y-4519480D01*
X32519480Y-4631284D01*
X32440423Y-4768216D01*
X32399500Y-4920943D01*
X29600500Y-4920943D01*
X29559577Y-4768216D01*
X29480520Y-4631284D01*
X29368716Y-4519480D01*
X29231784Y-4440423D01*
X29079057Y-4399500D01*
X28920943Y-4399500D01*
X28768216Y-4440423D01*
X28631284Y-4519480D01*
X28519480Y-4631284D01*
X28440423Y-4768216D01*
X28399500Y-4920943D01*
X25600500Y-4920943D01*
X25559577Y-4768216D01*
X25480520Y-4631284D01*
X25368716Y-4519480D01*
X25231784Y-4440423D01*
X25079057Y-4399500D01*
X24920943Y-4399500D01*
X24768216Y-4440423D01*
X24631284Y-4519480D01*
X24519480Y-4631284D01*
X24440423Y-4768216D01*
X24399500Y-4920943D01*
X21600500Y-4920943D01*
X21559577Y-4768216D01*
X21480520Y-4631284D01*
X21368716Y-4519480D01*
X21231784Y-4440423D01*
X21079057Y-4399500D01*
X20920943Y-4399500D01*
X20768216Y-4440423D01*
X20631284Y-4519480D01*
X20519480Y-4631284D01*
X20440423Y-4768216D01*
X20399500Y-4920943D01*
X17600500Y-4920943D01*
X17559577Y-4768216D01*
X17480520Y-4631284D01*
X17368716Y-4519480D01*
X17231784Y-4440423D01*
X17079057Y-4399500D01*
X16920943Y-4399500D01*
X16768216Y-4440423D01*
X16631284Y-4519480D01*
X16519480Y-4631284D01*
X16440423Y-4768216D01*
X16399500Y-4920943D01*
X13600500Y-4920943D01*
X13559577Y-4768216D01*
X13480520Y-4631284D01*
X13368716Y-4519480D01*
X13231784Y-4440423D01*
X13079057Y-4399500D01*
X12920943Y-4399500D01*
X12768216Y-4440423D01*
X12631284Y-4519480D01*
X12519480Y-4631284D01*
X12440423Y-4768216D01*
X12399500Y-4920943D01*
X9600500Y-4920943D01*
X9559577Y-4768216D01*
X9480520Y-4631284D01*
X9368716Y-4519480D01*
X9231784Y-4440423D01*
X9079057Y-4399500D01*
X8920943Y-4399500D01*
X8768216Y-4440423D01*
X8631284Y-4519480D01*
X8519480Y-4631284D01*
X8440423Y-4768216D01*
X8399500Y-4920943D01*
X5600500Y-4920943D01*
X5559577Y-4768216D01*
X5480520Y-4631284D01*
X5368716Y-4519480D01*
X5231784Y-4440423D01*
X5079057Y-4399500D01*
X4920943Y-4399500D01*
X4768216Y-4440423D01*
X4631284Y-4519480D01*
X4519480Y-4631284D01*
X4440423Y-4768216D01*
X4399500Y-4920943D01*
X1600500Y-4920943D01*
X1559577Y-4768216D01*
X1480520Y-4631284D01*
X1368716Y-4519480D01*
X1231784Y-4440423D01*
X1079057Y-4399500D01*
X1073377Y-4397978D01*
X1022062Y-4364654D01*
X1000136Y-4307532D01*
X1000000Y-4302351D01*
X1000000Y-1697648D01*
X1018907Y-1639457D01*
X1068407Y-1603493D01*
X1073377Y-1602021D01*
X1079053Y-1600500D01*
X1079057Y-1600500D01*
X1231784Y-1559577D01*
X1368716Y-1480520D01*
X1480520Y-1368716D01*
X1559577Y-1231784D01*
X1600500Y-1079057D01*
X1600500Y-1079053D01*
X1602021Y-1073377D01*
X1635345Y-1022063D01*
X1692466Y-1000136D01*
X1697648Y-1000000D01*
X4302352Y-1000000D01*
X4360543Y-1018907D01*
G37*
%TD.AperFunction*%
%TD*%
D13*
X33000000Y-5000000D03*
X48250000Y-31636000D03*
X45636000Y-7750000D03*
X5000000Y-5000000D03*
X7000000Y-15000000D03*
X17600000Y-13000000D03*
X22100000Y-11000000D03*
X27000000Y-15000000D03*
X41000000Y-7000000D03*
X21600000Y-13000000D03*
X29600000Y-11000000D03*
X25000000Y-21000000D03*
X27000000Y-7000000D03*
X9000000Y-9000000D03*
X15000000Y-15000000D03*
X25100000Y-11000000D03*
X7000000Y-17000000D03*
X13000000Y-5000000D03*
X29000000Y-9000000D03*
X31000000Y-15000000D03*
X32600000Y-11000000D03*
X9000000Y-25000000D03*
X27600000Y-13000000D03*
X41000000Y-15000000D03*
X39750000Y-33159999D03*
X13000000Y-9000000D03*
X42600000Y-13000000D03*
X20600000Y-11000000D03*
X41600000Y-11000000D03*
X45636000Y-16250000D03*
X45000000Y-1000000D03*
X4364000Y-9875000D03*
X49000000Y-25000000D03*
X36600000Y-13000000D03*
X44375000Y-17649500D03*
X25000000Y-9000000D03*
X23000000Y-15000000D03*
X33000000Y-21000000D03*
X39000000Y-15000000D03*
X33000000Y-17000000D03*
X33600000Y-13000000D03*
X21000000Y-15000000D03*
X2840000Y-7750000D03*
X15000000Y-17000000D03*
X21000000Y-21000000D03*
X13000000Y-7000000D03*
X48684000Y-9875000D03*
X23480000Y-31040000D03*
X39600000Y-13000000D03*
X2840000Y-14125000D03*
X46125000Y-31636000D03*
X20366000Y-14000000D03*
X17000000Y-9000000D03*
X37000000Y-1000000D03*
X11000000Y-9000000D03*
X13000000Y-25000000D03*
X31100000Y-11000000D03*
X48684000Y-16250000D03*
X15433300Y-8840000D03*
X5000000Y-25000000D03*
X23000000Y-9000000D03*
X46125000Y-33159999D03*
X45636000Y-14125000D03*
X21000000Y-7000000D03*
X4364000Y-14125000D03*
X38600000Y-11000000D03*
X9000000Y-17000000D03*
X44000000Y-12933000D03*
X14250000Y-13433000D03*
X30600000Y-13000000D03*
X47160000Y-14125000D03*
X45636000Y-9875000D03*
X41875000Y-34684000D03*
X25000000Y-15000000D03*
X31000000Y-7000000D03*
X17000000Y-25000000D03*
X13000000Y-17000000D03*
X41000000Y-1000000D03*
X26100000Y-13000000D03*
X31000000Y-17000000D03*
X41000000Y-5000000D03*
X37000000Y-9000000D03*
X17000000Y-7000000D03*
X49000000Y-29000000D03*
X44250000Y-14817000D03*
X35600000Y-11000000D03*
X19000000Y-9000000D03*
X17000000Y-15000000D03*
X1000000Y-33000000D03*
X15433300Y-9827500D03*
X25000000Y-17000000D03*
X47160000Y-9875000D03*
X1000000Y-21000000D03*
X15000000Y-7000000D03*
X33000000Y-1000000D03*
X1316000Y-16250000D03*
X43100000Y-11000000D03*
X35000000Y-15000000D03*
X37000000Y-7000000D03*
X8900000Y-13000000D03*
X4364000Y-16250000D03*
X45000000Y-21000000D03*
X9000000Y-7000000D03*
X14566700Y-10815000D03*
X16000000Y-13500000D03*
X9000000Y-29000000D03*
X14566700Y-9827500D03*
X11000000Y-7000000D03*
X9000000Y-1000000D03*
X35050000Y-28025000D03*
X39750000Y-34684000D03*
X41875000Y-33159999D03*
X9000000Y-5000000D03*
X7450000Y-11000000D03*
X29000000Y-1000000D03*
X23000000Y-17000000D03*
X19000000Y-7000000D03*
X13000000Y-21000000D03*
X32479999Y-22540000D03*
X6000000Y-13000000D03*
X29000000Y-15000000D03*
X41000000Y-17000000D03*
X17000000Y-33000000D03*
X1316000Y-14125000D03*
X39750000Y-31636000D03*
X1000000Y-1000000D03*
X10450000Y-26125000D03*
X5000000Y-1000000D03*
X11000000Y-17000000D03*
X17000000Y-29000000D03*
X41000000Y-9000000D03*
X33000000Y-33000000D03*
X33000000Y-9000000D03*
X11000000Y-15000000D03*
X39000000Y-17000000D03*
X35000000Y-7000000D03*
X48250000Y-34684000D03*
X11850000Y-11000000D03*
X17000000Y-1000000D03*
X47160000Y-7750000D03*
X43000000Y-9000000D03*
X29000000Y-29000000D03*
X25212500Y-32875000D03*
X17600000Y-11000000D03*
X23950000Y-27625000D03*
X32100000Y-13000000D03*
X40100000Y-11000000D03*
X48684000Y-7750000D03*
X25000000Y-7000000D03*
X29000000Y-7000000D03*
X33000000Y-7000000D03*
X49000000Y-1000000D03*
X8900000Y-11000000D03*
X45000000Y-5000000D03*
X21000000Y-25000000D03*
X14566700Y-8840000D03*
X17000000Y-21000000D03*
X29100000Y-13000000D03*
X28100000Y-11000000D03*
X29000000Y-5000000D03*
X25000000Y-1000000D03*
X17000000Y-17000000D03*
X12850000Y-26300000D03*
X35000000Y-9000000D03*
X6000000Y-11000000D03*
X49000000Y-5000000D03*
X4364000Y-7750000D03*
X2840000Y-16250000D03*
X29000000Y-21000000D03*
X21400000Y-18610000D03*
X26600000Y-11000000D03*
X35000000Y-17000000D03*
X11850000Y-13000000D03*
X37100000Y-11000000D03*
X1316000Y-9875000D03*
X1000000Y-25000000D03*
X46125000Y-34684000D03*
X39000000Y-9000000D03*
X1000000Y-29000000D03*
X21000000Y-9000000D03*
X15433300Y-10815000D03*
X43000000Y-7000000D03*
X41000000Y-21000000D03*
X23600000Y-11000000D03*
X13000000Y-1000000D03*
X23000000Y-7000000D03*
X27000000Y-9000000D03*
X19750000Y-16500000D03*
X7000000Y-9000000D03*
X35100000Y-13000000D03*
X9000000Y-33000000D03*
X24600000Y-13000000D03*
X31000000Y-9000000D03*
X2840000Y-9875000D03*
X19100000Y-11000000D03*
X34100000Y-11000000D03*
X29000000Y-17000000D03*
X20100000Y-13000000D03*
X41100000Y-13000000D03*
X21000000Y-1000000D03*
X41000000Y-29000000D03*
X47160000Y-16250000D03*
X1316000Y-7750000D03*
X39000000Y-7000000D03*
X23100000Y-13000000D03*
X37000000Y-33000000D03*
X45000000Y-29000000D03*
X25000000Y-5000000D03*
X21000000Y-33000000D03*
X18600000Y-18610000D03*
X5000000Y-29000000D03*
X49000000Y-21000000D03*
X37000000Y-5000000D03*
X10350000Y-13000000D03*
X5000000Y-21000000D03*
X41875000Y-31636000D03*
X48684000Y-14125000D03*
X33000000Y-15000000D03*
X21000000Y-5000000D03*
X17634000Y-14000000D03*
X38100000Y-13000000D03*
X27000000Y-17000000D03*
X17000000Y-5000000D03*
X9000000Y-21000000D03*
X1000000Y-5000000D03*
X37000000Y-29000000D03*
X45000000Y-25000000D03*
X9000000Y-15000000D03*
X10350000Y-11000000D03*
X7000000Y-7000000D03*
X48250000Y-33159999D03*
X7450000Y-13000000D03*
X13000000Y-15000000D03*
X31520000Y-22540000D03*
X32950000Y-28025000D03*
X19150000Y-27450000D03*
X22050000Y-27625000D03*
X11200000Y-30000000D03*
X31650000Y-25175000D03*
X22520000Y-31040000D03*
X29510000Y-33030000D03*
D14*
X4000000Y-32000000D03*
X6000000Y-32000000D03*
M02*
